<svg width="260" height="93" viewBox="0 0 260 93" fill="none" xmlns="http://www.w3.org/2000/svg">
<path d="M244.068 0.242881C244.262 0.364116 244.553 0.485352 244.674 0.485352C244.82 0.485352 244.747 0.364116 244.553 0.242881C244.359 0.121645 244.092 0.00041011 243.947 0.00041011C243.826 0.00041011 243.874 0.121645 244.068 0.242881Z" fill="#F0E7BE"/>
<path d="M241.595 0.412848C241.74 0.461342 242.031 0.461342 242.201 0.412848C242.347 0.340107 242.225 0.291613 241.886 0.291613C241.546 0.291613 241.425 0.340107 241.595 0.412848Z" fill="#F0E7BE"/>
<path d="M232.915 1.23599C230.975 1.45399 228.599 1.67199 227.653 1.67199C226.416 1.69621 225.883 1.7931 225.859 1.98688C225.616 4.89355 226.271 15.5271 226.853 18.4338C227.216 20.1536 227.338 21.7523 227.338 24.3683C227.338 28.3649 227.677 30.4481 228.38 30.6661C228.623 30.7387 228.938 30.6903 229.108 30.5692C229.277 30.4481 230.49 30.2785 231.823 30.1816C233.157 30.0847 235.509 29.8667 237.037 29.7214L239.825 29.4307L239.752 27.7352C239.704 26.7905 239.631 25.7489 239.558 25.3856L239.437 24.7316L236.188 24.8769L232.939 25.0223L232.696 24.4409C232.502 23.9807 231.945 19.6934 231.945 18.676C231.945 18.5791 232.939 18.4822 234.151 18.458C235.388 18.4338 236.406 18.3854 236.455 18.3369C236.6 18.2158 236.018 13.9527 235.824 13.7347C235.582 13.4682 232.648 13.8316 232.842 14.1222C232.939 14.2676 232.866 14.2918 232.648 14.1465C232.454 14.0496 232.114 13.9527 231.848 13.9285C231.46 13.9285 231.387 13.662 231.266 12.1118C231.193 11.1187 231.12 9.90756 231.12 9.44734L231.096 8.59956L234.854 8.18778C236.915 7.94556 238.807 7.63067 239.025 7.50956C239.267 7.38844 240.14 7.31578 240.965 7.38844C242.177 7.46111 242.298 7.43689 241.522 7.29156C240.989 7.17044 240.746 7.07355 240.989 7.04933C241.231 7.04933 241.377 6.92822 241.304 6.80711C241.207 6.686 241.304 6.51644 241.449 6.468C241.692 6.37111 241.692 6.32266 241.474 6.32266C241.304 6.29844 241.159 6.08044 241.159 5.83822C241.159 5.57177 241.013 5.30533 240.868 5.25688C240.625 5.16 240.649 5.06311 240.916 4.86933C241.159 4.69977 241.183 4.60288 240.989 4.60288C240.795 4.60288 240.674 4.26377 240.674 3.7551C240.674 3.07688 240.577 2.90732 240.189 2.90732C239.776 2.90732 239.704 2.73777 239.704 1.84154V0.775763H238.079C237.158 0.799986 234.854 0.993763 232.915 1.23599ZM240.286 6.10466C240.213 6.20155 240.067 6.29844 239.922 6.29844C239.801 6.29844 239.704 6.20155 239.704 6.10466C239.704 5.98355 239.873 5.88666 240.067 5.88666C240.261 5.88666 240.358 5.98355 240.286 6.10466ZM240.358 6.92822C240.286 7.00089 240.067 7.02511 239.898 6.95244C239.704 6.87978 239.776 6.80711 240.043 6.80711C240.31 6.78289 240.455 6.85555 240.358 6.92822ZM236.915 7.70333C236.843 7.776 236.649 7.70333 236.479 7.53378C236.261 7.29156 236.285 7.26733 236.624 7.41267C236.867 7.48533 236.988 7.63067 236.915 7.70333ZM238.419 7.41267C238.346 7.48533 238.128 7.50956 237.958 7.43689C237.764 7.36422 237.837 7.29156 238.103 7.29156C238.37 7.26733 238.516 7.34 238.419 7.41267Z" fill="#F0E7BE"/>
<path d="M240.868 0.896247C241.013 0.944741 241.304 0.944741 241.474 0.896247C241.619 0.823505 241.498 0.775011 241.159 0.775011C240.819 0.775011 240.698 0.823505 240.868 0.896247Z" fill="#F0E7BE"/>
<path d="M218.1 3.8034L215.529 4.16673L215.36 7.14607C215.19 10.077 214.414 15.8903 214.147 16.1568C213.784 16.5201 212.935 13.7588 211.553 7.77585C210.923 4.96607 210.607 4.62696 208.886 4.74807C207.504 4.84496 204.036 5.52318 203.624 5.78963C203.382 5.93496 203.406 6.12874 205.152 17.1983C205.612 20.2019 206.073 23.3992 206.146 24.3439C206.219 25.2643 206.437 26.5239 206.607 27.1295C206.776 27.735 206.97 29.0915 207.043 30.1572C207.164 32.2404 207.601 33.5241 208.086 33.3304C208.255 33.2577 208.813 33.1366 209.322 33.0397C211.141 32.7248 211.165 32.6764 210.971 30.3268C210.874 29.1641 210.656 27.1779 210.462 25.9183C209.395 18.9181 209.177 16.2294 209.637 15.1394C209.856 14.6065 209.856 14.6065 210.341 16.4716C210.486 17.0772 211.141 19.6205 211.795 22.1639C212.45 24.683 213.371 28.0257 213.856 29.5759L214.729 32.4099L216.16 32.0224L217.59 31.6348L217.566 30.3026C217.518 19.1845 218.003 10.6341 218.633 11.0459C218.754 11.1185 218.851 12.4508 218.851 14.001C218.851 15.5512 218.973 17.489 219.118 18.2883C219.264 19.0877 219.385 19.9597 219.385 20.2261C219.385 20.4925 219.53 21.631 219.724 22.7694C219.894 23.9079 220.161 25.9668 220.306 27.3717C220.476 28.7766 220.694 30.2057 220.84 30.569C221.131 31.3199 221.858 31.659 222.367 31.2472C222.804 30.8839 223.24 28.2437 223.264 25.7003C223.361 14.7519 223.167 7.99385 222.731 6.29829C221.955 3.24629 222.028 3.39162 221.325 3.41584C220.961 3.44007 219.506 3.60962 218.1 3.8034Z" fill="#F0E7BE"/>
<path d="M199.696 4.36063C199.502 4.48174 198.484 4.60285 197.465 4.60285H195.598L195.695 5.98352C195.768 6.75863 195.913 9.66531 196.035 12.4751C196.18 15.2607 196.447 18.7971 196.665 20.3231C196.859 21.8491 197.029 23.7627 197.029 24.562C197.053 25.3856 197.198 26.742 197.392 27.614C197.586 28.486 197.732 29.8667 197.756 30.6902C197.756 32.3858 197.902 32.5554 199.332 32.6038C199.866 32.628 200.569 32.7249 200.908 32.8218C201.975 33.0883 202.412 32.5069 202.412 30.8598C202.387 29.0431 202.169 24.6589 201.854 19.8629C201.733 17.804 201.466 13.4924 201.272 10.2951C200.884 4.14263 200.763 3.6824 199.696 4.36063Z" fill="#F0E7BE"/>
<path d="M72.4231 8.01837C70.6288 9.81082 69.4892 11.8213 68.0101 15.7211C67.6464 16.6899 67.2585 17.3197 66.9433 17.4408C66.6765 17.5377 64.9792 17.7315 63.185 17.9011C61.3907 18.0706 59.6934 18.2644 59.4509 18.3371C59.0145 18.4582 58.9902 18.7004 59.1599 24.0777L59.3297 29.6731L60.7603 31.1264C62.2393 32.6282 62.4575 32.9431 61.8999 32.9431C61.7301 32.9431 60.3723 33.5487 58.869 34.2753C56.0321 35.6802 55.3774 36.31 54.456 38.49C54.2135 39.1198 54.0681 39.1682 53.2922 39.0956C50.6492 38.8049 40.3685 38.5142 33.4096 38.5142C23.347 38.5142 19.5645 38.9018 6.93175 41.1787C0.288055 42.3898 0.142573 42.414 0.0213374 42.632C-0.0514038 42.7289 0.0698316 44.1822 0.263808 45.8293C0.603267 48.7118 0.651761 48.9056 1.67014 50.4558C3.00373 52.4663 3.87662 55.0338 4.36156 58.4007C5.08898 63.2452 4.70102 67.6052 3.41593 69.5914C2.80975 70.4634 2.7855 70.633 2.95523 72.4496C3.05222 73.5154 3.1977 74.4359 3.29469 74.4843C3.53716 74.6296 15.588 73.1279 20.0252 72.4254C25.99 71.4565 30.8879 69.8821 34.4279 67.799C36.9496 66.2972 38.8409 64.2383 40.8777 60.7987C44.345 54.9369 48.4185 51.7154 55.7169 49.0751C59.1842 47.8156 61.5362 47.4522 73.3202 46.2654C78.4364 45.7567 79.091 45.5871 80.2064 44.4002C81.0793 43.4556 81.3218 42.3413 81.5157 38.1993L81.6855 34.6387H83.892C85.662 34.6387 86.4622 34.7598 87.9897 35.2927C89.1778 35.7044 90.0022 36.1404 90.172 36.4311C90.3417 36.746 90.4387 38.054 90.4144 39.7253C90.3902 43.504 89.8567 45.3933 87.2866 50.5769C85.953 53.314 85.1286 55.276 84.9831 56.1965C84.7164 57.6256 84.9831 63.7781 85.3225 64.1172C85.4195 64.2141 87.4805 64.0929 89.9295 63.8507C92.3542 63.6327 95.6518 63.3421 97.2521 63.1967C101.253 62.8576 101.253 62.8576 101.253 62.0341C101.253 61.2105 101.107 61.0409 99.2404 59.7329C98.125 58.9336 97.1309 57.7952 97.1309 57.3349C97.1309 57.2865 97.4218 57.1654 97.8098 57.0927C98.6584 56.9232 99.5071 56.1238 99.701 55.3003C99.798 54.9369 99.7253 53.9923 99.5556 53.1687C99.3616 52.3694 99.2161 51.2794 99.2161 50.7465C99.1919 49.8987 99.2888 49.7534 99.992 49.4142C100.453 49.1962 101.035 48.6391 101.326 48.1789C101.811 47.428 101.859 47.0405 101.835 44.0369V40.7184L102.514 41.4209C103.241 42.196 104.502 42.9227 104.72 42.7289C104.793 42.6562 105.06 42.7047 105.351 42.85C105.739 43.068 106.272 42.9469 108.066 42.2929C110.515 41.3725 111.388 40.6942 112.431 38.8776C113.061 37.7876 113.134 37.4484 113.134 35.5591C113.134 33.1127 112.673 31.6351 111.218 29.4066C110.346 28.026 109.982 27.7353 106.49 25.4584C104.672 24.2715 102.974 22.5275 102.708 21.6071C102.102 19.4271 102.562 18.5308 104.211 18.5793C105.763 18.652 106.272 19.1364 106.466 20.7108C106.563 21.4375 106.733 22.1157 106.854 22.1642C106.951 22.2368 107.703 22.14 108.503 21.922C109.279 21.7282 110.2 21.5586 110.515 21.5586C111.097 21.5586 111.121 21.5102 111 20.2748C110.782 17.6588 109.545 15.8664 107.169 14.6795C106.054 14.1224 105.787 14.0739 104.672 14.2919C102.902 14.6311 101.714 15.3093 100.453 16.6899L99.3616 17.9253L99.1919 16.2297L99.0221 14.5342L97.3976 14.6795C96.5247 14.7764 95.7488 14.8733 95.7003 14.9217C95.6518 14.9702 94.8759 14.3404 94.003 13.4926C92.2087 11.8213 90.7296 10.9493 86.8259 9.37482C83.1645 7.87304 81.4673 7.36437 78.2424 6.78304C74.2174 6.08059 74.4114 6.03214 72.4231 8.01837ZM102.683 29.3098C103.678 30.0849 104.793 30.8115 105.157 30.8842C105.545 30.9811 105.908 31.2233 105.981 31.4655C106.054 31.6835 106.636 32.2891 107.29 32.7735C108.551 33.7424 108.769 34.2511 108.769 36.3342C108.769 37.618 108.6 37.8118 107.121 38.2478C106.175 38.5142 106.005 38.49 105.569 38.1024C104.817 37.4242 104.405 36.4553 104.405 35.3653C104.405 34.3964 104.381 34.3722 103.75 34.4933C103.362 34.566 102.611 34.6871 102.077 34.7598L101.059 34.9051L100.889 31.8046C100.816 30.1091 100.671 28.5104 100.622 28.2682C100.428 27.59 100.768 27.7838 102.683 29.3098Z" fill="#F0E7BE"/>
<path d="M190.312 6.46832C189.367 6.6621 189.246 7.04966 189.512 8.98744C189.658 9.95633 189.852 10.8526 189.973 10.9737C190.07 11.0706 190.628 11.0948 191.185 10.9979L192.204 10.8283L192.034 8.86633C191.961 7.80055 191.767 6.75899 191.646 6.58944C191.379 6.29877 191.258 6.27455 190.312 6.46832Z" fill="#F0E7BE"/>
<path d="M168.781 6.75835L167.811 6.90368L167.52 10.0526C167.011 14.9697 165.605 21.4613 164.901 22.0426C164.635 22.2606 164.489 22.0426 164.053 20.9042C163.35 19.0633 161.967 13.7101 161.555 11.2637L161.24 9.32591L159.009 9.25324C156.924 9.18058 156.779 9.22902 156.488 9.73769C156.318 10.0526 156.1 11.3364 156.027 12.5959C155.93 13.8555 155.76 15.333 155.615 15.8659C155.445 16.3988 155.324 18.0459 155.324 19.5235C155.324 21.3159 155.227 22.3333 155.009 22.6239C154.742 22.9873 154.524 22.0426 153.529 16.3019C152.899 12.5959 152.317 9.47124 152.244 9.35013C152.172 9.25324 151.614 9.22902 150.984 9.30169C150.377 9.39858 149.335 9.51969 148.68 9.61658L147.492 9.76191L147.637 12.2084C147.734 13.6375 148.074 15.6964 148.438 17.077C148.777 18.4093 149.165 20.3955 149.286 21.4855C149.504 23.4475 149.771 24.8282 151.081 31.0048C151.444 32.6762 151.735 34.8077 151.735 35.7766C151.735 38.2231 151.881 38.32 155.057 38.0778L157.554 37.9082L157.627 36.6971C157.676 36.0189 157.821 34.4929 157.942 33.306C158.088 32.0949 158.33 29.164 158.476 26.766C158.621 24.3679 158.791 21.9215 158.864 21.3159C158.985 20.3713 159.034 20.2986 159.276 20.7104C159.567 21.2433 159.543 21.1706 159.906 23.5928C160.173 25.4579 160.682 26.3542 161.798 26.8628C162.525 27.1777 162.574 27.2988 162.719 28.9217C162.913 30.9322 163.18 32.216 163.834 34.4444L164.295 36.0673L166.065 35.922C167.011 35.8493 168.15 35.7282 168.538 35.6313L169.266 35.4617L169.314 31.344C169.363 26.1119 169.751 21.0495 170.236 19.4993C170.818 17.6099 171.278 14.243 171.472 10.5128C171.618 7.19435 171.618 7.07324 171.133 6.8068C170.599 6.51613 170.333 6.51613 168.781 6.75835Z" fill="#F0E7BE"/>
<path d="M187.742 6.92824C187.67 7.02513 187.039 7.07358 186.36 7.04935C185.681 7.04935 183.305 7.26735 181.074 7.55802C178.844 7.82447 176.273 8.13936 175.328 8.21202L173.63 8.35736L173.558 9.78647C173.461 11.6274 173.873 12.6931 174.576 12.4994C175.861 12.136 178.431 11.8454 178.601 12.0391C178.868 12.3298 179.789 19.8629 180.517 27.8321C181.05 33.9603 181.196 34.9776 181.584 35.2199C181.899 35.4136 182.044 35.4136 182.19 35.1956C182.311 35.0019 182.99 34.9292 184.226 34.9534C185.39 34.9776 186.19 34.905 186.384 34.7112C186.603 34.4932 186.554 33.8876 186.239 32.1679C186.021 30.9325 185.754 28.7767 185.633 27.3718C185.536 25.967 185.39 24.5621 185.293 24.2229C185.051 23.3267 184.202 12.1118 184.323 11.7485C184.396 11.5789 185.124 11.3851 186.118 11.2883C188.688 11.046 188.639 11.1187 188.47 9.01136C188.348 7.29158 188.082 6.58913 187.742 6.92824Z" fill="#F0E7BE"/>
<path d="M241.959 6.95191C242.177 7.0004 242.565 7.0004 242.807 6.95191C243.026 6.87917 242.832 6.83068 242.371 6.83068C241.91 6.83068 241.716 6.87917 241.959 6.95191Z" fill="#F0E7BE"/>
<path d="M126.494 11.1428C126.3 11.2397 125.282 11.4093 124.239 11.5062C122.542 11.6515 122.324 11.7242 122.202 12.2328C122.13 12.5235 122.299 14.9457 122.566 17.6102C122.857 20.2746 123.075 22.6242 123.075 22.818C123.075 23.3509 121.79 23.8111 120.796 23.6415C119.826 23.4477 119.778 23.2782 119.56 18.6517C119.487 16.9804 119.293 14.8731 119.147 13.9526L118.905 12.3055L117.038 12.4751C114.54 12.693 114.468 12.7173 114.007 13.7588C113.643 14.5824 113.619 14.9699 113.861 17.1742C114.007 18.5306 114.298 20.5895 114.492 21.7522C114.686 22.9148 114.953 25.4824 115.074 27.4929C115.195 29.4791 115.413 32.6522 115.559 34.5173C116.092 41.7598 116.141 41.9051 117.183 41.9051C117.523 41.9051 118.638 41.7113 119.632 41.4933L121.451 41.0573L121.281 38.1507C121.184 36.552 120.942 33.936 120.748 32.3373C120.578 30.7386 120.408 28.922 120.408 28.268V27.1295H121.839C122.978 27.1295 123.294 27.2264 123.439 27.5413C123.609 28.0015 123.924 31.8771 124.191 36.6973C124.288 38.5624 124.482 40.04 124.773 40.8151C125.185 41.9293 125.5 44.5696 126.955 59.7085C127.076 60.8954 127.343 63.4629 127.537 65.4007C127.755 67.3385 128.41 73.8059 129.016 79.813C129.598 85.7959 130.18 91.1248 130.252 91.6577L130.398 92.5781L131.416 92.457C131.974 92.3843 135.247 92.021 138.715 91.6819C142.182 91.3428 145.019 91.0279 145.067 91.0037C145.092 90.9552 144.679 86.7406 144.146 81.6297C143.613 76.4945 143.031 70.7296 142.837 68.7918C142.473 65.0132 142.012 60.5078 141.261 53.0474C140.994 50.4556 140.606 46.6769 140.412 44.6907C140.194 42.6802 140 40.7667 139.927 40.4033C139.83 39.7978 139.879 39.7493 141.624 39.3618C144.001 38.8531 146.304 37.6904 146.643 36.8427C146.813 36.4793 146.934 34.4204 146.934 31.8529C146.959 28.1953 146.862 26.8389 146.304 23.4962C145.528 18.7244 145.116 17.1257 144.267 15.4544C143.443 13.8315 141.309 11.7484 140.242 11.5062C138.545 11.1428 136.605 11.385 134.884 12.1602C133.477 12.8142 133.138 13.1048 132.41 14.2433C130.834 16.7866 130.446 20.3715 131.295 24.9737C131.853 27.9773 133.235 33.4758 133.477 33.7422C133.865 34.1298 134.981 33.5969 135.975 32.5553C136.532 31.974 137.139 31.4895 137.284 31.4895C138.012 31.4895 137.963 30.5691 136.969 24.5377C136.411 21.0982 135.926 17.9493 135.926 17.5133C135.926 16.5686 136.969 15.2606 137.745 15.2606C139.127 15.2606 140.194 16.8835 141.139 20.3957C141.818 22.8906 141.94 24.2471 142.085 30.666C142.206 34.808 142.182 35.0987 141.721 35.5831C141.43 35.898 140.945 36.0918 140.436 36.0918C139.66 36.0918 139.636 36.0675 139.103 34.2751C138.812 33.2578 138.448 32.4584 138.278 32.4584C137.89 32.4584 136.993 33.064 135.926 34.0329C135.466 34.4689 134.762 34.9775 134.374 35.1471C133.987 35.3409 133.623 35.6073 133.574 35.7527C133.429 36.1887 134.471 37.3029 135.757 38.0296C136.872 38.6593 136.945 38.732 136.387 38.8531C135.66 39.0227 130.058 39.5313 129.986 39.4344C129.962 39.386 129.743 37.3998 129.525 35.0018C129.283 32.6038 128.943 29.358 128.773 27.8078C128.555 25.8942 128.507 24.7073 128.676 24.1744C128.822 23.6173 128.798 22.8422 128.555 21.5584C128.119 19.4268 127.682 15.0426 127.682 13.0806C127.682 11.5788 127.149 10.731 126.494 11.1428Z" fill="#F0E7BE"/>
<path d="M259.101 30.9564C256.749 31.1259 255.004 31.5377 254.882 31.9253C254.397 33.6208 252.749 39.846 252.555 40.8633L252.288 42.0986L250.397 38.4168C249.354 36.4064 248.214 34.2264 247.826 33.5724L247.148 32.4097L245.256 32.555C241.668 32.8699 241.546 32.0948 246.25 39.8702L250.348 46.7009L250.954 51.8844C251.318 54.7184 251.585 57.1891 251.585 57.3587C251.585 57.5524 251.754 57.6251 252.021 57.5524C252.239 57.504 253.282 57.3829 254.349 57.286L256.264 57.1164L256.095 55.6389C256.022 54.8153 255.731 52.3689 255.464 50.2131L255.004 46.2891L257.55 38.5864C258.932 34.3717 260.047 30.9079 259.998 30.9079C259.974 30.8837 259.562 30.9079 259.101 30.9564Z" fill="#F0E7BE"/>
<path d="M239.219 33.1855C238.491 33.2824 235.267 33.6699 232.066 34.0333C228.865 34.3724 226.004 34.7115 225.689 34.7842C225.156 34.9053 225.131 34.9537 225.301 36.6493C225.398 37.6182 225.471 38.4175 225.495 38.4417C225.495 38.466 226.707 38.3206 228.186 38.1511C229.641 37.9573 230.926 37.8846 231.023 37.9331C231.12 38.0057 231.217 38.3691 231.217 38.7566C231.217 40.1615 231.314 40.21 233.812 40.21H236.115L235.945 38.7808C235.751 37.1337 235.654 37.2064 238.613 36.94C241.45 36.6977 241.377 36.722 241.256 35.5593C241.037 33.6699 240.892 32.9433 240.722 32.9675C240.625 32.9917 239.946 33.0886 239.219 33.1855Z" fill="#F0E7BE"/>
<path d="M216.572 35.7524C215.093 35.9462 213.881 36.1399 213.832 36.1642C213.735 36.2853 212.547 45.8288 212.547 46.5555C212.547 47.1126 212.644 47.2337 213.129 47.2337C213.711 47.2337 213.711 47.2822 213.59 48.6144C213.444 50.5037 213.396 50.5764 212.62 50.6733L211.941 50.746L211.577 54.2582C211.262 57.3102 211.262 57.7704 211.553 57.8673C211.747 57.8915 212.814 57.8673 213.929 57.7704L215.942 57.6009V56.7046C215.942 55.2513 216.257 55.0575 219.045 54.7426C220.403 54.5973 221.615 54.5246 221.737 54.5973C221.858 54.6942 222.149 55.3482 222.367 56.0749C222.658 56.9711 222.925 57.4071 223.191 57.4071C223.482 57.4071 223.507 57.4555 223.264 57.6251C222.997 57.7946 223.022 58.0853 223.361 59.248C223.579 60.0231 223.773 60.7013 223.822 60.7498C223.895 60.8224 228.647 60.3138 228.744 60.1927C228.768 60.1684 227.992 57.8189 226.974 54.9606C225.98 52.1266 225.155 49.7044 225.155 49.6075C225.155 49.4864 225.446 49.4137 225.786 49.4137C226.319 49.4137 226.368 49.3411 226.247 48.8566C226.15 48.566 226.028 48.13 225.98 47.912C225.907 47.6697 225.568 47.476 225.083 47.4275L224.307 47.3548L222.246 41.4204C220.5 36.4548 220.088 35.4859 219.7 35.4617C219.433 35.4375 218.027 35.5828 216.572 35.7524ZM217.639 40.2335C217.784 40.9602 218.293 42.8737 218.778 44.4966C219.627 47.3548 219.676 47.4517 220.379 47.5244C221.009 47.5971 221.155 47.7424 221.421 48.6871C221.615 49.2926 221.761 49.8013 221.761 49.8013C221.761 49.8255 221.494 49.9224 221.155 49.9951C220.815 50.092 220.548 50.31 220.548 50.5037C220.548 50.9155 220.161 51.0366 218.075 51.2304L216.426 51.4V50.7702C216.426 50.2373 216.523 50.1404 217.13 50.1404C217.784 50.1404 217.857 50.0677 218.003 48.9051C218.197 47.5728 218.1 47.3548 217.324 47.3548C216.936 47.3548 216.814 47.2095 216.839 46.8704C216.863 46.604 216.96 44.6662 217.057 42.5588C217.154 40.4757 217.275 38.7802 217.299 38.8286C217.348 38.877 217.493 39.5068 217.639 40.2335Z" fill="#F0E7BE"/>
<path d="M204.06 37.9082C203.867 37.9567 202.339 38.1262 200.714 38.2958C199.041 38.4653 197.659 38.7076 197.611 38.8529C197.368 39.5311 196.301 51.7392 196.301 53.8223C196.301 56.2687 196.01 56.9712 195.719 55.1545C195.574 54.3309 190.822 39.7733 190.603 39.5311C190.555 39.4827 188.882 39.6522 186.869 39.8945C183.378 40.282 183.208 40.3305 183.208 40.8391C183.208 41.1298 183.426 43.334 183.717 45.7078C183.984 48.0816 184.299 50.7218 184.372 51.5938L184.542 53.1683L186.797 53.2167C188.858 53.2409 189.027 53.2167 189.027 52.7565C189.027 52.49 188.688 49.9951 188.3 47.1854C187.888 44.3756 187.621 42.026 187.694 41.9534C187.766 41.8565 187.888 42.026 187.96 42.2682C188.033 42.5347 188.882 45.0296 189.852 47.8394L191.573 52.926L192.786 53.0472L193.998 53.1683L192.98 53.4832C192.398 53.6527 191.937 53.8707 191.937 53.9676C191.961 54.0645 192.761 56.4867 193.731 59.3449L195.526 64.5527L196.908 64.5043C197.684 64.4801 198.338 64.4316 198.362 64.3832C198.387 64.3347 198.653 62.0094 198.944 59.2238C200.157 47.5245 200.86 41.1298 201.005 41.0087C201.078 40.9118 201.151 41.0087 201.151 41.2025C201.151 43.1645 202.824 60.6529 203.236 62.9541L203.357 63.7534L205.321 63.5838C208.037 63.3658 208.013 63.3658 207.843 62.0336C207.673 60.7256 206.752 52.6838 205.903 45.0538C205.006 37.1331 205.152 37.6902 204.06 37.9082Z" fill="#F0E7BE"/>
<path d="M233.084 40.8873C231.435 40.96 231.435 40.96 231.557 41.614C231.605 41.9773 231.799 43.5517 231.969 45.1262C232.308 48.3962 232.042 48.2751 234.927 46.5795C236.261 45.7802 236.77 45.3442 236.697 45.0777C236.624 44.8597 236.503 43.9151 236.43 42.9704C236.333 42.0257 236.188 41.1537 236.115 41.0326C235.945 40.7904 235.703 40.7662 233.084 40.8873Z" fill="#F0E7BE"/>
<path d="M167.738 41.4205C166.914 41.5174 166.162 41.6627 166.089 41.7354C165.992 41.8323 166.211 44.3756 166.574 47.4034C166.938 50.4312 167.593 56.0508 168.029 59.9021C168.466 63.7292 168.878 66.9024 168.951 66.975C169.072 67.0961 181.971 65.6912 182.238 65.5217C182.408 65.4248 182.093 62.2759 181.899 62.0821C181.802 61.961 175.425 62.615 173.824 62.8815L173.073 63.0268L172.927 61.7188C171.788 51.5939 170.818 43.0192 170.696 42.1956C170.527 41.0572 170.648 41.0814 167.738 41.4205Z" fill="#F0E7BE"/>
<path d="M153.699 42.9713C152.342 43.1166 151.178 43.2862 151.105 43.3589C150.984 43.5042 150.135 49.7535 149.844 52.7329L149.674 54.5011H150.329C150.935 54.5011 150.935 54.5253 150.814 55.6396C150.717 56.2936 150.644 57.0202 150.596 57.2867C150.572 57.6016 150.305 57.8196 149.844 57.8922L149.141 58.0133L148.85 60.7989C148.705 62.3249 148.486 63.9478 148.414 64.408L148.268 65.2316L149.553 65.0862C150.256 64.9894 151.347 64.9167 152.002 64.9167C153.117 64.9167 153.142 64.9167 153.142 64.1173C153.142 62.2038 153.142 62.2038 157.264 61.8647L159.107 61.7193L159.519 63.0758C159.882 64.1658 160.052 64.4322 160.464 64.4322C160.974 64.4322 160.974 64.4565 160.561 64.7471C160.125 65.062 160.125 65.1347 160.586 66.5154C160.852 67.2905 161.168 67.9445 161.289 67.9202C163.374 67.8234 165.993 67.4842 165.993 67.3147C165.993 67.2178 165.871 66.8302 165.726 66.4427C165.411 65.6676 162.356 56.8507 162.356 56.7538C162.356 56.7053 162.622 56.6811 162.962 56.6811C163.641 56.6811 163.665 56.5842 163.301 55.5184C163.107 54.9371 162.889 54.7433 162.283 54.6949L161.555 54.6222L159.47 48.6393C157.482 42.8986 157.361 42.6322 156.779 42.6806C156.439 42.6806 155.057 42.826 153.699 42.9713ZM155.591 50.2622C156.706 54.3558 156.876 54.7433 157.724 54.7433C158.282 54.7433 158.452 54.8644 158.573 55.3973C158.646 55.7849 158.767 56.3178 158.864 56.6084C158.985 57.0929 158.937 57.1656 158.355 57.1656C157.821 57.1656 157.724 57.2624 157.821 57.6258C157.918 58.0133 157.749 58.1102 156.682 58.2313C156.003 58.3282 155.033 58.4736 154.548 58.5462C153.675 58.6673 153.627 58.6431 153.627 58.0376C153.627 57.5047 153.724 57.4078 154.354 57.4078C154.815 57.4078 155.081 57.2867 155.081 57.0687C155.081 56.8991 155.154 56.2451 155.227 55.6153C155.397 54.5253 155.372 54.5011 154.718 54.5011H154.039L154.184 51.9093C154.281 50.5044 154.354 48.5666 154.378 47.622C154.403 45.6842 154.33 45.5389 155.591 50.2622Z" fill="#F0E7BE"/>
<path d="M234.442 47.4757C233.327 47.9843 232.43 48.5172 232.43 48.6626C232.43 48.8079 232.26 48.929 232.042 48.929C231.726 48.929 231.678 49.0986 231.799 49.6799C231.872 50.0917 231.945 50.5761 231.945 50.7699C231.945 51.0363 232.09 51.0363 232.866 50.7699C235.194 49.9463 236.309 49.3408 236.309 48.9048C236.309 48.6626 236.479 48.3719 236.673 48.275C236.94 48.1054 237.012 47.839 236.891 47.2819C236.794 46.8459 236.673 46.5068 236.576 46.531C236.503 46.531 235.533 46.967 234.442 47.4757Z" fill="#F0E7BE"/>
<path d="M234.636 50.3344L232.624 51.2064L232.793 52.4175C232.866 53.0957 233.06 54.5733 233.181 55.7117C233.302 56.8502 233.472 58.1824 233.545 58.6911L233.69 59.6357L235.8 59.4662C236.94 59.3693 237.982 59.224 238.079 59.1271C238.346 58.8606 237.23 49.4139 236.94 49.4382C236.794 49.4624 235.751 49.8499 234.636 50.3344Z" fill="#F0E7BE"/>
<path d="M186.893 55.2028L184.857 55.8325L185.026 57.1648C185.123 57.8914 185.39 60.1199 185.608 62.1303C185.827 64.1166 186.118 65.7637 186.239 65.7637C186.384 65.7394 187.451 65.6426 188.615 65.5457L190.773 65.3277L190.652 64.5768C190.579 64.165 190.385 62.6148 190.215 61.1614C189.682 56.4381 189.391 54.6699 189.148 54.5972C189.027 54.573 187.985 54.8394 186.893 55.2028Z" fill="#F0E7BE"/>
<path d="M212.571 58.8851C211.723 58.9819 211.019 59.1031 210.971 59.1515C210.947 59.1999 210.85 59.9024 210.777 60.7259C210.656 61.8644 210.68 62.252 210.922 62.252C211.771 62.252 215.36 61.7191 215.481 61.5737C215.578 61.4768 215.699 60.7744 215.748 59.9993L215.869 58.6186L214.996 58.6428C214.511 58.6671 213.42 58.7639 212.571 58.8851Z" fill="#F0E7BE"/>
<path d="M150.523 65.9821C148.025 66.2243 148.219 66.0548 147.928 68.3559C147.807 69.2037 147.856 69.5186 148.074 69.5186C149.262 69.5186 152.705 68.913 152.778 68.695C152.948 68.1621 153.069 65.861 152.923 65.8125C152.851 65.7641 151.76 65.861 150.523 65.9821Z" fill="#F0E7BE"/>
</svg>
