<svg width="174" height="54" viewBox="0 0 174 54" fill="none" xmlns="http://www.w3.org/2000/svg">
<path fill-rule="evenodd" clip-rule="evenodd" d="M18.3281 50.5379C18.7587 51.0551 20.4162 51.8689 21.2256 52.2438C22.7275 52.9384 23.1166 53.3615 24.6315 52.5872C35.5819 46.9911 42.2623 37.2829 44.721 24.8927C45.9269 18.8132 45.7187 13.0518 45.7455 6.58594C45.3032 7.26785 45.5299 7.94236 44.5385 9.78579C44.0434 10.706 43.2333 11.5011 42.4711 12.0516C40.5357 13.4489 38.3265 13.7633 35.5263 13.7568C29.8114 13.7447 24.0942 13.7535 18.3506 13.756L18.3551 24.2139L36.3149 24.2217C36.5506 26.0097 36.3593 29.8346 35.9091 31.4679C33.8533 38.9316 24.806 36.42 18.3506 36.937L18.3281 50.5379Z" stroke="#2B2A29" stroke-width="0.755906" stroke-miterlimit="22.9256"/>
<path fill-rule="evenodd" clip-rule="evenodd" d="M18.3277 50.5353L18.3502 36.9344C24.8056 36.4174 33.8529 38.929 35.9086 31.4653C36.3588 29.832 36.5501 26.0071 36.3144 24.2191L18.3546 24.2113L18.3502 13.7534C24.0937 13.7509 29.811 13.742 35.5258 13.7542C38.3261 13.7607 40.5353 13.4463 42.4706 12.049C43.2329 11.4985 44.0429 10.7034 44.538 9.78319C45.5295 7.93976 45.3028 7.26525 45.745 6.58334L45.7344 1.0625H1.03365C1.0665 16.2491 0.125289 24.5586 6.29786 37.4127C7.22951 39.3531 8.35872 40.8443 9.51732 42.5123C11.0398 44.7037 15.9397 49.5991 18.3277 50.5353Z" fill="#BF2316" stroke="#2B2A29" stroke-width="0.755906" stroke-miterlimit="22.9256"/>
<path fill-rule="evenodd" clip-rule="evenodd" d="M140.693 8.44679C129.283 10.6786 131.576 28.0798 144.171 26.4143C148.868 25.7929 152.409 21.3989 151.57 15.6566C150.894 11.0255 146.329 7.34463 140.693 8.44679ZM141.436 12.3002C135.344 13.777 137.244 24.1274 143.764 22.5092C146.047 21.9423 147.719 19.356 147.214 16.2182C146.805 13.6737 144.459 11.5676 141.436 12.3002Z" fill="#BF2316" stroke="#2B2A29" stroke-width="0.755906" stroke-miterlimit="22.9256"/>
<path fill-rule="evenodd" clip-rule="evenodd" d="M116.066 26.2375H122.447C127.91 26.2375 131.533 22.7866 131.407 17.2002C131.283 11.6831 127.751 8.52344 122.102 8.52344H116.066V26.2375ZM120.333 22.5824C123.423 22.5814 126.951 22.5995 126.96 17.3754C126.969 12.2896 123.629 12.1986 120.377 12.1906L120.333 22.5824Z" fill="#BF2316" stroke="#2B2A29" stroke-width="0.755906" stroke-miterlimit="22.9256"/>
<path fill-rule="evenodd" clip-rule="evenodd" d="M153.824 26.2385L158.064 26.2223L158.765 15.4548L161.564 23.4498L165.237 23.4548L168.054 15.4579L168.762 26.241L172.998 26.2395L171.565 8.52801L166.915 8.52552C166.384 10.2361 165.805 11.9384 165.178 13.6939C164.579 15.3697 164.103 17.1789 163.474 18.948L159.915 8.52344L155.255 8.53371L153.824 26.2385Z" fill="#BF2316" stroke="#2B2A29" stroke-width="0.755906" stroke-miterlimit="22.9256"/>
<path fill-rule="evenodd" clip-rule="evenodd" d="M71.4883 26.413L75.7888 26.4136L75.7943 20.4417L77.7783 20.3602C79.1716 22.0566 80.1762 26.4128 81.5727 26.4142L85.6422 26.3497C84.4856 24.1064 82.9426 21.1655 81.6683 19.1114C82.2558 18.3522 83.1211 18.238 83.7948 16.4739C84.2954 15.162 84.3961 13.4529 83.9248 12.0707C82.3911 7.57255 77.0216 8.51104 71.4891 8.51104L71.4883 26.413ZM75.8761 11.8604L75.8551 16.3724L78.287 16.3298C78.287 16.3298 79.387 16.0314 79.6194 15.4997C79.8519 14.9679 80.0208 14.9036 80.0423 13.9458C80.0635 12.9882 79.8729 12.8605 79.5135 12.4561C79.1541 12.0517 78.9848 12.0089 78.308 11.9027C77.6315 11.7965 75.8761 11.8604 75.8761 11.8604Z" fill="#BF2316" stroke="#2B2A29" stroke-width="0.755906" stroke-miterlimit="22.9256"/>
<path fill-rule="evenodd" clip-rule="evenodd" d="M87.7578 26.2385C90.6554 26.2375 96.5618 26.3486 99.1208 26.1995L99.12 22.6272L92.0502 22.5824L92.0954 19.1511L97.3954 19.1428L97.387 15.5458L92.0491 15.5098L92.0842 12.1908L98.8185 12.1912V8.52344H87.7598L87.7578 26.2385Z" fill="#BF2316" stroke="#2B2A29" stroke-width="0.755906" stroke-miterlimit="22.9256"/>
<path fill-rule="evenodd" clip-rule="evenodd" d="M101.914 26.2375H113.308L113.309 22.5824H106.236L106.268 19.1525H111.584L111.551 15.5084L106.236 15.5098L106.254 12.1912L112.919 12.1844L112.918 8.56716L101.914 8.52344V26.2375Z" fill="#BF2316" stroke="#2B2A29" stroke-width="0.755906" stroke-miterlimit="22.9256"/>
<path fill-rule="evenodd" clip-rule="evenodd" d="M58.2812 26.2272H62.4938L62.506 19.7116C64.9458 19.2363 67.8632 20.8883 67.8702 16.0609L62.5078 15.959L62.499 12.2641C66.4744 11.5142 69.0249 13.8773 69.0249 8.52344H58.2915L58.2812 26.2272Z" fill="#BF2316" stroke="#2B2A29" stroke-width="0.755906" stroke-miterlimit="22.9256"/>
<path fill-rule="evenodd" clip-rule="evenodd" d="M58.2665 44.6841C61.4106 44.6847 66.0062 45.2399 67.2544 42.7105C68.6618 39.8581 66.525 38.6224 65.8362 38.0323C66.2477 37.4221 66.6872 37.3399 66.9899 36.366C67.7373 33.9579 66.0585 32.0508 62.9468 32.0508H58.2656L58.2665 44.6841ZM61.3213 39.2426L61.3447 41.9146L63.3417 41.8437C63.3417 41.8437 64.3286 41.749 64.399 40.6142C64.4694 39.4792 63.6233 39.2902 63.4119 39.2664C63.2004 39.2426 61.3213 39.2426 61.3213 39.2426ZM61.3213 34.4737L61.3422 36.8794L63.1402 36.8156C63.1402 36.8156 64.029 36.7305 64.0925 35.7087C64.156 34.6868 63.3941 34.5168 63.2037 34.4952C63.0133 34.4737 61.3213 34.4737 61.3213 34.4737Z" fill="#BF2316" stroke="#2B2A29" stroke-width="0.755906" stroke-miterlimit="22.9256"/>
<path fill-rule="evenodd" clip-rule="evenodd" d="M81.2148 44.6316L84.1979 44.632L84.3994 37.2458L86.4345 40.7732C87.1502 41.9791 88.148 43.4198 88.6641 44.607L91.7552 44.6316V32.0698L88.7489 32.0704L88.8299 39.8396L85.36 33.874C83.9882 31.6315 85.1341 32.0698 81.2148 32.0698V44.6316Z" fill="#BF2316" stroke="#2B2A29" stroke-width="0.755906" stroke-miterlimit="22.9256"/>
<path fill-rule="evenodd" clip-rule="evenodd" d="M68.1758 44.5485L71.3056 44.6519L72.0585 41.995C74.4673 41.9907 75.7261 41.6463 76.1429 42.4524L76.7569 44.6159L79.894 44.644C79.3789 42.5492 78.4683 40.389 77.7509 38.2465C77.3848 37.1528 77.0709 36.2057 76.7072 35.1243L75.9168 32.8068C75.5574 31.8265 75.9974 32.0491 72.3875 32.0489L68.1758 44.5485ZM74.051 34.5658L72.6832 39.49L75.3979 39.4475L74.051 34.5658Z" fill="#BF2316" stroke="#2B2A29" stroke-width="0.755906" stroke-miterlimit="22.9256"/>
<path fill-rule="evenodd" clip-rule="evenodd" d="M94.4453 44.6689L97.4523 44.6685V39.6028C99.2811 39.5724 98.7615 39.465 100.826 43.4809C100.934 43.6925 101.051 43.963 101.182 44.1544C101.664 44.8634 102.194 44.762 104.168 44.6681L104.781 44.61C104.132 43.0611 101.709 39.222 101.42 38.3673C101.151 37.5753 104.143 33.5487 104.576 32.0668H101.386C101.251 32.4497 99.1101 36.947 98.477 36.948C97.1268 36.9495 97.4832 37.5708 97.4832 32.0664L94.4453 32.0674V44.6689Z" fill="#BF2316" stroke="#2B2A29" stroke-width="0.755906" stroke-miterlimit="22.9256"/>
</svg>
