<svg width="117" height="117" viewBox="0 0 117 117" fill="none" xmlns="http://www.w3.org/2000/svg">
<circle cx="66.5" cy="50.5" r="66.5" fill="#BF2316"/>
<path d="M89.0578 17.2922C88.7656 17.5844 88.8984 18.0891 89.6289 19.4305L90.3726 20.7719L88.2078 22.9368L86.0429 25.0883L84.5554 25.4203C83.732 25.6063 82.8422 25.8719 82.5633 26.018C82.2844 26.1641 80.9961 27.3461 79.6945 28.6477L77.3304 31.025L77.7422 31.4102L78.1406 31.7953L80.3586 29.6039C82.4039 27.5985 82.6562 27.3993 83.4133 27.1469L84.2234 26.868L81.5273 29.6703L78.8179 32.4727L79.4422 33.1102L80.0664 33.7344L83.2008 30.6C85.2992 28.5016 86.375 27.5188 86.4414 27.625C86.5078 27.7313 85.4719 28.8602 83.4398 30.8922C80.9695 33.3625 80.3719 34.0266 80.5047 34.1594C80.6375 34.2922 81.3015 33.6946 83.7586 31.2508C85.7242 29.2985 86.9726 28.1563 87.1984 28.1032C87.557 28.0235 88.1945 27.2797 88.0484 27.1203C87.9023 26.9875 92.3914 22.5782 92.6703 22.5782C92.9625 22.5782 93.9453 21.6352 93.9453 21.3563C93.9453 21.25 93.7992 21.0243 93.6133 20.8516L93.2812 20.5461L93.8789 19.9086C94.6625 19.0719 94.7023 18.461 93.9718 18.0758C93.5601 17.8633 93.2148 17.9961 92.5242 18.6336L91.9398 19.1782L90.9172 18.1555C89.8812 17.1196 89.4297 16.9203 89.0578 17.2922ZM89.9344 24.3977C88.5 25.8321 87.6765 26.5625 87.5703 26.4961C87.464 26.4297 88.1414 25.6594 89.6422 24.1586C91.1429 22.6578 91.9265 21.9672 92.0062 22.0469C92.0992 22.1399 91.4219 22.9102 89.9344 24.3977Z" fill="#F0E7BE"/>
<path d="M75.5507 31.8883C75.4046 31.9414 73.9437 33.3359 72.3101 34.9695L69.3351 37.9578L69.8796 38.582C70.4773 39.2594 70.65 39.8305 70.5039 40.6141C70.4242 41.0258 70.0257 41.5039 67.8742 43.6687C66.4664 45.0898 65.1648 46.325 64.9656 46.4312C64.5406 46.657 63.6242 46.6703 63.2257 46.4711C63.0664 46.3914 62.575 45.9664 62.1367 45.5414L61.3398 44.7578L55.0179 51.1062C47.7929 58.3445 48.125 57.9195 48.032 60.2305L47.9656 61.5586L49.546 63.1125L51.1132 64.6664L52.4679 64.7062C53.6234 64.7461 53.8757 64.7859 54.0882 65.0117C54.2343 65.1578 54.832 66.4992 55.4296 68C56.532 70.7891 56.864 71.3203 57.4617 71.3203C58.0062 71.307 60.6625 70.2844 60.9148 69.9789C61.4328 69.3414 61.1804 68.8102 59.8523 67.7344C59.5601 67.4953 59.175 66.8047 58.4843 65.3039C57.6476 63.4844 57.5281 63.1258 57.5945 62.6609C57.6343 62.3555 57.621 61.9836 57.5546 61.8242C57.4484 61.5453 57.475 61.5453 58.1656 61.5984C58.564 61.6383 59.0554 61.5852 59.2679 61.4922C59.4937 61.4125 60.264 60.7219 60.9945 59.9648L62.3359 58.5836V57.7203V56.8438L61.4726 55.9406C60.8218 55.25 60.6492 54.9977 60.7687 54.8781C61.0078 54.6391 61.207 54.6789 61.632 55.0375C63.0664 56.2328 66.6921 58.225 68.5117 58.8227C71.3539 59.7523 73.7445 60.0844 76.8257 59.9914C79.3625 59.9117 79.8804 59.7656 80.2125 59.0617C80.425 58.6234 80.4117 58.5172 79.9867 56.432C79.6281 54.6391 79.482 54.2008 79.1898 53.8687C78.8046 53.4305 78.5125 53.4039 76.2812 53.5898C75.0328 53.6961 72.6687 53.4703 71.2875 53.125C69.4148 52.6469 66.8382 51.1195 66.0679 50.0305C65.8953 49.7914 66.3468 49.3133 72.8148 42.8453C77.1312 38.5289 79.7343 35.8328 79.7343 35.6734C79.7343 35.3945 76.3875 31.9414 76.0289 31.8352C75.9093 31.8086 75.6835 31.8219 75.5507 31.8883ZM55.8015 55.2898C55.8679 55.6219 54.1812 58.4773 53.6765 58.9156C52.4945 59.8984 51.0335 58.2516 52.0828 57.1094C52.5078 56.6445 55.2703 54.9844 55.5625 55.0242C55.6687 55.0375 55.775 55.157 55.8015 55.2898ZM60.9015 56.4055C61.5921 57.0828 61.6718 57.2289 61.6718 57.707C61.6718 58.2117 61.5921 58.3312 60.3039 59.6062C59.0289 60.868 58.9093 60.9609 58.4179 60.9609C57.9398 60.9609 57.7937 60.8812 57.1164 60.1906C56.7046 59.7656 56.3593 59.3805 56.3593 59.3406C56.3593 59.2875 56.625 59.3672 56.957 59.5133C57.3953 59.7125 57.7804 59.7656 58.3781 59.7391C59.2148 59.6992 59.5468 59.4734 59.0023 59.3008C58.657 59.1812 57.6875 58.3312 57.6875 58.132C57.6875 57.9859 59.932 55.6484 60.0781 55.6484C60.1046 55.6484 60.4765 55.9937 60.9015 56.4055Z" fill="#F0E7BE"/>
<path d="M64.5008 40.5344C62.9203 42.1148 62.0703 43.0445 62.0703 43.2305C62.0703 43.6289 63.6508 45.1562 64.0625 45.1562C64.5406 45.1562 69.1094 40.5875 69.1094 40.1094C69.1094 39.7375 67.5422 38.1172 67.1703 38.1172C67.0375 38.1172 65.8422 39.2062 64.5008 40.5344Z" fill="#F0E7BE"/>
<path d="M46.425 63.3117C46.1992 63.6703 45.8273 64.4406 45.5883 65.0516C44.9242 66.818 44.1406 67.6281 42.7461 68.0133C41.2453 68.425 40.9133 68.6906 36.3312 73.2461C33.8875 75.65 31.8156 77.7883 31.7094 77.9875C31.6031 78.1867 31.5234 78.625 31.5234 78.9836V79.6078L34.1531 82.2375L36.7828 84.8672H37.4336C37.8453 84.8672 38.257 84.7742 38.5094 84.6148C38.8148 84.4289 40.3422 82.0648 44.5922 75.1586L50.2633 65.9547L48.6297 64.3211C47.7398 63.418 46.9562 62.6875 46.9164 62.6875C46.8633 62.6875 46.6375 62.9664 46.425 63.3117Z" fill="#F0E7BE"/>
</svg>
