<svg width="464" height="139" viewBox="0 0 464 139" fill="none" xmlns="http://www.w3.org/2000/svg">
<path fill-rule="evenodd" clip-rule="evenodd" d="M47.5439 132.07C48.7006 133.44 53.1526 135.595 55.3267 136.587C59.3608 138.427 60.406 139.547 64.4752 137.497C93.8886 122.678 111.833 96.97 118.437 64.1601C121.676 48.0611 121.117 32.8047 121.188 15.6826C120 17.4884 120.609 19.2745 117.946 24.156C116.617 26.5927 114.441 28.6983 112.393 30.156C107.195 33.8561 101.261 34.6888 93.7391 34.6714C78.3888 34.6393 63.0319 34.6628 47.6043 34.6693L47.6163 62.3627L95.8573 62.3833C96.4905 67.1179 95.9767 77.2465 94.7674 81.5716C89.2455 101.336 64.944 94.685 47.6043 96.0541L47.5439 132.07Z" stroke="#2B2A29" stroke-width="0.755906" stroke-miterlimit="22.9256"/>
<path fill-rule="evenodd" clip-rule="evenodd" d="M47.5431 132.07L47.6035 96.0534C64.9432 94.6844 89.2447 101.335 94.7665 81.571C95.9758 77.2458 96.4896 67.1173 95.8565 62.3827L47.6155 62.3621L47.6035 34.6687C63.0311 34.6622 78.388 34.6387 93.7383 34.6708C101.26 34.6882 107.194 33.8555 112.392 30.1554C114.44 28.6977 116.616 26.5921 117.946 24.1554C120.609 19.2739 120 17.4878 121.188 15.682L121.159 1.0625H1.09038C1.17863 41.2776 -1.34952 63.2816 15.2304 97.3201C17.7328 102.458 20.7659 106.407 23.878 110.824C27.9675 116.627 41.1288 129.59 47.5431 132.07Z" fill="#BF2316" stroke="#2B2A29" stroke-width="0.755906" stroke-miterlimit="22.9256"/>
<path fill-rule="evenodd" clip-rule="evenodd" d="M376.221 20.6197C345.574 26.5298 351.732 72.6092 385.564 68.1987C398.18 66.5534 407.69 54.9177 405.438 39.7118C403.622 27.4484 391.361 17.7012 376.221 20.6197ZM378.217 30.8239C361.854 34.7345 366.956 62.1428 384.469 57.858C390.602 56.3568 395.094 49.508 393.736 41.1988C392.638 34.4609 386.337 28.8838 378.217 30.8239Z" fill="#BF2316" stroke="#2B2A29" stroke-width="0.755906" stroke-miterlimit="22.9256"/>
<path fill-rule="evenodd" clip-rule="evenodd" d="M310.07 67.734H327.21C341.884 67.734 351.616 58.596 351.277 43.8029C350.942 29.1931 341.456 20.8262 326.283 20.8262H310.07V67.734ZM321.53 58.0553C329.83 58.0526 339.308 58.1003 339.332 44.2667C339.357 30.7991 330.384 30.5582 321.649 30.537L321.53 58.0553Z" fill="#BF2316" stroke="#2B2A29" stroke-width="0.755906" stroke-miterlimit="22.9256"/>
<path fill-rule="evenodd" clip-rule="evenodd" d="M411.499 67.7309L422.888 67.688L424.771 39.1749L432.29 60.3463L442.155 60.3595L449.721 39.1832L451.624 67.7375L463.001 67.7336L459.152 20.8324L446.661 20.8258C445.234 25.3555 443.679 29.8633 441.995 34.512C440.386 38.9497 439.108 43.7405 437.42 48.4251L427.859 20.8203L415.341 20.8475L411.499 67.7309Z" fill="#BF2316" stroke="#2B2A29" stroke-width="0.755906" stroke-miterlimit="22.9256"/>
<path fill-rule="evenodd" clip-rule="evenodd" d="M190.335 68.198L201.886 68.1997L201.901 52.3857L207.23 52.1698C210.973 56.6619 213.671 68.1976 217.422 68.2014L228.353 68.0306C225.247 62.09 221.102 54.3024 217.679 48.8629C219.257 46.8526 221.581 46.5502 223.391 41.8786C224.736 38.4047 225.006 33.8788 223.74 30.2189C219.621 18.3074 205.198 20.7926 190.337 20.7926L190.335 68.198ZM202.121 29.662L202.064 41.6098L208.597 41.4972C208.597 41.4972 211.551 40.707 212.176 39.2989C212.8 37.8907 213.254 37.7203 213.311 35.1841C213.368 32.6484 212.856 32.3103 211.891 31.2393C210.926 30.1684 210.471 30.0552 208.653 29.774C206.836 29.4928 202.121 29.662 202.121 29.662Z" fill="#BF2316" stroke="#2B2A29" stroke-width="0.755906" stroke-miterlimit="22.9256"/>
<path fill-rule="evenodd" clip-rule="evenodd" d="M234.036 67.7367C241.819 67.734 257.684 68.0284 264.558 67.6335L264.556 58.1738L245.566 58.0553L245.687 48.9689L259.923 48.947L259.901 39.4217L245.563 39.3265L245.657 30.5376L263.746 30.5387V20.8262H234.041L234.036 67.7367Z" fill="#BF2316" stroke="#2B2A29" stroke-width="0.755906" stroke-miterlimit="22.9256"/>
<path fill-rule="evenodd" clip-rule="evenodd" d="M272.057 67.734H302.661L302.663 58.0553H283.664L283.752 48.9725H298.03L297.942 39.3227L283.664 39.3265L283.713 30.5387L301.616 30.5206L301.614 20.942L272.057 20.8262V67.734Z" fill="#BF2316" stroke="#2B2A29" stroke-width="0.755906" stroke-miterlimit="22.9256"/>
<path fill-rule="evenodd" clip-rule="evenodd" d="M154.859 67.7068H166.174L166.207 50.4532C172.761 49.1946 180.597 53.5691 180.616 40.7857L166.212 40.5161L166.189 30.7318C176.867 28.746 183.717 35.0035 183.717 20.8262H154.887L154.859 67.7068Z" fill="#BF2316" stroke="#2B2A29" stroke-width="0.755906" stroke-miterlimit="22.9256"/>
<path fill-rule="evenodd" clip-rule="evenodd" d="M154.823 116.574C163.268 116.576 175.612 118.046 178.965 111.348C182.745 103.794 177.006 100.522 175.155 98.9596C176.261 97.3437 177.441 97.1262 178.254 94.547C180.262 88.1702 175.752 83.1201 167.394 83.1201H154.82L154.823 116.574ZM163.028 102.164L163.091 109.24L168.455 109.052C168.455 109.052 171.106 108.802 171.295 105.797C171.484 102.791 169.211 102.291 168.643 102.227C168.075 102.164 163.028 102.164 163.028 102.164ZM163.028 89.536L163.084 95.9067L167.914 95.7376C167.914 95.7376 170.301 95.5124 170.472 92.8065C170.642 90.1006 168.596 89.6503 168.084 89.5932C167.573 89.5361 163.028 89.536 163.028 89.536Z" fill="#BF2316" stroke="#2B2A29" stroke-width="0.755906" stroke-miterlimit="22.9256"/>
<path fill-rule="evenodd" clip-rule="evenodd" d="M216.469 116.43L224.481 116.432L225.023 96.8723L230.489 106.213C232.412 109.406 235.092 113.221 236.478 116.365L244.781 116.43V83.1659L236.706 83.1676L236.923 103.741L227.603 87.9435C223.918 82.0052 226.996 83.1659 216.469 83.1659V116.43Z" fill="#BF2316" stroke="#2B2A29" stroke-width="0.755906" stroke-miterlimit="22.9256"/>
<path fill-rule="evenodd" clip-rule="evenodd" d="M181.436 116.219L189.842 116.493L191.865 109.458C198.335 109.446 201.716 108.534 202.836 110.669L204.485 116.398L212.911 116.472C211.528 110.925 209.082 105.205 207.155 99.5313C206.171 96.635 205.328 94.127 204.351 91.2633L202.228 85.1266C201.263 82.5305 202.445 83.1202 192.749 83.1197L181.436 116.219ZM197.217 89.7846L193.543 102.824L200.835 102.711L197.217 89.7846Z" fill="#BF2316" stroke="#2B2A29" stroke-width="0.755906" stroke-miterlimit="22.9256"/>
<path fill-rule="evenodd" clip-rule="evenodd" d="M251.99 116.536L260.067 116.535V103.121C264.979 103.04 263.584 102.756 269.129 113.39C269.42 113.951 269.734 114.667 270.085 115.174C271.379 117.051 272.804 116.783 278.105 116.534L279.754 116.38C278.01 112.279 271.501 102.113 270.723 99.8493C270.001 97.7521 278.038 87.0894 279.201 83.1651H270.634C270.272 84.179 264.52 96.0882 262.82 96.0909C259.193 96.0947 260.15 97.7401 260.15 83.1641L251.99 83.1668V116.536Z" fill="#BF2316" stroke="#2B2A29" stroke-width="0.755906" stroke-miterlimit="22.9256"/>
</svg>
