<svg width="46" height="46" viewBox="0 0 46 46" fill="none" xmlns="http://www.w3.org/2000/svg">
<g clip-path="url(#clip0_56_1822)">
<path d="M7.18749 1.4375C7.18749 1.05625 7.33894 0.690618 7.60853 0.421034C7.87811 0.15145 8.24374 0 8.62499 0L37.375 0C37.7562 0 38.1219 0.15145 38.3915 0.421034C38.661 0.690618 38.8125 1.05625 38.8125 1.4375C38.8125 2.98425 38.7799 4.45625 38.7147 5.8535C39.8507 6.04161 40.9376 6.45529 41.9112 7.07014C42.8847 7.68499 43.7254 8.48857 44.3834 9.43347C45.0415 10.3784 45.5037 11.4455 45.7428 12.5719C45.9818 13.6983 45.9929 14.8611 45.7754 15.9919C45.5579 17.1226 45.1162 18.1984 44.4763 19.1557C43.8364 20.113 43.0113 20.9325 42.0496 21.5658C41.088 22.1991 40.0093 22.6335 38.877 22.8433C37.7448 23.0531 36.5821 23.034 35.4574 22.7873C33.1861 28.1491 30.0581 30.7711 27.3125 31.4439V37.6912L31.4094 38.7147C31.9671 38.8527 32.4932 39.1029 32.9532 39.4479L38.2375 43.4125C38.4789 43.5935 38.6571 43.8459 38.7471 44.1339C38.8371 44.4219 38.8341 44.7309 38.7387 45.0171C38.6433 45.3033 38.4603 45.5522 38.2155 45.7287C37.9708 45.9051 37.6767 46 37.375 46H8.62499C8.32329 46 8.02923 45.9051 7.78447 45.7287C7.53972 45.5522 7.35667 45.3033 7.26126 45.0171C7.16585 44.7309 7.16292 44.4219 7.25288 44.1339C7.34284 43.8459 7.52113 43.5935 7.76249 43.4125L13.0467 39.4479C13.5067 39.1029 14.0329 38.8527 14.5906 38.7147L18.6875 37.6912V31.4439C15.9419 30.7711 12.8139 28.1491 10.5426 22.7844C9.4173 23.0325 8.25368 23.0526 7.12048 22.8434C5.98728 22.6343 4.90746 22.2002 3.94482 21.5668C2.98217 20.9335 2.15621 20.1136 1.51571 19.1556C0.875212 18.1977 0.433166 17.1211 0.215679 15.9895C-0.00180893 14.8579 0.00967158 13.6941 0.249442 12.567C0.489213 11.4399 0.952412 10.3723 1.61168 9.42714C2.27096 8.48202 3.11293 7.6786 4.08789 7.06432C5.06284 6.45003 6.15101 6.03734 7.28812 5.85063C7.22035 4.38056 7.1868 2.90912 7.18749 1.4375ZM7.47212 8.74C5.9719 9.0145 4.64218 9.87371 3.77547 11.1286C2.90876 12.3835 2.57606 13.9313 2.85055 15.4316C3.12505 16.9318 3.98427 18.2615 5.23918 19.1282C6.49409 19.9949 8.0419 20.3276 9.54212 20.0531C8.58474 17.0344 7.85162 13.3084 7.47212 8.74ZM36.4607 20.0531C37.961 20.3276 39.5088 19.9949 40.7637 19.1282C42.0186 18.2615 42.8778 16.9318 43.1523 15.4316C43.4268 13.9313 43.0941 12.3835 42.2274 11.1286C41.3607 9.87371 40.031 9.0145 38.5307 8.74C38.1484 13.3112 37.4152 17.0344 36.4607 20.0531Z" fill="#BF2316"/>
</g>
<defs>
<clipPath id="clip0_56_1822">
<rect width="46" height="46" fill="white"/>
</clipPath>
</defs>
</svg>
