<svg width="40" height="40" viewBox="0 0 40 40" fill="none" xmlns="http://www.w3.org/2000/svg">
<path d="M29.8998 12.1941C30.06 12.1268 30.2232 12.067 30.389 12.0151C30.5116 11.978 30.6374 11.9423 30.7682 11.9134C30.8998 11.8842 31.0327 11.8604 31.1664 11.8422C31.2996 11.8251 31.4336 11.8151 31.5678 11.8124H31.764C31.8285 11.8124 31.8923 11.8198 31.9544 11.8257C32.0731 11.8374 32.1909 11.8567 32.3071 11.8836C32.4096 11.9068 32.5105 11.9367 32.6092 11.973C32.701 12.0037 32.7806 12.0433 32.8509 12.074C32.9212 12.1046 32.9784 12.141 33.0256 12.1683L33.1696 12.2602L33.004 12.2255C32.951 12.2164 32.8865 12.2089 32.8145 12.199C32.7424 12.1891 32.6597 12.1866 32.5661 12.1899C32.4717 12.1903 32.3774 12.1969 32.2839 12.2098C32.1811 12.2233 32.0793 12.2434 31.9792 12.2701C31.9279 12.2842 31.8757 12.2975 31.8236 12.3166C31.7714 12.3355 31.7201 12.3521 31.668 12.3736C31.5643 12.415 31.4629 12.462 31.3642 12.5144C31.2657 12.5682 31.1689 12.6245 31.0778 12.6857C30.9867 12.747 30.9121 12.7991 30.8377 12.8571C30.575 12.5727 30.2555 12.3468 29.8998 12.1941ZM7.45839 15.2833C7.45839 15.437 7.51944 15.5844 7.62811 15.6931C7.73677 15.8018 7.88416 15.8628 8.03784 15.8628H16.1891V14.5383H7.45839V15.2833ZM32.2267 16.2013C35.4128 18.313 38.2588 25.0339 37.945 29.5214H30.2466C30.2466 29.5214 31.6456 23.9445 29.7251 22.1085C29.6953 22.0804 29.6639 22.0538 29.6315 22.0257C28.7748 20.5034 28.7582 19.0912 29.6026 17.9141C30.3534 16.8652 31.5404 16.3188 32.2267 16.2013ZM33.2449 26.9427C33.2449 27.1392 33.3031 27.3313 33.4122 27.4946C33.5214 27.658 33.6765 27.7853 33.858 27.8605C34.0395 27.9357 34.2393 27.9554 34.432 27.9171C34.6247 27.8788 34.8017 27.7842 34.9406 27.6452C35.0795 27.5063 35.1742 27.3293 35.2125 27.1366C35.2508 26.9439 35.2312 26.7442 35.156 26.5627C35.0808 26.3812 34.9535 26.226 34.7901 26.1169C34.6268 26.0077 34.4347 25.9494 34.2382 25.9494C33.9748 25.9494 33.7221 26.0541 33.5358 26.2404C33.3495 26.4267 33.2449 26.6793 33.2449 26.9427ZM2.31854 10.4912C2.28555 10.4805 2.25048 10.4777 2.21622 10.4832C2.18196 10.4886 2.14948 10.5021 2.12144 10.5226C2.0934 10.543 2.07061 10.5698 2.05494 10.6007C2.03926 10.6317 2.03115 10.6659 2.03128 10.7006V13.2139H16.1866V11.233H4.61659L2.31854 10.4912ZM30.298 15.5408H30.3104C29.6112 15.945 29.0037 16.4902 28.5265 17.1417C27.4074 18.6997 27.5282 20.2998 27.9727 21.5622C27.5522 21.5795 27.1863 21.6946 27.0174 21.9073C26.61 22.427 26.0898 22.8472 25.4961 23.1361C24.9024 23.4251 24.2507 23.5753 23.5904 23.5753C21.775 23.5753 20.0582 22.4313 19.8024 20.3329C19.4699 20.2679 19.1617 20.1127 18.9115 19.8842C18.6614 19.6557 18.479 19.3627 18.3844 19.0374L17.5128 16.0441V10.6634H27.6632V11.2288H28.5265V13.2478C30.6788 13.2519 30.3013 15.5408 30.3013 15.5408H30.298ZM20.1153 12.5318C20.1154 12.7074 20.1851 12.8758 20.3093 13C20.4335 13.1242 20.6019 13.194 20.7775 13.194H25.1185C25.2929 13.1921 25.4595 13.1215 25.5821 12.9975C25.7047 12.8735 25.7735 12.7061 25.7735 12.5317C25.7735 12.3573 25.7047 12.19 25.5821 12.066C25.4595 11.942 25.2929 11.8714 25.1185 11.8695H20.7775C20.6019 11.8695 20.4335 11.9393 20.3093 12.0635C20.1851 12.1877 20.1153 12.3562 20.1153 12.5318ZM20.1153 14.4357C20.1154 14.6113 20.1851 14.7797 20.3093 14.9039C20.4335 15.0281 20.6019 15.0979 20.7775 15.0979H25.1185C25.2929 15.096 25.4595 15.0254 25.5821 14.9014C25.7047 14.7774 25.7735 14.6101 25.7735 14.4357C25.7735 14.2613 25.7047 14.0939 25.5821 13.9699C25.4595 13.8459 25.2929 13.7753 25.1185 13.7734H20.7775C20.6019 13.7734 20.4335 13.8432 20.3093 13.9674C20.1851 14.0916 20.1153 14.2601 20.1153 14.4357ZM20.7775 16.9605H25.1185C25.206 16.9614 25.2929 16.945 25.3741 16.9121C25.4553 16.8793 25.5291 16.8306 25.5914 16.7691C25.6537 16.7075 25.7031 16.6341 25.7368 16.5533C25.7706 16.4725 25.7879 16.3858 25.7879 16.2982C25.7879 16.2107 25.7706 16.124 25.7368 16.0431C25.7031 15.9623 25.6537 15.889 25.5914 15.8274C25.5291 15.7658 25.4553 15.7172 25.3741 15.6843C25.2929 15.6515 25.206 15.6351 25.1185 15.636H20.7775C20.6031 15.6379 20.4365 15.7085 20.3139 15.8325C20.1912 15.9565 20.1225 16.1238 20.1225 16.2982C20.1225 16.4726 20.1912 16.64 20.3139 16.764C20.4365 16.888 20.6031 16.9586 20.7775 16.9605ZM26.3303 20.3544C26.3303 19.2509 25.6682 19.1574 24.7079 19.1864C24.6872 19.2866 24.664 19.39 24.6359 19.496C24.602 19.6193 24.5656 19.7443 24.52 19.871C24.4745 19.9976 24.4239 20.1193 24.3685 20.246C24.312 20.3679 24.249 20.4868 24.1798 20.6019C24.1467 20.659 24.111 20.7137 24.0739 20.7675C24.0366 20.8212 23.9993 20.8718 23.9612 20.9214C23.8881 21.0158 23.8091 21.1054 23.7245 21.1897C23.6502 21.2643 23.5711 21.334 23.4878 21.3983C23.4132 21.4595 23.3371 21.5058 23.2742 21.5489C23.2113 21.5919 23.1492 21.6217 23.1012 21.6466L22.9464 21.7202L23.0639 21.5986C23.0995 21.5588 23.1409 21.5083 23.1872 21.452C23.2388 21.3888 23.2848 21.3213 23.3247 21.2501C23.3745 21.1703 23.419 21.0873 23.4579 21.0017C23.5012 20.9074 23.5382 20.8103 23.5689 20.7112C23.5846 20.6598 23.6003 20.6085 23.6119 20.5548C23.6235 20.5008 23.6376 20.448 23.6467 20.3891C23.6666 20.2796 23.6807 20.1691 23.6889 20.058C23.6967 19.9479 23.6992 19.8374 23.6964 19.7269C23.6931 19.6193 23.6864 19.5092 23.6765 19.4049C23.6699 19.3428 23.6624 19.2833 23.6541 19.2244H23.5631C22.0349 19.2244 20.7966 18.8494 20.7966 20.3552C20.7968 21.0891 21.0885 21.7927 21.6076 22.3115C22.1266 22.8302 22.8305 23.1215 23.5643 23.1213C24.2982 23.1211 25.0018 22.8294 25.5206 22.3103C26.0393 21.7913 26.3306 21.0874 26.3304 20.3536L26.3303 20.3544Z" fill="#F0E7BE"/>
</svg>
