<svg width="64" height="64" viewBox="0 0 64 64" fill="none" xmlns="http://www.w3.org/2000/svg">
<path d="M47.8394 19.5091C48.0957 19.4014 48.3569 19.3059 48.6222 19.2228C48.8183 19.1633 49.0197 19.1063 49.2288 19.0601C49.4395 19.0133 49.6521 18.9752 49.8659 18.9461C50.079 18.9187 50.2935 18.9028 50.5083 18.8984H50.8222C50.9254 18.8984 51.0274 18.9103 51.1268 18.9197C51.3167 18.9384 51.5051 18.9694 51.691 19.0123C51.8551 19.0494 52.0166 19.0972 52.1744 19.1554C52.3214 19.2044 52.4487 19.2679 52.5612 19.3169C52.6737 19.3659 52.7652 19.4242 52.8407 19.4679L53.0712 19.6149L52.8062 19.5593C52.7214 19.5448 52.6182 19.5328 52.5029 19.5169C52.3877 19.5011 52.2553 19.4971 52.1055 19.5024C51.9545 19.503 51.8036 19.5137 51.6539 19.5342C51.4895 19.5558 51.3267 19.5881 51.1664 19.6308C51.0844 19.6533 51.0009 19.6746 50.9175 19.7051C50.834 19.7354 50.7519 19.7619 50.6685 19.7963C50.5026 19.8626 50.3403 19.9378 50.1824 20.0216C50.0249 20.1077 49.8699 20.1978 49.7242 20.2957C49.5785 20.3938 49.4592 20.4772 49.34 20.5699C48.9198 20.1149 48.4085 19.7535 47.8394 19.5091ZM11.9332 24.4519C11.9332 24.6978 12.0309 24.9336 12.2047 25.1075C12.3786 25.2814 12.6144 25.3791 12.8603 25.3791H25.9023V23.2599H11.9332V24.4519ZM51.5624 25.9207C56.6603 29.2994 61.2138 40.0528 60.7118 47.2328H48.3943C48.3943 47.2328 50.6327 38.3098 47.5599 35.3722C47.5122 35.3272 47.4619 35.2847 47.4102 35.2397C46.0394 32.8041 46.0129 30.5444 47.3639 28.6611C48.5652 26.9829 50.4644 26.1087 51.5624 25.9207ZM53.1915 43.1069C53.1915 43.4213 53.2847 43.7286 53.4593 43.99C53.634 44.2514 53.8822 44.4551 54.1726 44.5754C54.463 44.6957 54.7826 44.7272 55.0909 44.6659C55.3992 44.6046 55.6824 44.4532 55.9047 44.231C56.127 44.0087 56.2784 43.7255 56.3398 43.4172C56.4011 43.1089 56.3696 42.7893 56.2493 42.4989C56.129 42.2084 55.9253 41.9602 55.6639 41.7856C55.4026 41.6109 55.0953 41.5177 54.7809 41.5177C54.3594 41.5177 53.9551 41.6851 53.6571 41.9832C53.359 42.2813 53.1915 42.6854 53.1915 43.1069ZM3.70942 16.7846C3.65664 16.7674 3.60053 16.763 3.54571 16.7717C3.49089 16.7804 3.43892 16.802 3.39405 16.8347C3.34919 16.8674 3.31273 16.9102 3.28765 16.9598C3.26258 17.0093 3.2496 17.0641 3.2498 17.1196V21.1408H25.8983V17.9713H7.3863L3.70942 16.7846ZM48.4765 24.8638H48.4964C47.3777 25.5106 46.4057 26.3829 45.6422 27.4253C43.8515 29.9181 44.0449 32.4782 44.756 34.4981C44.0833 34.5258 43.4978 34.7099 43.2277 35.0503C42.5758 35.8817 41.7434 36.554 40.7935 37.0164C39.8436 37.4787 38.8009 37.719 37.7444 37.7191C34.8398 37.7191 32.0929 35.8887 31.6835 32.5312C31.1515 32.4273 30.6584 32.1789 30.2582 31.8133C29.858 31.4477 29.5662 30.9789 29.4148 30.4584L28.0202 25.6691V17.0601H44.2608V17.9647H45.6422V21.1951C49.0858 21.2017 48.4818 24.8638 48.4818 24.8638H48.4765ZM32.1843 20.0494C32.1843 20.3304 32.296 20.5999 32.4947 20.7986C32.6933 20.9973 32.9628 21.1089 33.2438 21.1089H40.1893C40.4683 21.1059 40.7349 20.9929 40.9311 20.7946C41.1273 20.5962 41.2374 20.3284 41.2374 20.0494C41.2374 19.7703 41.1273 19.5026 40.9311 19.3042C40.7349 19.1058 40.4683 18.9928 40.1893 18.9898H33.2438C32.9628 18.9898 32.6933 19.1015 32.4946 19.3002C32.2959 19.4989 32.1843 19.7684 32.1843 20.0494ZM32.1843 23.0957C32.1843 23.3767 32.296 23.6461 32.4947 23.8448C32.6933 24.0435 32.9628 24.1552 33.2438 24.1552H40.1893C40.4683 24.1522 40.7349 24.0392 40.9311 23.8408C41.1273 23.6424 41.2374 23.3747 41.2374 23.0956C41.2374 22.8166 41.1273 22.5488 40.9311 22.3504C40.7349 22.1521 40.4683 22.0391 40.1893 22.0361H33.2438C32.9628 22.0361 32.6933 22.1478 32.4946 22.3465C32.2959 22.5452 32.1843 22.8147 32.1843 23.0957ZM33.2438 27.1353H40.1893C40.3294 27.1368 40.4684 27.1106 40.5983 27.058C40.7282 27.0054 40.8464 26.9276 40.946 26.8291C41.0456 26.7305 41.1247 26.6132 41.1787 26.4839C41.2326 26.3546 41.2604 26.2159 41.2604 26.0758C41.2604 25.9356 41.2326 25.7969 41.1787 25.6676C41.1247 25.5383 41.0456 25.421 40.946 25.3224C40.8464 25.2239 40.7282 25.1461 40.5983 25.0935C40.4684 25.041 40.3294 25.0147 40.1893 25.0162H33.2438C32.9648 25.0192 32.6982 25.1322 32.502 25.3306C32.3057 25.5289 32.1957 25.7967 32.1957 26.0758C32.1957 26.3548 32.3057 26.6226 32.502 26.8209C32.6982 27.0193 32.9648 27.1323 33.2438 27.1353ZM42.1283 32.5656C42.1283 30.8001 41.0688 30.6504 39.5324 30.6968C39.4993 30.8571 39.4622 31.0226 39.4172 31.1922C39.3629 31.3894 39.3047 31.5894 39.2318 31.7922C39.1589 31.9947 39.078 32.1894 38.9893 32.3922C38.8989 32.5873 38.7982 32.7774 38.6874 32.9617C38.6344 33.0529 38.5774 33.1404 38.5179 33.2266C38.4583 33.3126 38.3987 33.3934 38.3377 33.4728C38.2208 33.6239 38.0943 33.7673 37.9589 33.9021C37.8401 34.0215 37.7136 34.133 37.5802 34.2358C37.4609 34.3338 37.339 34.4079 37.2384 34.4768C37.1378 34.5457 37.0384 34.5933 36.9617 34.6331L36.7139 34.7509L36.902 34.5563C36.9589 34.4927 37.0252 34.4119 37.0993 34.3218C37.1819 34.2207 37.2555 34.1126 37.3193 33.9987C37.399 33.8711 37.4702 33.7383 37.5324 33.6013C37.6016 33.4504 37.6609 33.2951 37.7099 33.1364C37.735 33.0543 37.7603 32.9722 37.7788 32.8862C37.7973 32.7999 37.8199 32.7153 37.8344 32.6212C37.8664 32.4459 37.8889 32.2691 37.9019 32.0914C37.9144 31.9152 37.9184 31.7384 37.9139 31.5617C37.9087 31.3894 37.898 31.2133 37.8822 31.0464C37.8715 30.9471 37.8597 30.8518 37.8463 30.7577H37.7007C35.2557 30.7577 33.2743 30.1577 33.2743 32.5669C33.2746 33.7411 33.7414 34.867 34.5719 35.697C35.4024 36.5269 36.5285 36.993 37.7027 36.9927C38.8768 36.9923 40.0027 36.5256 40.8327 35.6951C41.6627 34.8646 42.1288 33.7384 42.1284 32.5643L42.1283 32.5656Z" fill="#BF2316"/>
</svg>
