<svg width="100" height="100" viewBox="0 0 30 20" fill="none" xmlns="http://www.w3.org/2000/svg">
<g clip-path="url(#clip0_39_146)">
<path d="M9.8013 0.507986C8.76727 0.743054 7.9389 1.45399 7.57328 2.4172C7.51615 2.56627 7.0534 4.32641 6.54496 6.32735C6.0308 8.3283 5.60233 9.99671 5.5909 10.0368C5.52806 10.2088 7.39047 10.9771 8.693 11.3154C12.9205 12.4162 18.8277 12.2614 22.5982 10.9427C23.238 10.7191 24.4263 10.1802 24.4263 10.1114C24.4263 10.0884 24.0036 8.35697 23.4894 6.27002C22.4439 2.0388 22.4211 1.96999 21.8212 1.35652C21.2214 0.743054 20.1931 0.353186 19.4275 0.450652C18.9248 0.51372 18.7191 0.588253 16.9081 1.34506C15.9255 1.75213 15.0914 2.08466 15.0457 2.08466C15 2.08466 14.1602 1.75213 13.1776 1.33932C12.195 0.932255 11.2981 0.571054 11.1838 0.542386C10.7953 0.433453 10.1898 0.421986 9.8013 0.507986Z" fill="#BF2316"/>
<path d="M5.2937 11.2466C5.25942 11.3612 5.15659 11.7683 5.06519 12.1467L4.8938 12.8347L5.01948 12.9322C5.25942 13.1214 6.35059 13.6603 7.00186 13.9183C9.41269 14.8586 12.9833 15.3345 16.3881 15.1625C19.5131 15.0019 21.9525 14.4802 23.872 13.5571C24.3176 13.3392 24.9746 12.9666 25.0717 12.8691C25.106 12.8347 24.8032 11.4472 24.6832 11.1032C24.6661 11.0574 24.4662 11.1262 24.072 11.3096C21.5754 12.4964 17.9078 13.064 13.7716 12.915C10.6581 12.8003 7.9102 12.2327 5.87642 11.281L5.34512 11.0402L5.2937 11.2466Z" fill="#BF2316"/>
<path d="M3.63706 11.7798C2.16313 12.4792 1.28906 13.3392 1.28906 14.0961C1.28906 15.7702 5.21953 17.5017 10.4011 18.1037C12.0464 18.2929 12.852 18.3387 15 18.3387C17.2966 18.333 18.0907 18.2929 19.9988 18.0521C23.1409 17.6565 25.9745 16.7965 27.4655 15.7817C28.2311 15.2599 28.7109 14.6121 28.7109 14.0961C28.7109 13.5571 28.2253 12.9092 27.4255 12.376C26.9742 12.0722 25.7974 11.4702 25.7517 11.516C25.7345 11.5275 25.8088 11.8772 25.9116 12.2843C26.0202 12.7143 26.083 13.0927 26.0602 13.173C26.0144 13.3622 25.3232 13.861 24.6034 14.2337C22.7867 15.1682 20.5186 15.753 17.6279 16.0282C16.4568 16.1371 13.3718 16.1199 12.1436 15.9938C9.76128 15.7587 7.69892 15.2599 6.04219 14.5375C5.02529 14.0903 4.00269 13.431 3.93984 13.1787C3.91699 13.0927 3.97983 12.7258 4.08838 12.2843C4.19121 11.8772 4.26548 11.5332 4.25405 11.516C4.24263 11.5046 3.96269 11.625 3.63706 11.7798Z" fill="#BF2316"/>
</g>
<defs>
<clipPath id="clip0_39_146">
<rect width="29.25" height="18.9583" fill="white" transform="translate(0.375 0.25)"/>
</clipPath>
</defs>
</svg>
