<?xml version="1.0" encoding="utf-8"?>
<!-- Generator: Adobe Illustrator 19.0.0, SVG Export Plug-In . SVG Version: 6.00 Build 0)  -->
<svg version="1.1" id="Layer_1" xmlns="http://www.w3.org/2000/svg" xmlns:xlink="http://www.w3.org/1999/xlink" x="0px" y="0px"
	 viewBox="0 0 1000 1000" style="enable-background:new 0 0 1000 1000;" xml:space="preserve">
<style type="text/css">
	.st0{fill:#FFFFFF;}
	.st1{fill:url(#SVGID_1_);}
	.st2{fill:url(#SVGID_2_);}
	.st3{fill:url(#SVGID_3_);}
	.st4{fill:url(#SVGID_4_);}
	.st5{fill:url(#SVGID_5_);}
	.st6{fill:url(#SVGID_6_);}
	.st7{fill:url(#SVGID_7_);}
	.st8{fill:url(#SVGID_8_);}
</style>
<g>
	<path class="st0" d="M499.1,498.2c-0.1-2,0.4-2.5,2.3-1.7c0.6,0.2,0.9,0.1,1.3-0.1c0.9-0.4,1.7-0.9,2.7-0.9c0.8,0,1.6-0.2,2.3,0.3
		c0.7,0.5,1.3,0.2,2-0.1c0.8-0.4,1.6-0.7,2.5-0.9c3.3-0.8,5.5,0.6,6,4c0.2,1.2,0.3,2.4,0.4,3.6c0.2,2.1,0.5,4.3,0.7,6.4
		c0.1,1-0.1,1.2-1.2,1.3c-0.7,0.1-1.2-0.1-1.3-1c-0.3-2.6-0.6-5.2-0.9-7.9c-0.1-0.9-0.2-1.8-0.4-2.6c-0.4-1.3-1.1-1.8-2.5-1.7
		c-0.5,0-1.1,0.2-1.6,0.4c-1.5,0.5-1.5,0.5-1.3,2.2c0.4,3.4,0.7,6.8,1.1,10.2c0.1,0.8-0.2,1.2-1,1.2c-1.2,0.1-1.4,0-1.5-0.9
		c-0.3-2.8-0.6-5.6-0.9-8.3c-0.1-1-0.2-1.9-0.5-2.8c-0.2-0.6-0.6-0.9-1.2-1c-1.4-0.2-2.7,0.4-3.8,1.2c-0.4,0.3-0.3,0.9-0.2,1.4
		c0.2,2.4,0.5,4.8,0.8,7.2c0.1,1.1,0.2,2.2,0.3,3.3c0.1,0.9-0.7,0.9-1.3,1c-0.6,0-1.1,0.1-1.2-0.8c-0.3-2.6-0.6-5.2-0.9-7.9
		C499.4,501.6,499.3,499.9,499.1,498.2z"/>
	<path class="st0" d="M609.5,487.8c-0.3,3.6-0.7,7.2-1.1,10.7c-0.2,1.8-1.7,2.7-3.4,2.2c-0.7-0.2-1-0.8-1.2-1.4
		c-0.5-1.3-1-2.7-1.5-4c-0.5-1.4-1-2.8-1.6-4.3c-0.1-0.3-0.2-0.7-0.6-0.7c-0.5,0-0.3,0.5-0.3,0.7c-0.5,2.8-0.8,5.7-1.3,8.5
		c-0.3,1.9-0.9,2.2-2.7,2.3c-0.9,0-1.5-0.4-1.8-1.2c-1.4-4.2-2.8-8.5-4.2-12.7c-0.2-0.5-0.3-1.1,0.5-1.4c1-0.3,1.7-0.1,2,0.7
		c0.9,2.9,1.7,5.8,2.7,8.7c0.3,0.8,0.1,1.9,1.2,2.3c0.7-0.7,0.6-1.6,0.7-2.4c0.4-2.3,0.7-4.6,1-6.9c0.2-1.4,0.2-1.4,1.6-1.7
		c1.9-0.3,2.1-0.3,2.8,1.7c1.1,2.8,2.1,5.7,3.2,8.5c0.1,0.2,0.2,0.5,0.5,0.5c0.3,0,0.3-0.3,0.3-0.5c0.3-3.3,0.5-6.7,0.8-10
		c0-0.5,0-1,0.1-1.4c0.1-1,0.3-1.2,1.3-1.3c1.1-0.1,1.4,0.2,1.3,1.4C609.7,486.5,609.6,487.2,609.5,487.8
		C609.5,487.8,609.5,487.8,609.5,487.8z"/>
	<path class="st0" d="M573.5,502.2c0,0.5,0.1,0.9,0.1,1.2c0,0.2-0.1,0.5-0.2,0.6c-0.6,0.3-1.2,0.3-1.8,0.1c-0.5-0.1-0.4-0.6-0.4-1
		c-0.3-2.7-0.7-5.4-0.9-8.1c-0.3-3.7-1.9-4.5-5.3-3.5c-0.4,0.1-0.8,0.3-1.1,0.4c-0.6,0.2-0.8,0.7-0.7,1.3c0.2,1.7,0.4,3.3,0.6,5
		c0.2,1.9,0.5,3.8,0.7,5.7c0.1,0.9-0.1,1.1-1,1.2c-1.1,0.1-1.4,0-1.6-0.9c-0.4-3-0.7-6-1-9.1c-0.3-2.9-0.6-5.9-1-8.8
		c0-0.3-0.1-0.6-0.1-1c-0.1-1.3,0.1-1.4,1.2-1.5c0.8-0.1,1.2,0.1,1.3,1c0.1,1.4,0.3,2.7,0.4,4.1c0.1,0.8,0.3,1,1.1,0.7
		c0.8-0.2,1.7-0.6,2.5-0.8c3.5-0.7,5.8,0.9,6.4,4.4c0.1,0.9,0.3,1.7,0.4,2.6C573.1,498.1,573.3,500.3,573.5,502.2z"/>
	<path class="st0" d="M533.9,507.1c-0.1-1.1-0.2-2.2-0.4-3.3c-0.3-2.3-0.5-4.6-0.9-6.9c-0.4-2.3-2-3.6-4.3-3.7
		c-1.9-0.1-3.8,0.3-5.6,0.8c-0.7,0.2-0.9,0.7-0.7,1.5c0.2,0.7,0.7,0.6,1.1,0.5c1.3-0.2,2.5-0.4,3.2-0.5c3-0.2,3.8,0.5,4,2.8
		c0.1,0.6-0.1,1-0.8,1.1c-1.2,0.1-2.4,0.3-3.5,0.5c-3.2,0.8-4.4,2.6-3.8,5.8c0.4,2.4,2.1,3.8,4.6,3.6c0.7,0,1.4-0.2,2.1-0.4
		c0.6-0.2,1.2-0.5,1.7-0.8c0.9-0.6,1.2,0.5,1.9,0.5C533.6,508.5,534,508.2,533.9,507.1z M530.8,505.8c-0.5,0.7-2.6,1.4-3.7,1.4
		c-1.4,0-2-0.4-2.4-1.8c-0.4-1.6,0-2.7,1.2-3.3c1.3-0.6,2.8-0.8,4.2-0.8c0.4,0,0.6,0.2,0.6,0.6c0,0.4,0.1,0.8,0.1,1.2
		C530.8,503.9,531.5,504.9,530.8,505.8z"/>
	<path class="st0" d="M588.9,496.3c0-1.5-0.1-3-0.5-4.5c-0.5-2-1.6-3.5-3.6-4.2c-4.5-1.7-8.8,1.2-8.8,6.1c0,1.3,0.2,2.7,0.4,4
		c0.6,3.9,3.4,6.7,8.6,5.2c2.4-0.7,3.6-2.5,3.9-4.9C589,497.4,588.9,496.8,588.9,496.3z M586.4,497.6c-0.2,2.1-1.4,3.2-3.3,3.4
		c-2.1,0.2-3.2-0.6-3.9-2.7c-0.4-1.2-0.4-2.4-0.5-3.8c0-0.4-0.1-1,0-1.7c0.2-2.1,1.3-3.1,3.4-3.3c1.7-0.2,3.1,0.7,3.7,2.4
		C586.3,493.7,586.5,495.6,586.4,497.6z"/>
	<path class="st0" d="M626.2,484.1c0-0.1,0-0.3,0-0.6c-0.1-0.7,0.3-1,1-1c1.2-0.1,1.4,0,1.5,1.2c0.3,2.5,0.6,5.1,0.9,7.6
		c0,0.3,0,0.6,0.1,1c0.4,3.2,2,4.1,5,2.9c0.4-0.2,0.9-0.4,1.3-0.6c0.7-0.3,0.9-0.9,0.8-1.6c-0.2-1.8-0.4-3.6-0.6-5.5
		c-0.2-1.6-0.4-3.2-0.5-4.8c-0.1-1,0.1-1.2,1.2-1.3c1-0.1,1.3,0.1,1.4,1.1c0.4,3.2,0.7,6.5,1,9.8c0.1,1.1,0.3,2.2,0.4,3.3
		c0.1,1.1-0.1,1.3-1.1,1.3c-0.4,0-0.8,0.2-1.1-0.1c-0.5-0.6-0.9-0.3-1.5,0c-1,0.5-2,0.9-3.2,1c-2.8,0.3-4.6-0.9-5.3-3.7
		c-0.3-1.2-0.4-2.5-0.6-3.8c-0.2-1.8-0.4-3.6-0.6-5.5C626.3,484.7,626.3,484.5,626.2,484.1z"/>
	<path class="st0" d="M551,506.6c-0.7,0-1.4,0-2.2,0c-0.6,0-0.8-0.4-0.8-1c-0.1-0.7,0.1-1.1,0.9-1.1c1.4,0,2.7,0,4.1-0.2
		c0.5-0.1,1-0.1,1.4-0.3c1.4-0.5,1.7-2.1,0.5-3.1c-0.5-0.5-1.2-0.8-1.9-1.1c-1.2-0.6-2.5-1.1-3.7-1.7c-1.2-0.7-2.2-1.6-2.5-3.1
		c-0.3-1.6,0.3-3.2,1.8-3.8c2.3-1,4.8-1.2,7.3-0.9c0.7,0.1,0.8,0.7,0.8,1.3c0,0.6-0.5,0.8-1,0.8c-1.1,0.1-2.2,0.1-3.3,0.2
		c-0.6,0.1-1.3,0.1-1.9,0.3c-1.2,0.4-1.5,1.8-0.4,2.6c0.5,0.4,1.1,0.6,1.7,0.9c1.4,0.7,2.9,1.4,4.3,2.1c1.3,0.7,2,1.8,2.1,3.3
		c0.2,1.9-0.8,3.3-2.7,4.1C554,506.6,552.5,506.6,551,506.6z"/>
	<path class="st0" d="M542.6,491.7c0.3,0,0.6,0,1-0.1c0.7-0.1,0.8,0.4,0.8,0.9c0.1,0.5,0.1,1-0.5,1.2c-0.1,0-0.2,0-0.2,0
		c-0.8,0.2-2.1-0.1-2.4,0.7c-0.3,0.7,0.1,1.7,0.1,2.6c0.3,3,0.7,6,1,9.1c0.2,1.5,0,1.5-1.6,1.6c-0.6,0-0.8-0.3-0.9-0.9
		c-0.3-2.6-0.6-5.2-0.9-7.9c-0.1-0.7-0.1-1.4-0.2-2.1c-0.2-0.8,0.1-1.8-0.5-2.2c-0.5-0.3-1.4-0.2-2.1-0.2c-0.7,0-1-0.3-1-1
		c0-0.6,0.4-0.8,0.9-0.9c0.7-0.2,1.6,0.1,2-0.5c0.4-0.6,0-1.4,0-2.1c0-3,2.3-4.8,5.3-4c0.5,0.1,0.6,0.5,0.6,0.9
		c0,0.4-0.1,0.8-0.6,0.9c-0.5,0.1-1,0.1-1.4,0.2c-1,0.2-1.3,0.7-1.3,1.7c0,0.3,0.1,0.6,0.1,0.9c0.2,1.3,0.2,1.3,1.5,1.2
		C542.2,491.7,542.4,491.7,542.6,491.7z"/>
	<path class="st0" d="M616.6,485c0-1.4,0.7-1.9,2.1-1.3c0.6,0.3,0.9,0.4,1.4,0c0.7-0.5,1.6-0.8,2.4-0.9c0.6-0.1,0.9,0.1,1,0.7
		c0,0.5,0.3,1.1-0.5,1.4c-0.8,0.2-1.5,0.5-2.3,0.7c-1,0.4-1.5,1-1.3,2.2c0.4,2.5,0.6,5.1,0.8,7.6c0.1,0.7,0.2,1.4,0.2,2.1
		c0.1,1.2-0.1,1.4-1.2,1.5c-0.8,0.1-1.1-0.1-1.2-1c-0.3-2.1-0.5-4.1-0.7-6.2C617,489.6,616.8,487.3,616.6,485z"/>
	<path class="st0" d="M611.7,497.4c-0.1-1.2,0.8-1.8,1.9-1.4c0.3,0.1,0.5,0.4,0.5,0.7c0.1,0.6,0.1,1.2,0.2,1.9
		c0.1,0.8-0.3,1.1-1.1,1.2c-1.1,0.1-1.3,0-1.4-1C611.8,498.4,611.7,497.9,611.7,497.4z"/>
</g>
<g>
	<g>
		<linearGradient id="SVGID_1_" gradientUnits="userSpaceOnUse" x1="282.5948" y1="541.8207" x2="724.8914" y2="447.2293">
			<stop  offset="0" style="stop-color:#382C21"/>
			<stop  offset="0.1209" style="stop-color:#3C2D21"/>
			<stop  offset="0.2535" style="stop-color:#4A311F"/>
			<stop  offset="0.3917" style="stop-color:#60381D"/>
			<stop  offset="0.5329" style="stop-color:#7E411B"/>
			<stop  offset="0.5646" style="stop-color:#86431A"/>
			<stop  offset="0.6292" style="stop-color:#99561E"/>
			<stop  offset="0.7944" style="stop-color:#C48028"/>
			<stop  offset="0.9236" style="stop-color:#DE9A2E"/>
			<stop  offset="1" style="stop-color:#E8A430"/>
		</linearGradient>
		<path class="st1" d="M494.3,470.2c0.1,2.9-0.3,5.6-0.5,8.3c-0.1,0.9-0.5,1.4-1.3,1.9c-2.4,1.4-5,2.4-7.8,2.9
			c-1.5,0.3-1.6,0.3-1.4,1.8c0.3,3.6,0.7,7.2,1.1,10.7c0.6,5.5,1.1,11,1.7,16.5c0.6,5.7,1.2,11.5,1.8,17.2c0.6,5.5,1.1,11,1.6,16.5
			c0.5,4.9,1,9.9,1.5,14.8c0,0.3,0,0.6,0.1,1c0.1,0.7-0.1,1-0.9,1.1c-2.6,0.3-5.2,0.6-7.9,0.8c-4.2,0.4-8.4,0.8-12.7,1.2
			c-1.3,0.1-1.3,0.1-1.4-1.2c-0.5-4.1-0.9-8.3-1.3-12.4c-0.6-5.8-1.2-11.6-1.8-17.4c-0.5-5.2-1.1-10.5-1.6-15.8
			c-0.6-5.7-1.2-11.5-1.8-17.2c-0.4-4-0.8-8-1.2-11.9c-0.2-1.6-0.1-3.2-1.1-4.6c-0.4-0.5-0.3-1.2-0.3-1.9c-0.1-4.6-0.8-9.1-0.7-13.7
			c0-0.5-0.1-1-0.2-1.4c-0.2-1-0.1-2.3-0.9-2.9c-1-0.8-2.5-0.1-3.7-0.2c-0.3,0-0.6,0.2-0.6,0.6c0,0.7,0,1.4,0,2.2
			c0.5,5.2,1.1,10.3,1.6,15.5c0,0.4,0.1,0.8,0.1,1.2c0.1,1.9,0.1,1.8-1.7,2.2c-1,0.2-2,0.6-3,0.8c-2.9,0.5-3.5,0.4-3.8-2.9
			c-0.3-3.9-0.7-7.7-1-11.6c-0.2-2.9-0.8-5.9-0.4-8.8c0.3-2.1-0.4-4.1-0.7-6.2c-0.6-3.6-1.1-7.3-1.4-10.9c-0.1-0.9-0.1-1.8,0.3-2.6
			c0.5-1.2,1.2-2.2,2.8-2.1c1.2,0.1,2.4-0.3,3.6-0.3c1.2-0.1,1.3,0,1.6,1.3c0.3,1.3,0.5,2.7,0.6,4c0.1,2.6,0.3,5.3,0.4,7.9
			c0,0.6,0,1.3,0.2,1.9c0.2,0.7-0.1,1.8,0.8,2.1c1.2,0.4,2.5,0.5,3.7-0.3c0.4-0.3,0.6-0.7,0.6-1.2c-0.1-0.5-0.1-1-0.2-1.4
			c-0.4-4.1-0.9-8.1-1.3-12.2c0-0.3,0-0.6,0-1c0-1.9,0.3-2.2,2.2-2.4c1.6-0.2,3.2,0,4.7-0.6c0.7-0.3,1.6,0.5,1.7,1.5
			c0.1,0.7,0.1,1.4,0.1,2.2c0.1,4.5,0.6,8.9,1.4,13.3c0.2,1.2,0.4,2.3,0,3.5c-0.2,0.6-0.2,1.3-0.1,1.9c0.7,6.7,1.4,13.4,2.1,20
			c0.1,1.3,0.2,1.3,1.5,1.2c2.2-0.2,4.3-0.4,6.4-0.7c0.8-0.1,1.7,0.1,2.4-0.5c-0.7-0.4-1.4-0.8-2-1.2c-1-0.7-1.9-1.5-2.5-2.5
			c-0.4-0.6-0.3-1.2,0.4-1.4c1.9-0.5,3-2,4.4-3.2c0.3-0.3,0.6-0.5,1-0.7c1.3-0.7,1.8-0.5,2.3,0.9c0.3,1.1,0.6,2.2,1,3.2
			c0.4,1,0.8,1.2,1.9,1c1.5-0.3,2.5-1.4,2.3-2.8c-0.4-3.5,0-7-0.2-10.4c-0.2-5.2-0.9-10.4-2.9-15.2c-0.4-0.9-0.7-1.8-1.5-2.4
			c-0.9-0.8-1.8-1.3-3-0.9c-1.1,0.4-2.2,2-2.2,3.2c0,0.5,0.1,1,0.2,1.4c1,6.1,2,12.1,3,18.2c0.2,1.3,0.2,1.3-1,2
			c-0.8,0.4-1.3,1.1-2,1.7c-0.6,0.6-1.1,1.2-1.8,1.5c-1.6,0.8-2.1,0.6-2.5-1.1c-1.2-4.6-2.6-9.2-3.2-14c-0.5-3.6-0.7-7.2,0.3-10.7
			c0.2-0.9,0.6-1.8,1-2.7c1.6-3.8,4.8-5.3,8.6-5.8c0.2,0,0.3,0.1,0.5,0c3.4-0.9,5.8,0.7,7.9,3.1c1.8,2,2.9,4.4,3.6,7
			c1,3.5,1.4,7.1,1.9,10.6c0.2,1.5,0.5,3,0.8,4.4c0.3,1.4,0.1,2.9,0.2,4.3C494.3,469.6,494.3,470,494.3,470.2z"/>
		<linearGradient id="SVGID_2_" gradientUnits="userSpaceOnUse" x1="276.2658" y1="512.2271" x2="718.5624" y2="417.6356">
			<stop  offset="0" style="stop-color:#382C21"/>
			<stop  offset="0.1209" style="stop-color:#3C2D21"/>
			<stop  offset="0.2535" style="stop-color:#4A311F"/>
			<stop  offset="0.3917" style="stop-color:#60381D"/>
			<stop  offset="0.5329" style="stop-color:#7E411B"/>
			<stop  offset="0.5646" style="stop-color:#86431A"/>
			<stop  offset="0.6292" style="stop-color:#99561E"/>
			<stop  offset="0.7944" style="stop-color:#C48028"/>
			<stop  offset="0.9236" style="stop-color:#DE9A2E"/>
			<stop  offset="1" style="stop-color:#E8A430"/>
		</linearGradient>
		<path class="st2" d="M695.2,443.9c0.4,1.3,0.7,2.6,1.1,3.9c0.1,0.2,0.1,0.5-0.1,0.6c-0.1,0-0.4-0.2-0.5-0.3
			c-0.3-0.2-0.6-0.3-0.7,0.2c-0.1,0.9,0,1.8,0,2.6c0,0.8-0.1,1.6-0.1,2.4c0,0.3,0,0.6-0.1,0.8c-0.3-0.2-0.2-0.5-0.2-0.7
			c-0.2-1.2-0.4-2.4-0.7-3.5c-0.5-2.1-1.3-4.1-2.4-6c-2.2-3.7-4.5-7.4-6.7-11.1c-0.8-1.4-0.9-1.4-2.5-1c-2.7,0.5-5.5,1.1-8.2,1.6
			c-1.1,0.2-1.3,0.1-1.5-0.9c-0.4-2-0.4-2-2.3-1.8c-5,0.5-10,1-15,1.6c-5.2,0.6-10.3,1.2-15.5,1.7c-4.9,0.5-9.9,1-14.8,1.5
			c-0.8,0.1-1.2,0.3-1.1,1.1c0.1,2.1,0.2,4.2,0.5,6.2c0.1,0.6,0.4,0.8,1,0.7c1.4-0.2,2.8-0.4,4.3-0.6c1.2-0.2,1.6,0,1.8,1.2
			c0.3,1.8,0.5,3.6,0.8,5.5c0.1,1,0,1.2-1,1.1c-1.7,0-3.4,0.7-5.2,0.1c-0.5-0.2-0.7,0.2-0.7,0.7c0.2,2.5,0.5,5.1,0.7,7.6
			c0.1,0.8,0.5,1.2,1.4,1.3c2.1,0.2,4.2,0.1,6.2-0.2c0.3,0,0.6-0.1,0.9-0.2c2.3-0.3,2.3-0.3,2.4,2.1c0.1,1.5,0.2,3,0.4,4.5
			c0.1,0.8-0.3,1.2-1.1,1.2c-1.8,0.1-3.5,0.3-5.3,0.4c-3,0.2-6,1-9.1,0.8c-0.7,0-1.2,0.4-1.8,0.5c-1,0.2-1.7-0.3-1.9-1.3
			c-0.6-2.5-0.6-5.1-0.6-7.6c0-3.1,0.1-6.3-0.6-9.3c-0.5-2.2-0.9-4.4-1.1-6.6c-0.4-6.2-0.8-12.4-0.8-18.7c0-0.2,0-0.3,0-0.5
			c-0.1-0.8,0.3-1.1,1.1-1.1c3,0.1,6.1-0.2,9.1-0.6c5.4-0.6,10.8-1.2,16.2-1.8c5.2-0.6,10.5-1.1,15.7-1.6c4.1-0.4,8.3-0.9,12.4-1.3
			c0.8-0.1,1.1-0.4,1.2-1.2c0.5-3.3,1-6.6,1.9-9.9c0.4-1.4,1.1-2.2,2.5-2.6c2.2-0.5,2.4-0.5,3.7,1.5c0.6,1,1.2,1.9,1.8,2.9
			c0.1,0.2,0.3,0.3,0.5,0.5c0.1-0.2,0.4-0.3,0.4-0.5c0.3-0.9,0.6-1.8,1-2.7c0.2,0.8,0.3,1.6,0.6,2.4c0.3,0.9,1.1,1.2,1.9,0.7
			c0.9-0.5,1.5-1.4,2-2.3c1.4-2.4,2.6-4.9,3.7-7.5c0.3-0.8,0.6-1.6,1.2-2.3c0.1-0.1,0.1-0.3,0.2-0.4c0.1-0.3,0-0.3-0.2-0.1
			c-0.1,0.1-0.1,0.3-0.2,0.4c-0.2,1.3-0.4,2.7-0.5,4c-0.1,0.5-0.1,1,0,1.4c0.1,0.6,0.6,0.8,1.1,0.4c1.3-1,2.3-2.2,2.8-3.8
			c0.6-1.7,1-3.5,1.5-5.3c0.2-0.7,0.3-1.4,0.5-2.1c0.1-0.2,0.2-0.5,0.4-0.4c1.4,0.6,1.5-0.7,2-1.4c0.4-0.7,0.7-1.4,1.1-2.1
			c0.1-0.1,0.1-0.3,0.2-0.4c0,0,0.1,0,0.1,0.1c-0.1,0.1-0.2,0.3-0.2,0.4c-0.1,0.3-0.3,0.6-0.4,0.9c-1.2,3.4-2.3,6.8-3.5,10.1
			c-0.2,0.5-0.3,1.1-0.4,1.6c0,0.1,0.1,0.3,0.2,0.4c0.1,0.1,0.4,0.1,0.4,0c0.8-0.8,1.5-1.6,2.3-2.4c0.2-0.2,0.3-0.4,0.5-0.5
			c-0.1,0.2-0.2,0.5-0.3,0.7c-0.6,1.1-1.3,2.2-1.9,3.3c-0.3,0.6-1.1,1.3-0.4,1.8c0.5,0.4,1.1-0.4,1.5-0.8c1.2-1.1,2.5-2,3.8-2.9
			c0.1-0.1,0.3-0.1,0.4-0.1c0.2,0.7-1.1,1.2-0.4,1.9c0.4,0.4,1.2,0,1.8-0.1c0.5-0.1,1.1-0.3,1.6-0.2c-0.2,0.5-0.6,0.7-1,1
			c-3.3,2.1-6.1,4.6-8.6,7.6c-1.4,1.7-2.7,3.3-4.1,5c-0.1,0.2-0.1,0.4-0.2,0.6c0.2,0,0.5,0.1,0.7,0c6.6-2,13.5-3.3,20.2-5
			c-2,0.9-4,1.7-6,2.6c-0.7,0.3-1.3,0.6-1.9,1c-0.2,0.1-0.4,0.3-0.2,0.6c0.1,0.2,0.4,0.3,0.6,0.4c0.6,0.1,1.3,0.1,1.9,0.1
			c3.8,0,7.5-0.5,11.2-0.7c4.4-0.3,8.7-1.1,13.1-1.2c0.2,0,0.3,0,0.5-0.1c0.3-0.1,0.2-0.2-0.1-0.2c-0.2,0-0.3,0.1-0.4,0.1
			c-0.3,0.2-0.7,0.4-1,0.6c-0.6,0.2-1.8,0.2-1.6,0.9c0.1,0.6,1.3,0.2,2,0.1c3.7-0.4,7.3-0.8,11-1.2c0.2,0,0.3-0.1,0.5-0.1
			c0.5,0,1.1-0.2,1.6,0.1c-0.5,0.1-1.1,0.2-1.6,0.3c-5.2,1.1-10.5,2.1-15.7,3.2c-1.9,0.4-3.7,0.8-5.6,1.2c-0.3,0.1-0.6,0.3-0.9,0.4
			c-0.2,0.1-0.2,0.2-0.2,0.4c0,0.2,0.1,0.3,0.3,0.3c0.6,0.1,1.3,0.2,1.9,0.2c3.4-0.2,6.9-0.4,10.3-0.5c0.2,0,0.5,0,0.7-0.1
			c0.3-0.1-0.1-0.4,0.1-0.1s0.1-0.3,0,0c0,0-0.1,0.1-0.1,0.1c-0.3,0-0.7,0-1,0c-5.5,1.5-11.1,2.4-16.6,3.6
			c-5.4,1.1-10.8,2.1-16.2,3.1c-0.8,0.1-1.6,0.4-2.3,0.6c-0.9,0.4-0.9,0.6-0.1,1.4c0.1,0.1,0.3,0.1,0.4,0.2c-0.2,0-0.3,0.1-0.5,0.1
			c-0.7,0-1.4,0-2.2,0.1c-0.9,0.1-1.2,0.7-1,1.5c0.2,0.8,0.7,1.4,1.2,2c3,3.2,5.9,6.5,9.2,9.4c0.8,0.7,1.6,1.3,2.3,2.4
			c-0.8-0.4-1.4-0.7-2-1c-0.4-0.2-0.8-0.5-1.3,0c-0.4,0.6,0,0.8,0.4,1.1c0.9,0.7,1.8,1.4,2.7,2.1c0.6,0.5,1.4,0.8,1.4,1.8
			c0,0.6,0.6,0.7,1,0.9c1.3,0.7,2.5,1.4,3.8,2c0.1,0.1,0.3,0.1,0.5,0.1c0,0,0-0.1,0.1-0.1c-0.1-0.1-0.3-0.1-0.4-0.2
			c-2.2-0.3-4.1-1.3-6.1-2c-3.4-1.3-6.1-3.5-8.6-5.9c-0.3-0.3-0.6-0.6-0.9-0.8c-0.2-0.2-0.4-0.6-0.7-0.3c-0.1,0.1,0,0.6,0,0.9
			c0.1,0.4,0.1,0.5-0.3,0.2c-0.1,0-0.1-0.1-0.2-0.1c-0.1,0-0.2-0.1-0.2-0.1c-0.1-0.3-0.3-0.6-0.7-0.5c-0.4,0.2-0.2,0.5-0.1,0.8
			C695,443.6,695.1,443.7,695.2,443.9z"/>
		<linearGradient id="SVGID_3_" gradientUnits="userSpaceOnUse" x1="275.307" y1="507.744" x2="717.6036" y2="413.1525">
			<stop  offset="0" style="stop-color:#382C21"/>
			<stop  offset="0.1209" style="stop-color:#3C2D21"/>
			<stop  offset="0.2535" style="stop-color:#4A311F"/>
			<stop  offset="0.3917" style="stop-color:#60381D"/>
			<stop  offset="0.5329" style="stop-color:#7E411B"/>
			<stop  offset="0.5646" style="stop-color:#86431A"/>
			<stop  offset="0.6292" style="stop-color:#99561E"/>
			<stop  offset="0.7944" style="stop-color:#C48028"/>
			<stop  offset="0.9236" style="stop-color:#DE9A2E"/>
			<stop  offset="1" style="stop-color:#E8A430"/>
		</linearGradient>
		<path class="st3" d="M512.6,436.4c0.8,0,1.6,0.1,2.4,0c0.8-0.1,1.1,0.3,1.2,1c0.4,3.4,1.1,6.8,2,10.1c0.7,2.5,1.5,4.9,2.3,7.3
			c0.2,0.5,0.3,1.4,0.8,1.4c0.7,0,0.8-0.9,1-1.5c0.3-0.7,0.5-1.5,0.7-2.3c1.4-5.9,2.5-11.9,2.9-18c0-0.3,0-0.6,0.1-1
			c0-0.4,0.2-0.8,0.7-0.8c1.2-0.1,2.4-0.3,3.6-0.2c1.6,0,1.9,0.5,1.8,2.1c-0.2,3.2-0.5,6.4-0.7,9.6c-0.2,3.3-0.8,6.5-1.9,9.6
			c-0.2,0.5-0.2,1.1-0.2,1.6c-0.3,4.1-0.5,8.3-0.8,12.4c-0.2,2.6,0,5.1,0,7.7c0,1.6,0,1.7-1.7,2c-1.8,0.3-3.7,0.3-5.5,0.5
			c-0.5,0-0.7-0.3-0.8-0.7c-0.4-1.4-0.9-2.7-1.3-4.1c-0.6-2.3-1-4.7-1.1-7.1c0-1-0.2-1.8-1.4-2.2c-1.9-0.7-2.8-2.4-2.8-4.4
			c0-1.6-0.6-3.1-0.8-4.7c0-0.2-0.3-0.3-0.5-0.4c-0.1,0.1-0.2,0.2-0.2,0.4c-0.1,1.3-0.3,2.5-0.3,3.8c-0.3,4.8-0.7,9.6-1,14.3
			c-0.2,1.9-0.3,3.8-0.7,5.7c-0.2,0.8,0.7,1.9-0.3,2.4c-0.7,0.3-1.6,0-2.4,0.1c-1.4,0.1-2.7,0.2-4.1,0.3c-1.5,0.1-2.8-1.1-2.5-2.5
			c0.6-2.5-0.1-4.7-0.5-7.1c-0.7-4.6-2.4-9-2.7-13.6c-0.3-4.4-1.9-8.5-2.5-12.9c-0.3-2.4-0.6-4.8-0.6-7.2c0-0.7,0.2-1.1,0.9-0.9
			c0.8,0.3,1.6-0.2,2.3-0.3c0.6-0.1,1.2-0.4,1.9-0.5c2-0.3,2.3-0.1,2.6,2c1.1,5.9,2.1,11.8,3.1,17.7c0,0.2,0.1,0.5,0.1,0.7
			c0,0.1,0.2,0.3,0.3,0.2c0.1,0,0.3-0.1,0.4-0.3c0.3-0.4,0.2-0.9,0.2-1.4c0-1.4,0.1-2.9,0-4.3c0-2,0.1-4,0.9-5.9
			c0.3-0.7,0.2-1.4,0.1-2.1c-0.2-1.7-0.1-3.4,0.4-5c0.4-1.4,0.7-1.6,2.2-1.6C511.2,436.5,511.9,436.5,512.6,436.4
			C512.6,436.5,512.6,436.5,512.6,436.4z"/>
		<linearGradient id="SVGID_4_" gradientUnits="userSpaceOnUse" x1="277.6991" y1="518.9291" x2="719.9957" y2="424.3377">
			<stop  offset="0" style="stop-color:#382C21"/>
			<stop  offset="0.1209" style="stop-color:#3C2D21"/>
			<stop  offset="0.2535" style="stop-color:#4A311F"/>
			<stop  offset="0.3917" style="stop-color:#60381D"/>
			<stop  offset="0.5329" style="stop-color:#7E411B"/>
			<stop  offset="0.5646" style="stop-color:#86431A"/>
			<stop  offset="0.6292" style="stop-color:#99561E"/>
			<stop  offset="0.7944" style="stop-color:#C48028"/>
			<stop  offset="0.9236" style="stop-color:#DE9A2E"/>
			<stop  offset="1" style="stop-color:#E8A430"/>
		</linearGradient>
		<path class="st4" d="M603.2,451.4c0,1.8,0,3.5,0,5.3c0,0.6,0,1.3-0.1,1.9c-0.3,0.8-0.2,1.6,0,2.4c0.3,1.7,0.4,3.5-0.1,5.2
			c-0.3,1.3-0.2,2.7-0.2,4.1c0,0.8-0.3,1.1-1,1.3c-4.2,1-3.2,1.7-4.5-2.3c-1.7-5.3-3.3-10.7-4.3-16.2c-0.4-2.3-1.5-4.4-1.8-6.7
			c0-0.1-0.2-0.3-0.3-0.3c-0.1,0-0.3,0.1-0.4,0.2c-0.1,0.5-0.2,0.9-0.2,1.4c-0.2,2.6,0.2,5.1,0.6,7.6c0.7,5.1,1.6,10.3,2,15.4
			c0.1,1.5,0,1.8-1.5,2.2c-0.8,0.2-1.6,0.3-2.4,0.4c-1.7,0.3-1.7,0.3-2.3-1.4c-0.5-1.5-0.4-3-0.4-4.5c0-1,0-2-0.5-3
			c-0.6-1.1-0.8-2.4-0.8-3.7c-0.1-4.5-1.1-8.9-1.8-13.3c-0.8-5.1-1.6-10.3-2.5-15.4c-0.1-0.7,0.1-1.1,0.7-1.3
			c2.9-0.8,5.7-1.6,8.7-1.6c1.7,0,2.1,0.3,2.6,1.8c0.8,2.3,1.3,4.8,1.8,7.2c0.5,2.6,1.2,5.1,2.2,7.6c0.1,0.3,0.2,0.7,0.6,0.5
			c0.2-0.1,0.3-0.4,0.3-0.6c0.8-4.8,1.4-9.6,1.6-14.5c0.1-2.7,0.1-2.7,2.8-3.1c2.1-0.3,4.3-0.6,6.4-0.9c0.8-0.1,1.3,0.1,1.5,1
			c0.3,1.7,0.8,3.4,1.2,5.1c0.1,0.5,0.2,1.1,0.2,1.7c0.1,2.7,0.3,5.4,0.4,8.1c0,0.6,0.2,1.3,0,1.9c-0.7,2.6-0.1,5.2,0.1,7.9
			c0,0.6,0.1,1.1,0.2,1.7c0.4,2.4-1,4.6-0.5,7.1c0.5,2.4-0.2,4.8-0.7,7.1c-0.1,0.5-0.2,0.9-0.4,1.4c-0.3,0.9-1.5,1.1-2.1,0.4
			c-0.7-0.9-1.2-1.9-1.3-3c-0.3-3.8-1-7.6-1.5-11.4c-0.5-4.3-1.4-8.5-1-12.8c0-0.3,0-0.6,0-1c0-0.3,0.1-0.9-0.5-0.9
			c-0.4,0-0.4,0.4-0.4,0.7c-0.2,1.3-0.4,2.5-0.4,3.8C603.2,447.9,603.3,449.6,603.2,451.4C603.3,451.4,603.3,451.4,603.2,451.4z"/>
		<linearGradient id="SVGID_5_" gradientUnits="userSpaceOnUse" x1="276.4464" y1="513.0715" x2="718.743" y2="418.48">
			<stop  offset="0" style="stop-color:#382C21"/>
			<stop  offset="0.1209" style="stop-color:#3C2D21"/>
			<stop  offset="0.2535" style="stop-color:#4A311F"/>
			<stop  offset="0.3917" style="stop-color:#60381D"/>
			<stop  offset="0.5329" style="stop-color:#7E411B"/>
			<stop  offset="0.5646" style="stop-color:#86431A"/>
			<stop  offset="0.6292" style="stop-color:#99561E"/>
			<stop  offset="0.7944" style="stop-color:#C48028"/>
			<stop  offset="0.9236" style="stop-color:#DE9A2E"/>
			<stop  offset="1" style="stop-color:#E8A430"/>
		</linearGradient>
		<path class="st5" d="M551.2,476.4c-1.1,0-2.1-0.4-3.1,0.5c-0.5,0.4-1.4-0.3-1.5-1.1c-0.2-0.9-0.3-1.9-0.3-2.9
			c-0.5-6-1-12.1-1.6-18.1c-0.4-4.1-0.9-8.1-1.6-12.1c-0.4-2.3,0.1-2-2.4-1.7c-1.3,0.1-2.5,0.3-3.7,0.7c-0.8,0.3-1.2,0-1.5-0.7
			c-0.5-1.2-0.8-2.4-0.7-3.7c0.1-2,0.3-2.2,2.4-2.2c0.7,0,1.5,0,2.1-0.2c4.2-1.1,8.6-0.9,12.8-1.7c1.6-0.3,3.4,0.3,5-0.3
			c0.4-0.1,0.6,0.2,0.7,0.5c0.6,1.8,0.5,3.6,0.6,5.5c0,0.4-0.3,0.5-0.7,0.5c-1.4,0.2-2.8,0.4-4.3,0.5c-1.5,0.1-1.9,0.5-1.8,1.9
			c0.1,1.8,0.2,3.7,0.4,5.5c0.5,4.8,0.6,9.7,1.5,14.5c0.3,1.9,0,4,0.4,5.9c0.4,2,0.8,4.1,1.1,6.1c0.3,2,0,2.4-2.1,2.5
			C552.3,476.4,551.8,476.4,551.2,476.4z"/>
		<linearGradient id="SVGID_6_" gradientUnits="userSpaceOnUse" x1="276.7907" y1="514.6816" x2="719.0873" y2="420.0902">
			<stop  offset="0" style="stop-color:#382C21"/>
			<stop  offset="0.1209" style="stop-color:#3C2D21"/>
			<stop  offset="0.2535" style="stop-color:#4A311F"/>
			<stop  offset="0.3917" style="stop-color:#60381D"/>
			<stop  offset="0.5329" style="stop-color:#7E411B"/>
			<stop  offset="0.5646" style="stop-color:#86431A"/>
			<stop  offset="0.6292" style="stop-color:#99561E"/>
			<stop  offset="0.7944" style="stop-color:#C48028"/>
			<stop  offset="0.9236" style="stop-color:#DE9A2E"/>
			<stop  offset="1" style="stop-color:#E8A430"/>
		</linearGradient>
		<path class="st6" d="M579.2,461c-0.2,2.2,0.4,4.6,0.4,7.1c0,0.6,0,1.3,0,1.9c0,2.8-1,3.5-3.8,2.7c-0.8-0.2-1.4-0.1-2.1,0
			c-0.9,0.2-1.4-0.2-1.4-1.1c0-3-0.9-5.9-1.1-8.8c-0.4-7.3-1.8-14.4-1.8-21.7c0-2.7,0.3-5.4-0.6-8.1c-0.3-1,0.2-2-0.1-3.1
			c-0.1-0.5,0.4-0.7,0.8-0.7c1,0,2.1,0,3.1,0c0.9,0,1.7,0,2.5-0.5c1-0.6,1.9-0.2,2,1c0.2,2,0.3,4,0.4,6c0.5,7.8,1,15.6,1.5,23.5
			C579.2,459.7,579.2,460.2,579.2,461z"/>
		<linearGradient id="SVGID_7_" gradientUnits="userSpaceOnUse" x1="273.1146" y1="497.4928" x2="715.4113" y2="402.9013">
			<stop  offset="0" style="stop-color:#382C21"/>
			<stop  offset="0.1209" style="stop-color:#3C2D21"/>
			<stop  offset="0.2535" style="stop-color:#4A311F"/>
			<stop  offset="0.3917" style="stop-color:#60381D"/>
			<stop  offset="0.5329" style="stop-color:#7E411B"/>
			<stop  offset="0.5646" style="stop-color:#86431A"/>
			<stop  offset="0.6292" style="stop-color:#99561E"/>
			<stop  offset="0.7944" style="stop-color:#C48028"/>
			<stop  offset="0.9236" style="stop-color:#DE9A2E"/>
			<stop  offset="1" style="stop-color:#E8A430"/>
		</linearGradient>
		<path class="st7" d="M561.3,439.4c-1.2,0-1.5-0.1-1.6-1.3c-0.1-1.5-0.2-3-0.5-4.5c-0.1-0.5,0.1-0.9,0.6-1.1
			c0.4-0.1,0.7-0.3,1.1-0.4c2-0.4,2.4-0.1,2.6,1.9c0.1,1.2,0.2,2.4,0.3,3.5c0.1,1.2,0,1.4-1.2,1.6
			C562.2,439.4,561.7,439.4,561.3,439.4z"/>
		<linearGradient id="SVGID_8_" gradientUnits="userSpaceOnUse" x1="274.3017" y1="503.0433" x2="716.5983" y2="408.4519">
			<stop  offset="0" style="stop-color:#382C21"/>
			<stop  offset="0.1209" style="stop-color:#3C2D21"/>
			<stop  offset="0.2535" style="stop-color:#4A311F"/>
			<stop  offset="0.3917" style="stop-color:#60381D"/>
			<stop  offset="0.5329" style="stop-color:#7E411B"/>
			<stop  offset="0.5646" style="stop-color:#86431A"/>
			<stop  offset="0.6292" style="stop-color:#99561E"/>
			<stop  offset="0.7944" style="stop-color:#C48028"/>
			<stop  offset="0.9236" style="stop-color:#DE9A2E"/>
			<stop  offset="1" style="stop-color:#E8A430"/>
		</linearGradient>
		<path class="st8" d="M439.1,467.5c-1.3-1.9-2.8-3.5-4.9-4.5c-2.3-1.1-4.3-2.8-6.2-4.5c-1.6-1.3-2.4-3.1-2.4-5.3
			c0-1.7,0.6-2.6,2.7-2.4c0.6,0.1,1.3,0.3,1.8,0.5c0.8,0.3,1.3,0.8,1.4,1.8c0.1,0.9,0.2,1.7,0.4,2.6c0.2,0.9,0.4,1.1,1.3,0.8
			c1.1-0.3,2.1-0.6,3.2-0.9c0.8-0.2,1.8,0.4,2.2-0.4c0.3-0.6,0-1.5,0-2.3c-0.1-2.1-0.9-3.9-2.2-5.5c-1.6-1.9-3.7-3.3-6.3-3.4
			c-2-0.1-3.9,0.6-5.6,1.8c-1.1,0.8-2.1,1.7-2.9,2.8c-0.2,0.3-0.4,0.7-0.7,0.5c-0.2-0.1-0.3-0.5-0.3-0.9c-0.1-1-0.2-1.9-0.3-2.9
			c0-0.7-0.4-1-1.1-0.9c-1.1,0.1-2.2,0.2-3.3,0.4c-1,0.1-1.6-0.1-2.3-0.9c-2.3-2.9-5.4-4.7-8.8-6.1c-2.4-1-4.7-2-7.1-2.9
			c-4.6-1.8-9.5-2.7-14.4-3.2c-0.8-0.1-1.4,0.1-2,0.6c-2.7,2.2-5,4.7-6.4,7.9c-1,2.4-2.1,4.8-3,7.3c-0.4,1-0.8,1.6-2,1.6
			c-3.3,0.2-6.7,0.6-10,1c-1.4,0.1-1.4,0.1-1.4,1.6c0.1,5,0.3,9.9,0.5,14.9c0,0.8,0.3,1.4,0.8,1.9c1,1,2,2.1,3,3.1
			c0.7,0.8,0.7,0.9-0.2,1.3c-2,0.9-4.1,1.8-6.1,2.8c-1.9,0.9-3.3,2.4-4.2,4.4c-0.2,0.4-0.4,0.9-0.6,1.3c-0.2,0.7-0.7,1-1.5,0.9
			c-0.7-0.1-1.4-0.1-2.2-0.1c-6.5-0.3-13.1-0.6-20.2-0.9c-1.7,0-4,0-6.4,0c-8-0.1-16,0-23.9,1.1c-7.2,1-14.4,2.2-21.5,3.5
			c-2.4,0.4-4.7,0.9-7.1,1.4c-1.1,0.2-1.2,0.4-1.1,1.4c0.2,2.6,0.5,5.3,0.8,7.9c0.1,0.6,0.2,1.2,0.7,1.7c1.9,2,3,4.5,3.8,7.1
			c1.8,5.6,2.4,11.4,1.9,17.3c-0.2,2.2-0.5,4.5-1.8,6.4c-1,1.3-1.1,2.6-0.9,4c0.1,0.9,0.3,1.9,0.3,2.9c0,0.8,0.4,1.1,1.2,1
			c2.3-0.3,4.6-0.6,6.9-0.9c7.1-0.8,14.1-1.7,21.1-2.9c5.1-0.9,10.1-2.3,14.9-4.4c6.2-2.7,10.9-6.8,14-12.8
			c3.7-7.2,9.4-12.2,16.6-15.7c6.2-3,12.8-4.9,19.7-5.5c6.5-0.6,13-1.3,19.6-2c4-0.4,6.2-2.7,6.5-6.7c0.1-1.4,0.2-2.9,0.3-4.3
			c0.1-1.8,0.1-3.5,0.1-5.3c0-0.5,0.1-0.9,0.8-1c4-0.4,7.8-0.1,11.4,1.7c0.7,0.3,1,0.7,1.1,1.4c0.1,0.6,0.2,1.3,0.3,1.9
			c0.5,5.1-0.4,10-2.6,14.7c-1.5,3.2-3.1,6.3-4.7,9.4c-0.7,1.4-1.2,2.8-1.3,4.3c-0.3,3.8,0.2,7.5,0.4,11.3c0,0.6,0.4,0.8,1,0.8
			c1.2-0.1,2.4-0.3,3.6-0.4c6-0.5,11.9-1.1,17.9-1.6c0.6-0.1,1.3-0.2,1.9-0.3c0.2,0,0.4-0.2,0.5-0.4c0.3-0.8-0.3-2.4-1-3
			c-0.8-0.6-1.7-1.2-2.6-1.7c-0.9-0.6-1.6-1.3-2.2-2.2c-0.6-0.9-0.5-1,0.5-1.5c2.8-1.2,3.4-2.2,2.9-5.2c-0.1-0.9-0.4-1.7-0.6-2.6
			c-0.1-0.5-0.3-0.9-0.4-1.4c-0.3-1.6-0.2-2,1.3-2.6c1.3-0.5,2-1.5,2.5-2.7c0.3-0.7,0.4-1.5,0.5-2.3c0.2-2.3,0.1-4.6-0.1-6.9
			c0-0.2,0-0.6,0.1-0.7c0.3-0.2,0.6,0,0.8,0.3c0.3,0.3,0.6,0.5,0.9,0.8c1.9,1.5,4,2.1,6.4,1c1.2-0.5,2.4-0.8,3.6-1.3
			c3-1.2,4.7-3.7,5.4-6.6C442.8,475.6,441.7,471.3,439.1,467.5z M435.2,479.4c-0.1,0.7-0.4,1.2-1.1,1.4c-0.8,0.2-1.5,0.5-2.3,0.7
			c-0.5,0.2-1,0-1.3-0.4c-1-1-2-2.1-1.9-3.7c0-0.2,0-0.3,0-0.5c0.1-2-0.2-1.7-1.9-1.4c-0.8,0.1-1.6,0.3-2.4,0.4
			c-0.5,0.1-0.9,0-1-0.7c-0.2-3-0.4-6.1-0.5-9.1c0-0.2-0.1-0.5,0.2-0.6c0.2,0,0.5,0.1,0.6,0.2c1.1,0.9,2.3,1.8,3.4,2.7
			c0.9,0.7,1.7,1.5,2.9,1.6c0.3,0,0.7,0.1,0.8,0.5c0.4,1.2,1.5,1.8,2.5,2.5c1.4,0.9,2,2.2,2,3.8c0,0.4,0.1,0.8,0.1,1.4
			C435.2,478.5,435.3,478.9,435.2,479.4z"/>
	</g>
</g>
</svg>
