<svg width="82" height="137" viewBox="0 0 82 137" fill="none" xmlns="http://www.w3.org/2000/svg">
<g clip-path="url(#clip0_574_344)">
<path d="M48.011 1.425C45.812 1.82344 42.165 3.17813 41.6554 3.7625C41.4945 3.975 41.2264 5.80781 41.0655 7.87969L40.7705 11.625H36.5066H32.2695V12.5547V13.4844H52.5431H72.7898L72.7094 12.6078L72.6289 11.7578L68.4455 11.6781L64.262 11.625L63.9671 7.87969C63.8062 5.80781 63.538 3.975 63.3771 3.7625C62.8139 3.125 59.1937 1.82344 56.807 1.39844C53.9644 0.920313 50.8268 0.920313 48.011 1.425Z" fill="#BF2316"/>
<path d="M40.9044 15.2111C40.7167 15.583 40.4485 16.7252 40.2876 17.708C39.2149 24.083 43.8542 30.3783 50.5048 31.5736C56.914 32.6892 63.3769 28.333 64.7446 21.958C65.12 20.2049 64.9323 16.858 64.3691 15.5299L63.9401 14.547H52.5697H41.1994L40.9044 15.2111ZM50.6389 17.283C51.6848 18.0533 50.3439 19.9127 48.7617 19.9127C47.1795 19.9127 45.8387 18.0533 46.8845 17.283C47.1795 17.097 48.0109 16.9377 48.7617 16.9377C49.5126 16.9377 50.3439 17.097 50.6389 17.283ZM58.1208 17.097C58.7644 17.3361 58.6571 18.6111 57.9063 19.3017C57.0481 20.0986 55.7609 20.0986 54.9296 19.3283C54.2055 18.6642 54.0178 17.3361 54.6078 17.1236C55.0905 16.9111 57.6381 16.9111 58.1208 17.097ZM58.818 22.7549C58.818 23.1002 56.8336 24.8002 55.8146 25.3314C54.6614 25.9424 51.6848 26.1283 50.3439 25.7033C49.0031 25.2517 47.2332 24.0564 46.6432 23.2064L46.2141 22.5158H52.5161C55.9755 22.5158 58.818 22.622 58.818 22.7549Z" fill="#BF2316"/>
<path d="M1.64473 35.2924C0.786594 35.7174 0.0893555 36.2221 0.0893555 36.3814C0.0893555 36.5408 1.00113 38.4268 2.12744 40.5518L4.16552 44.4033L3.73645 45.6252L3.28056 46.8471L8.83165 58.933C14.0073 70.1955 14.3559 71.0986 14.3291 72.4533C14.3023 73.6221 14.5436 74.5252 15.67 77.2877L17.0376 80.6877L16.2331 81.4314C15.2945 82.308 14.9727 83.2377 15.2141 84.4861C15.5091 86.0002 17.3862 87.2486 18.8612 86.9299C19.5584 86.7705 19.6388 86.8768 20.202 88.3908C21.3015 91.2596 20.6043 95.0314 18.4589 97.9799C17.8421 98.8299 17.5739 99.4408 17.7349 99.6002C17.8689 99.733 18.9416 100.424 20.0947 101.141L22.2133 102.442L22.9373 101.752C23.9027 100.849 25.1899 98.3783 25.6995 96.4924C26.3431 94.0221 26.2358 90.2502 25.4313 87.1955C25.0559 85.7611 24.7877 84.5393 24.8681 84.4861C24.9218 84.4064 25.2436 84.5127 25.5654 84.6721C26.2626 85.0439 26.2894 85.0439 26.504 83.8221C26.6917 82.8924 26.6381 82.8393 25.4849 82.1752C24.8145 81.7768 24.1441 81.2986 23.9832 81.1127C23.4737 80.5018 23.125 77.0486 23.4468 75.7736C23.6614 74.8971 23.6614 74.2596 23.42 73.2768C23.1519 72.1611 3.9778 35.2924 3.38783 34.708C3.28056 34.6018 2.47606 34.8674 1.64473 35.2924ZM17.4399 65.0158C19.6925 69.2924 21.5428 72.9049 21.5428 73.0377C21.5428 73.1705 21.4088 73.2502 21.221 73.1971C20.8724 73.0643 12.7469 57.9502 12.7201 57.3658C12.6665 56.2502 13.7391 58.0033 17.4399 65.0158ZM18.4321 83.9549C18.8075 84.9377 19.1293 85.7877 19.1293 85.8674C19.1293 86.2393 17.4935 85.9205 16.8767 85.4424C15.9649 84.7252 15.8845 83.1049 16.7426 82.2549C17.413 81.5908 17.5203 81.6705 18.4321 83.9549Z" fill="#BF2316"/>
<path d="M38.4641 35.5316C35.836 36.4613 33.7175 38.1347 31.8672 40.6847C29.3196 44.2175 27.7105 48.3878 26.4233 54.63C25.5116 59.0128 25.592 58.9331 21.8108 60.8191C20.5504 61.43 19.4778 61.9613 19.4241 62.0144C19.3169 62.0675 23.0712 69.2659 23.393 69.5847C23.6612 69.8769 27.2815 68.0972 29.2123 66.7425C32.6717 64.2988 34.093 62.0144 34.817 57.8441C35.3802 54.5769 36.2115 51.4159 36.9892 49.7425L37.5791 48.4144L37.606 60.2613L37.6328 72.1081L35.2193 101.433C32.913 129.536 32.8057 130.785 33.208 132.139C34.9243 137.957 43.1302 138.647 45.7851 133.202C46.4287 131.874 46.536 130.891 48.5472 106.4L50.6121 80.9534H52.543H54.4738L54.6615 82.6003C54.7419 83.53 55.6537 94.5534 56.6727 107.118C57.6918 119.682 58.6036 130.493 58.7108 131.157C59.1399 134.238 61.6607 136.602 64.8519 136.921C68.5258 137.293 71.8243 134.61 72.1461 130.971C72.1997 130.121 71.2343 116.946 69.9739 101.672L67.6677 73.9144L67.7213 61.2972L67.8017 48.68L68.4185 50.2738C69.2767 52.4519 70.2421 56.7816 70.8052 60.8988C71.1539 63.5816 71.2611 66.6097 71.2611 74.4988C71.2879 84.3003 71.3148 84.6456 71.8511 85.3628C73.2724 87.2753 75.3641 87.8066 77.429 86.8238C79.4671 85.8409 79.7889 85.0441 80.0839 80.0503C80.352 75.3488 80.1643 65.6003 79.7352 61.43C78.9576 54.1784 77.3485 48.0159 75.0959 43.6331C73.326 40.2066 70.6175 37.3909 67.8017 36.0363C66.005 35.1597 65.8173 35.1331 62.2507 35.0534C60.2126 35.0003 58.5499 35.0269 58.5499 35.1066C58.5499 35.1863 58.7645 36.5409 59.0058 38.1081C59.6494 42.1722 59.6494 49.2378 59.0326 51.23C58.6036 52.6113 57.3164 54.3909 56.7532 54.3909C56.6459 54.3909 56.19 51.7878 55.761 48.6003C55.3587 45.4394 54.9565 42.5972 54.9028 42.305C54.7956 41.8269 54.5542 41.7738 52.543 41.7738H50.3172L49.459 48.0159C49.0031 51.4425 48.5472 54.3113 48.4668 54.3909C48.1986 54.6566 46.5092 52.5847 46.1874 51.5488C45.651 49.8222 45.5706 42.9691 46.0533 39.0378C46.2946 37.1253 46.4823 35.4253 46.4823 35.2659C46.4823 35.1066 45.3024 35.0003 43.2107 35.0003C40.6363 35.0269 39.5904 35.1331 38.4641 35.5316Z" fill="#BF2316"/>
<path d="M50.3708 35.3194C49.915 36.6475 49.4322 39.0647 49.5931 39.2772C50.2099 40.26 53.1062 40.6053 54.6615 39.8615C55.761 39.3569 55.7878 39.0912 55.1442 36.7006L54.6884 35.0006H52.5966C51.1485 35.0006 50.4513 35.1069 50.3708 35.3194Z" fill="#BF2316"/>
<path d="M10.7089 67.0077C10.4407 67.7515 10.548 68.5483 11.0575 69.7171C11.5134 70.6733 12.8006 71.9218 13.0688 71.6296C13.1224 71.5765 12.6397 70.4077 12.0229 69.053C11.2452 67.353 10.843 66.7155 10.7089 67.0077Z" fill="#BF2316"/>
</g>
<defs>
<clipPath id="clip0_574_344">
<rect width="82" height="135.211" fill="white" transform="translate(0 0.814453)"/>
</clipPath>
</defs>
</svg>
