<svg width="150" height="150" viewBox="0 0 150 150" fill="none" xmlns="http://www.w3.org/2000/svg">
<path d="M70.7876 1.38367C68.7951 1.78217 65.793 2.84483 64.7304 3.53556C64.1725 3.88093 64.0662 4.2263 63.9068 6.00626C63.8271 7.12206 63.6677 8.84889 63.588 9.83185L63.402 11.6384H59.3374H55.2461V12.5682V13.498H75.1711H95.096V12.5682V11.6384H91.0048C86.2493 11.6384 86.7275 12.0103 86.4619 8.05189C86.1962 3.64183 86.2759 3.85436 84.2568 2.89796C83.2739 2.4729 81.7064 1.915 80.7501 1.6759C78.3325 1.09143 73.0989 0.932034 70.7876 1.38367Z" fill="#BF2316"/>
<path d="M25.6245 12.5153C25.1463 12.8872 25.1463 13.0201 25.4385 13.8171C25.5979 14.3218 25.7573 14.8797 25.7573 15.0391C25.7573 15.5439 24.243 15.4111 20.8691 14.5609C17.3091 13.6842 15.6354 13.5514 15.0244 14.1624C14.1477 15.0391 14.9713 15.9424 19.7001 19.3695C23.3663 22.0262 24.4821 23.142 24.8009 24.4437C25.0666 25.6127 24.4556 26.4362 21.9317 28.2959C16.645 32.148 11.7833 36.8238 10.1627 39.5601C9.68451 40.3571 9.12661 41.712 8.88751 42.5887C8.17022 45.3517 8.46245 50.8244 9.63138 56.3237L10.0033 58.1036L8.99378 59.4851C7.74515 61.1057 7.69202 61.9027 8.72812 62.9388C9.97675 64.1608 11.2519 63.8952 12.6068 62.0886C13.0319 61.5042 13.5101 61.1057 13.6695 61.1588C17.9202 63.0982 20.9753 63.7358 25.8902 63.7358C31.0175 63.7623 35.6932 62.8591 38.8812 61.2651L39.9173 60.7337L41.1394 61.9292C41.8036 62.5668 42.574 63.1779 42.8397 63.2576C43.6101 63.5498 45.0181 62.8059 45.39 61.9292C45.7885 60.9463 45.4963 60.0961 44.2211 58.6881L43.2647 57.6254L44.0352 55.4204C45.8948 50.1868 46.2933 45.3517 45.2041 41.7917C43.8226 37.2488 39.7845 33.2638 32.6115 29.332C30.3533 28.1099 28.2546 26.4362 28.0686 25.7455C27.9889 25.4001 28.228 24.55 28.7062 23.6202C29.2907 22.4247 30.0345 21.5745 31.9473 19.954C35.5338 16.8457 36.1183 15.3845 34.2055 14.1093C31.9739 12.6481 26.7668 11.6652 25.6245 12.5153ZM27.617 36.8503C27.617 37.5411 27.7232 37.6208 28.7062 37.7802C29.9017 37.9661 31.8676 38.8694 31.8676 39.2413C31.8676 39.3742 31.416 39.7461 30.8847 40.118C29.8751 40.7556 29.8751 40.7822 29.0781 40.2774C27.9623 39.6133 25.7839 39.6398 25.0135 40.3306C23.7648 41.4995 24.6415 42.8544 27.4841 44.1562C30.0345 45.3517 31.7614 46.5472 32.2661 47.5036C32.9303 48.7787 32.7709 50.5056 31.9473 51.5151C31.1769 52.4184 29.4501 53.3216 28.4937 53.3482C27.9623 53.3482 27.8826 53.481 27.8826 54.278C27.8826 55.1282 27.8295 55.2079 27.1122 55.2079C26.4215 55.2079 26.3152 55.1016 26.2355 54.3577C26.1558 53.5873 26.0496 53.5076 24.7744 53.2154C23.6054 52.9497 21.241 51.7276 21.241 51.3823C21.241 51.3291 21.7192 50.9838 22.3037 50.5853L23.3663 49.868L24.5884 50.5853C26.634 51.7808 28.9984 51.462 29.3704 49.9742C29.6892 48.7256 28.9984 48.0349 25.8902 46.3878C21.8786 44.2624 20.9488 43.1732 21.3738 40.9416C21.6129 39.693 22.6756 38.6303 24.3759 38.0458C25.4385 37.6473 25.7573 37.4348 25.7573 36.9832C25.7573 36.2393 25.9699 36.0799 26.8731 36.0799C27.5107 36.0799 27.617 36.1862 27.617 36.8503Z" fill="#BF2316"/>
<path d="M122.115 12.5413C121.583 13.0992 121.583 12.9663 122.061 14.1087C122.274 14.6135 122.354 15.0917 122.274 15.1979C121.955 15.5167 120.574 15.3573 117.359 14.5603C112.922 13.4711 111.302 13.4977 111.302 14.6666C111.302 15.6496 111.993 16.3137 115.818 19.0767C117.837 20.5378 119.856 22.1584 120.281 22.6366C121.982 24.576 121.583 26.0902 118.953 27.8702C116.536 29.5173 111.408 33.8743 109.389 36.0262C107.609 37.9124 106.095 40.1971 105.484 41.924C104.66 44.2884 104.873 50.319 105.989 55.7917L106.493 58.2093L105.537 59.3782C104.288 60.8925 104.209 62.1412 105.298 63.071C106.52 64.1337 107.955 63.7352 109.177 62.0083C109.549 61.477 109.974 61.1051 110.106 61.1848C114.968 63.2304 117.359 63.7352 122.194 63.7617C127.348 63.7617 131.36 63.0444 134.946 61.4239L136.487 60.7331L137.576 61.9286C138.187 62.5928 138.984 63.2038 139.356 63.2835C140.791 63.6555 142.358 62.0615 142.013 60.6269C141.907 60.2549 141.349 59.4314 140.764 58.7938L139.702 57.6514L140.605 55.0213C141.827 51.5145 142.252 49.2032 142.225 46.0418C142.225 42.8007 141.747 41.0738 140.233 38.736C137.948 35.176 134.973 32.6256 129.845 29.7564C126.073 27.6577 124.585 26.4356 124.585 25.3995C124.585 24.204 125.515 22.6632 127.189 21.1223C131.014 17.6155 131.758 16.7654 131.758 15.7824C131.758 14.9854 131.599 14.7197 130.749 14.1618C129.261 13.1789 126.79 12.4084 124.585 12.249C122.912 12.1162 122.486 12.1693 122.115 12.5413ZM124.054 36.8763C124.054 37.567 124.16 37.6733 124.798 37.6733C125.196 37.6733 126.232 38.0187 127.109 38.4172L128.676 39.161L127.508 39.9846L126.312 40.7816L125.515 40.3034C124.32 39.5595 122.354 39.6392 121.53 40.4628C121.158 40.8082 120.866 41.2864 120.866 41.4989C120.866 42.2693 122.088 43.2523 124.32 44.3415C128.119 46.1746 129.102 47.2107 129.102 49.3626C129.102 51.4082 128.145 52.4443 125.515 53.2148C124.612 53.4804 124.452 53.6398 124.373 54.3837C124.293 55.101 124.187 55.2073 123.496 55.2073C122.805 55.2073 122.726 55.1276 122.726 54.4103C122.726 53.9586 122.566 53.5601 122.407 53.507C120.122 52.896 119.006 52.4443 118.369 51.9396L117.625 51.3285L118.714 50.6112L119.803 49.8674L121.025 50.5847C123.071 51.7802 125.435 51.4614 125.807 49.9736C126.126 48.725 125.435 48.0077 122.354 46.3871C119.086 44.6869 118.342 44.0759 117.917 42.8007C117.253 40.7816 118.422 38.8954 120.892 38.0187C121.902 37.6467 122.194 37.4076 122.194 36.9826C122.194 36.2387 122.407 36.0793 123.31 36.0793C123.948 36.0793 124.054 36.1856 124.054 36.8763Z" fill="#BF2316"/>
<path d="M63.3226 16.0478C63.0038 17.137 62.9241 18.2794 63.0038 20.139C63.0835 22.4769 63.1898 22.902 64.0931 24.7085C66.5372 29.703 71.8505 32.5191 77.0842 31.6158C81.1488 30.8985 84.4431 28.4278 86.2496 24.6819C87.1263 22.8754 87.2592 22.3972 87.3389 20.1125C87.4186 18.2528 87.3389 17.137 87.0201 16.0478L86.5684 14.56H75.1714H63.7743L63.3226 16.0478ZM73.2586 17.2698C73.7102 17.7215 73.6571 18.3856 73.046 19.1295C72.0365 20.4578 69.9909 20.1125 69.3267 18.545C69.0079 17.7746 69.0079 17.6418 69.4595 17.323C70.0706 16.8713 72.8335 16.8448 73.2586 17.2698ZM80.8832 17.323C81.3348 17.6418 81.3348 17.7746 81.016 18.545C80.3518 20.1125 78.3062 20.4578 77.2967 19.1295C76.6857 18.3856 76.6325 17.7215 77.0842 17.2698C77.5092 16.8448 80.2721 16.8713 80.8832 17.323ZM80.6175 23.6193C79.1032 25.2133 77.2967 25.9837 75.1714 25.9837C73.046 25.9837 71.2395 25.2133 69.7252 23.6193L68.6891 22.53H75.1714H81.6536L80.6175 23.6193Z" fill="#BF2316"/>
<path d="M127.693 22.3179C126.923 23.0884 126.153 24.0979 125.967 24.5761C125.701 25.4262 125.728 25.4528 127.029 26.5155C127.773 27.0999 128.464 27.5781 128.57 27.5781C128.809 27.5781 129.766 26.4889 130.138 25.7982C130.749 24.6292 130.27 21.6272 129.394 21.0959C129.234 20.9896 128.464 21.5209 127.693 22.3179Z" fill="#BF2316"/>
<path d="M20.1781 22.2383C19.4608 23.5932 20.2844 27.0469 21.3205 27.0469C21.9049 27.0469 23.6318 25.4263 23.6318 24.8684C23.6318 24.2839 21.2673 21.7336 20.7626 21.7336C20.6032 21.7336 20.3375 21.9727 20.1781 22.2383Z" fill="#BF2316"/>
<path d="M30.6191 22.8492C30.3268 23.1945 29.8486 23.8853 29.6095 24.39L29.1313 25.2933L30.2737 26.2763C30.9113 26.8342 32.6647 27.95 34.179 28.7735C37.4998 30.5801 40.6878 32.9179 42.3615 34.8307L43.6102 36.2122L51.8989 39.4002L60.1612 42.6147L60.2409 57.7577L60.294 72.9007L58.0358 100.61C56.7872 115.832 55.7777 129.169 55.7777 130.205C55.7777 131.772 55.9105 132.357 56.5215 133.446C59.1516 138.255 65.9527 138.175 68.4234 133.26C69.061 132.011 69.1407 131.028 71.0535 107.331C72.1693 93.7821 73.1257 82.3053 73.2054 81.8271L73.3382 80.9769H75.1713H77.0044L77.1372 81.8271C77.2169 82.3053 78.1733 93.7555 79.2626 107.278C80.6972 124.945 81.3613 132.118 81.6536 132.808C83.0085 136.023 86.7012 137.75 89.9423 136.661C92.8381 135.704 94.5649 133.287 94.5649 130.152C94.5649 129.195 93.5554 115.965 92.3068 100.743L90.0486 73.0335L90.1017 57.8109L90.1814 42.5882L98.8687 39.2673L107.529 35.92L109.363 34.2197C111.833 31.8818 115.632 28.6673 117.412 27.4452C119.484 26.0106 120.069 25.4261 120.069 24.8948C120.069 24.3635 118.581 22.5304 118.156 22.5304C118.023 22.5304 110.611 25.3464 101.685 28.7735L85.4791 35.0167H83.2476H81.0425L81.1488 35.734C81.9989 40.5957 82.3177 46.9717 81.8395 49.7346C81.4676 51.8334 80.7503 53.4008 79.9002 54.0118C79.3423 54.3838 79.2626 54.3838 79.1032 53.9587C79.0235 53.693 78.625 51.0364 78.2265 48.0343C77.828 45.0323 77.4826 42.4022 77.4029 42.1897C77.3232 41.8709 76.8716 41.7912 75.1182 41.8443L72.9397 41.8709L72.0896 48.0343C71.6379 51.4083 71.1863 54.2244 71.1332 54.2775C70.8941 54.5432 69.8314 53.5336 69.3532 52.6038C68.5828 51.0629 68.264 49.0704 68.264 45.6965C68.264 42.907 68.8484 36.6904 69.2204 35.4683C69.3532 35.0698 69.1407 35.0167 67.1216 35.0167H64.89L48.3124 28.6407C39.2001 25.1339 31.602 22.2647 31.4426 22.2647C31.2832 22.2647 30.9113 22.5304 30.6191 22.8492Z" fill="#BF2316"/>
<path d="M72.7802 36.1326C72.6208 36.7702 72.3817 37.6734 72.2489 38.1782C72.1161 38.6829 72.0629 39.1611 72.1161 39.2674C72.4083 39.719 74.1351 40.3301 75.1712 40.3301C76.2073 40.3301 77.9342 39.719 78.2264 39.2674C78.2795 39.1611 78.0936 38.1782 77.8013 37.0624L77.2434 35.0168H75.1447H73.0725L72.7802 36.1326Z" fill="#BF2316"/>
</svg>
