<svg width="119" height="129" viewBox="0 0 119 129" fill="none" xmlns="http://www.w3.org/2000/svg">
<g clip-path="url(#clip0_574_323)">
<path d="M33.2002 1.25044C28.8252 2.00044 24.3252 4.25044 21.3002 7.25044C18.9502 9.55044 19.0002 9.25045 20.3752 13.1504C21.0252 15.0254 21.4502 16.6254 21.3502 16.7504C21.2252 16.8504 19.6752 17.6004 17.8752 18.4004C16.1002 19.2004 14.5752 19.8754 14.5252 19.9254C14.3252 20.0754 15.2502 21.7754 15.4502 21.6754C15.5502 21.6004 22.7752 18.3754 31.5002 14.5004C40.2252 10.6004 47.9752 7.17544 48.7002 6.85044L50.0252 6.25044L49.6002 5.45044C49.3752 5.00044 49.1752 4.60044 49.1252 4.55044C49.1002 4.52544 47.5752 5.17544 45.7502 6.00044C43.9252 6.82544 42.3002 7.50044 42.1502 7.50044C41.9752 7.50044 41.1002 6.10044 40.1752 4.40044C39.2502 2.70044 38.3002 1.22544 38.1002 1.15044C37.5752 0.950443 34.6502 1.00044 33.2002 1.25044Z" fill="#BF2316"/>
<path d="M32.4002 15.3756C27.0752 17.7756 22.6252 19.7756 22.5502 19.8506C22.2752 20.1506 23.0502 22.9756 23.8752 24.6506C26.0502 29.1006 31.1002 31.7506 35.9502 31.0006C39.2502 30.4756 42.2002 28.6256 44.0002 25.9506C46.7002 21.9006 46.6752 16.7256 43.9002 12.7006C43.3252 11.8256 42.6752 11.1006 42.4752 11.0756C42.2752 11.0506 37.7502 12.9756 32.4002 15.3756ZM41.5002 16.2256C42.4752 18.0506 40.6252 20.1506 38.6502 19.5006C36.8252 18.9006 36.9502 17.7506 38.9502 16.4756C40.2752 15.6256 41.1252 15.5506 41.5002 16.2256ZM33.7502 18.8256C34.6252 19.2756 34.5252 20.4006 33.5002 21.3006C32.1252 22.5756 30.1502 22.0756 29.4752 20.3006C29.1752 19.5006 29.3252 19.0506 30.0502 18.7506C30.9002 18.4256 33.0252 18.4506 33.7502 18.8256ZM43.0002 22.4506C43.0002 22.7756 41.5002 25.0756 40.7752 25.8256C39.3752 27.3506 37.2252 27.8756 35.2252 27.2006C34.7502 27.0506 33.7502 26.5256 33.0002 26.0256L31.6252 25.1256L33.9502 24.9506C37.0002 24.7506 39.2752 24.1756 41.1252 23.1506C42.7502 22.2256 43.0002 22.1506 43.0002 22.4506Z" fill="#BF2316"/>
<path d="M22.0751 34.226C17.2001 35.901 13.7251 41.576 11.1251 52.051C10.0751 56.276 9.85012 58.151 10.2251 59.301C10.5251 60.176 11.4501 61.226 12.4001 61.701C13.2001 62.126 33.4001 65.751 34.9001 65.751C36.5501 65.751 37.6751 65.026 38.4751 63.426C38.9501 62.476 39.0251 62.026 38.8751 61.101C38.7001 59.801 37.5501 58.351 36.3751 57.876C35.9751 57.701 31.9251 56.901 27.4251 56.101L19.2001 54.626L19.3501 53.676C19.8001 50.901 22.6501 43.751 23.3251 43.751C24.2001 43.776 24.2501 44.176 23.5001 45.526C22.0501 48.226 21.4751 50.151 21.5501 52.076L21.6251 53.851L24.7251 54.401L27.8001 54.976L29.6001 54.376C30.5751 54.051 31.2751 53.776 31.1501 53.776C31.0251 53.751 31.0751 53.601 31.2251 53.401C31.4501 53.151 31.3501 52.901 30.8001 52.301C29.6001 51.026 29.1501 48.951 29.1751 44.751C29.1751 41.626 29.7001 36.151 30.1751 34.326L30.3001 33.751H26.8501C24.1751 33.776 23.0751 33.876 22.0751 34.226Z" fill="#BF2316"/>
<path d="M41.3503 34.601C42.1503 38.876 42.5253 46.901 42.0253 49.051C41.9003 49.576 41.8503 50.001 41.9003 50.001C41.9253 50.001 42.6253 49.826 43.4253 49.626C44.5003 49.351 46.3503 49.251 50.9503 49.251C56.6503 49.251 57.0503 49.226 56.9253 48.801C56.6253 47.726 48.7503 34.876 48.1003 34.401C47.5003 33.951 46.9503 33.876 44.2753 33.801L41.1753 33.701L41.3503 34.601Z" fill="#BF2316"/>
<path d="M33.5 35.551C33.35 36.151 33.125 37.026 32.975 37.501C32.65 38.751 32.65 38.726 33.825 39.251C35.175 39.876 36.35 39.876 37.7 39.251C38.525 38.876 38.75 38.651 38.65 38.326C38.575 38.076 38.325 37.126 38.1 36.176L37.7 34.501H35.725H33.775L33.5 35.551Z" fill="#BF2316"/>
<path d="M100.625 42.9258C98.2999 44.2258 96.2749 45.3508 96.0999 45.4258C95.8999 45.5008 95.8749 45.1508 96.0499 44.1008C96.1749 43.3008 96.2249 42.5008 96.1999 42.2758C96.1499 42.0758 94.6999 43.6008 92.6749 45.9758C88.4499 50.9758 88.2999 51.3258 91.3249 49.3008C92.3249 48.6258 93.2749 48.0008 93.4749 47.8758C93.7499 47.7258 93.7749 47.9258 93.6249 49.1258L93.4499 50.5758L94.2999 50.0758C94.7499 49.8008 96.3249 48.8258 97.8249 47.9258C99.2999 47.0008 100.5 46.3758 100.5 46.5008C100.5 46.6508 100.325 47.1758 100.125 47.6758C99.9249 48.1758 99.7749 48.6258 99.8249 48.6758C99.8749 48.7008 101.075 48.4258 102.475 48.0258C105.275 47.2508 105.225 47.1758 103.575 49.2008L102.75 50.2008L104.7 50.3508C108.625 50.7008 108.625 50.7008 106.025 51.7008L103.725 52.5758L105.425 54.3008C106.775 55.7008 107 56.0008 106.5 55.9008C106.15 55.8008 105.025 55.5258 104 55.2758C102.975 55.0258 102.1 54.8508 102.05 54.9008C102 54.9258 102.375 55.8258 102.875 56.9258C104.25 59.8258 104.55 60.5508 104.325 60.4258C102.875 59.6008 95.9999 56.0008 95.8749 56.0008C95.7749 56.0008 95.7499 56.6758 95.7999 57.5008C95.8499 58.3258 95.8749 59.0008 95.8249 59.0008C95.7999 59.0008 94.3249 57.8758 92.5749 56.5008L89.3749 53.9758L89.2999 54.8508C89.2249 55.6758 89.4999 56.0508 93.0499 60.1008L96.8749 64.4758L97.0249 63.5508C97.1249 63.0508 97.2749 61.8758 97.3749 60.9258C97.4499 60.0008 97.6499 59.2508 97.7749 59.2508C97.8999 59.2508 100.15 60.4758 102.8 61.9508C105.45 63.4508 107.9 64.8008 108.225 64.9758C108.825 65.3008 108.4 64.4258 105.7 59.5508L104.975 58.2508H105.8C106.25 58.2758 108.325 58.4758 110.375 58.7258C112.45 58.9758 114.15 59.1508 114.2 59.1258C114.225 59.1008 112.8 57.9258 111 56.5258C109.225 55.1258 107.7 53.9008 107.65 53.7758C107.575 53.6508 109.925 52.9258 112.875 52.1258C115.825 51.3258 118.25 50.6008 118.25 50.5008C118.25 50.4258 115.7 50.0758 112.575 49.7508L106.925 49.1758L110.2 45.9258C112.025 44.1508 113.5 42.6758 113.5 42.6508C113.5 42.6008 111.275 43.1758 108.575 43.8758C105.85 44.6008 103.6 45.1008 103.55 45.0008C103.525 44.9008 103.825 43.9008 104.25 42.7508C104.675 41.6258 104.975 40.6508 104.925 40.6008C104.9 40.5508 102.95 41.6008 100.625 42.9258Z" fill="#BF2316"/>
<path d="M32.825 46.751C32.4 49.851 32.1 52.426 32.15 52.476C32.2 52.526 32.725 52.151 33.35 51.651C33.95 51.151 34.525 50.751 34.6 50.751C34.675 50.751 35.375 51.151 36.125 51.651C37.425 52.476 37.6 52.501 38.375 52.251C39.425 51.901 39.425 52.301 38.55 46.026L37.875 41.201L35.725 41.151L33.575 41.126L32.825 46.751Z" fill="#BF2316"/>
<path d="M44.9 50.5256C44.1 50.6506 43.2 50.9256 42.9 51.1256C42.6 51.3506 42 51.8006 41.525 52.1256C41.075 52.4756 39.95 52.9756 39.025 53.2756L37.35 53.8256L36.1 53.0256C35.4 52.6006 34.725 52.2506 34.625 52.2506C34.525 52.2506 34.125 52.5256 33.725 52.8506L33 53.4756L33.7 53.9756C34.475 54.5256 34.475 54.5256 32 55.0506L30.375 55.4006L33.375 55.9756C35.025 56.2756 36.75 56.7006 37.2 56.9256C38.3 57.4506 39.7 59.1256 39.9 60.1756C40.075 61.1506 40.5 61.0256 40.5 59.9756C40.5 59.4506 40.625 59.2506 40.95 59.2506C41.175 59.2506 42.8 59.1006 44.525 58.9006C47.05 58.6506 47.875 58.4506 48.775 57.9256C49.875 57.3006 50 57.3006 62.25 56.6256C69.05 56.2756 74.85 55.9256 75.15 55.8756C75.45 55.8006 75.95 55.3756 76.275 54.8756L76.875 54.0006H81.325H85.75V52.1256V50.2506L66.075 50.2756C55.225 50.3006 45.7 50.4006 44.9 50.5256ZM62.5 52.3756C62.5 52.7006 61.375 52.7506 53.875 52.7506C46.375 52.7506 45.25 52.7006 45.25 52.3756C45.25 52.0506 46.375 52.0006 53.875 52.0006C61.375 52.0006 62.5 52.0506 62.5 52.3756Z" fill="#BF2316"/>
<path d="M65.2503 57.6504C62.5753 57.8254 59.7753 57.9754 59.0253 57.9754C58.2753 58.0004 57.7253 58.0504 57.8003 58.1254C57.8503 58.2004 60.4253 59.0004 63.5253 59.9004C69.7003 61.7254 70.7503 61.8254 72.2503 60.7504C73.0503 60.1754 73.9753 58.5504 74.0003 57.6754C74.0003 57.1504 72.7503 57.1504 65.2503 57.6504Z" fill="#BF2316"/>
<path d="M48.8251 59.2756C48.2251 59.6506 47.2751 59.8506 44.9001 60.0506C42.0501 60.3006 41.7501 60.3756 41.6001 60.8506C41.5001 61.1506 41.1251 61.8256 40.7251 62.3756C40.3251 62.9256 39.6251 63.9256 39.1751 64.6006C38.1501 66.1756 36.6751 67.0006 34.9001 67.0006C34.2001 67.0006 32.1251 66.7256 30.2751 66.3756C28.4501 66.0256 26.8501 65.8006 26.7501 65.8756C26.6501 65.9256 26.3001 66.6756 26.0001 67.5006C25.7001 68.3256 25.4001 69.0006 25.3251 69.0006C25.2751 69.0006 24.4501 68.5506 23.5251 68.0006C22.6001 67.4506 21.7751 67.0006 21.6751 67.0006C21.5751 67.0006 21.5001 68.0506 21.5001 69.3506V71.6756L20.3001 73.2756C16.0751 78.8756 13.0251 84.7506 11.7501 89.7256C10.8501 93.2506 10.0501 101.426 9.50011 112.751C9.07511 121.576 9.07511 123.726 9.60011 124.876C10.1251 126.126 11.3251 127.376 12.6251 128.076C13.3751 128.476 14.0751 128.601 15.3751 128.601C17.3751 128.601 18.6001 128.101 19.9251 126.701C21.4001 125.151 21.5251 124.551 21.9001 116.501C22.5251 102.626 23.3001 94.6006 24.2501 91.7256C25.4251 88.1756 28.5251 82.9006 31.6001 79.1756L33.0001 77.5006H35.5251H38.0501L50.1501 101.876C63.3751 128.476 62.9751 127.776 65.5501 128.651C69.8251 130.076 74.0251 126.751 73.7001 122.226C73.6001 120.801 72.8251 119.176 61.8001 97.1006L50.0001 73.5006V66.1256C50.0001 62.0756 49.9251 58.7506 49.8251 58.7506C49.7001 58.7506 49.2751 59.0006 48.8251 59.2756Z" fill="#BF2316"/>
<path d="M20.25 64.601C20.25 64.701 23.1 66.401 24.175 66.976C24.675 67.226 24.775 67.176 25.125 66.476C25.35 66.051 25.475 65.651 25.4 65.576C25.35 65.501 24.45 65.301 23.45 65.101C22.45 64.926 21.325 64.701 20.95 64.651C20.55 64.576 20.25 64.551 20.25 64.601Z" fill="#BF2316"/>
</g>
<defs>
<clipPath id="clip0_574_323">
<rect width="119" height="127.257" fill="white" transform="translate(0 0.814453)"/>
</clipPath>
</defs>
</svg>
