<svg width="126" height="126" viewBox="0 0 126 126" fill="none" xmlns="http://www.w3.org/2000/svg">
<path d="M31.8161 38.4085C31.3116 38.1965 30.7974 38.0085 30.2751 37.845C29.889 37.7278 29.4925 37.6156 29.0808 37.5246C28.666 37.4324 28.2475 37.3576 27.8265 37.3001C27.4069 37.2462 26.9847 37.2149 26.5618 37.2064H25.9439C25.7406 37.2064 25.5398 37.2297 25.3441 37.2482C24.9703 37.2851 24.5993 37.346 24.2333 37.4306C23.9102 37.5036 23.5923 37.5977 23.2816 37.7123C22.9922 37.8088 22.7417 37.9338 22.5202 38.0303C22.2987 38.1268 22.1186 38.2414 21.9699 38.3276L21.5161 38.617L22.0379 38.5075C22.2047 38.4789 22.408 38.4553 22.6349 38.424C22.8618 38.3928 23.1224 38.3849 23.4172 38.3955C23.7146 38.3967 24.0117 38.4176 24.3063 38.458C24.63 38.5006 24.9506 38.5641 25.2661 38.6482C25.4275 38.6925 25.5919 38.7344 25.7561 38.7944C25.9205 38.8542 26.0822 38.9064 26.2463 38.974C26.573 39.1046 26.8925 39.2527 27.2034 39.4175C27.5134 39.5871 27.8186 39.7645 28.1055 39.9572C28.3922 40.1504 28.6273 40.3145 28.8618 40.4971C29.6891 39.6013 30.6957 38.8897 31.8161 38.4085ZM102.507 48.1398C102.507 48.6239 102.314 49.0882 101.972 49.4305C101.63 49.7728 101.165 49.9651 100.681 49.9651H75.0049V45.7931H102.507V48.1398ZM24.4865 51.0314C14.45 57.6833 5.48534 78.854 6.47365 92.9897H30.7237C30.7237 92.9897 26.3169 75.4225 32.3664 69.639C32.4604 69.5505 32.5593 69.4668 32.6612 69.3782C35.3599 64.5831 35.4121 60.1344 32.7523 56.4265C30.3873 53.1227 26.6482 51.4015 24.4865 51.0314ZM21.2791 84.8668C21.2792 85.4857 21.0957 86.0907 20.7519 86.6053C20.4081 87.1199 19.9194 87.521 19.3477 87.7579C18.7759 87.9948 18.1468 88.0568 17.5398 87.9361C16.9328 87.8154 16.3752 87.5174 15.9376 87.0798C15.4999 86.6422 15.2019 86.0846 15.0811 85.4776C14.9604 84.8706 15.0223 84.2415 15.2591 83.6697C15.496 83.0979 15.897 82.6092 16.4116 82.2654C16.9262 81.9215 17.5312 81.738 18.1501 81.738C18.9799 81.738 19.7758 82.0677 20.3627 82.6545C20.9495 83.2413 21.2791 84.037 21.2791 84.8668ZM118.697 33.0447C118.801 33.0108 118.911 33.0022 119.019 33.0193C119.127 33.0365 119.23 33.079 119.318 33.1433C119.406 33.2077 119.478 33.2921 119.527 33.3896C119.577 33.4871 119.602 33.5949 119.602 33.7042V41.621H75.0127V35.3811H111.458L118.697 33.0447ZM30.5618 48.9507H30.5227C32.7251 50.224 34.6387 51.9413 36.142 53.9936C39.6673 58.9012 39.2866 63.9415 37.8865 67.9181C39.211 67.9728 40.3637 68.3352 40.8955 69.0054C42.1789 70.6422 43.8176 71.9658 45.6878 72.8761C47.558 73.7863 49.6107 74.2594 51.6907 74.2595C57.4092 74.2595 62.8171 70.6559 63.623 64.0458C64.6704 63.8413 65.6413 63.3523 66.4291 62.6324C67.217 61.9126 67.7915 60.9898 68.0896 59.9651L70.8353 50.536V33.5871H38.8616V35.368H36.142V41.7278C29.3623 41.7409 30.5515 48.9507 30.5515 48.9507H30.5618ZM62.6372 39.4724C62.6371 40.0256 62.4173 40.5561 62.0262 40.9473C61.635 41.3384 61.1045 41.5582 60.5513 41.5583H46.8773C46.328 41.5523 45.8032 41.3299 45.4169 40.9394C45.0305 40.5488 44.8138 40.0216 44.8138 39.4723C44.8138 38.9229 45.0305 38.3957 45.4169 38.0052C45.8032 37.6146 46.328 37.3922 46.8773 37.3863H60.5513C61.1045 37.3863 61.6351 37.6061 62.0262 37.9974C62.4174 38.3886 62.6372 38.9192 62.6372 39.4724ZM62.6372 45.4697C62.6371 46.0229 62.4173 46.5534 62.0262 46.9446C61.635 47.3357 61.1045 47.5555 60.5513 47.5556H46.8773C46.328 47.5496 45.8032 47.3272 45.4169 46.9367C45.0305 46.5461 44.8138 46.0189 44.8138 45.4696C44.8138 44.9202 45.0305 44.393 45.4169 44.0025C45.8032 43.6119 46.328 43.3895 46.8773 43.3836H60.5513C61.1045 43.3836 61.6351 43.6034 62.0262 43.9947C62.4174 44.3859 62.6372 44.9165 62.6372 45.4697ZM60.5513 53.4227H46.8773C46.6015 53.4257 46.3278 53.374 46.0721 53.2705C45.8164 53.167 45.5837 53.0138 45.3876 52.8198C45.1915 52.6258 45.0358 52.3948 44.9295 52.1403C44.8232 51.8857 44.7685 51.6126 44.7685 51.3367C44.7685 51.0608 44.8232 50.7877 44.9295 50.5331C45.0358 50.2786 45.1915 50.0476 45.3876 49.8536C45.5837 49.6596 45.8164 49.5064 46.0721 49.4029C46.3278 49.2994 46.6015 49.2477 46.8773 49.2507H60.5513C61.1006 49.2566 61.6254 49.479 62.0117 49.8696C62.3981 50.2602 62.6148 50.7873 62.6148 51.3367C62.6148 51.886 62.3981 52.4132 62.0117 52.8038C61.6254 53.1943 61.1006 53.4167 60.5513 53.4227ZM43.0599 64.1135C43.0599 60.6377 45.1458 60.3431 48.1705 60.4344C48.2358 60.7499 48.3089 61.0757 48.3974 61.4097C48.5043 61.798 48.6189 62.1918 48.7624 62.5909C48.9059 62.9896 49.0651 63.373 49.2398 63.7722C49.4177 64.1563 49.6161 64.5305 49.8341 64.8934C49.9385 65.073 50.0507 65.2453 50.1678 65.4149C50.2852 65.5842 50.4026 65.7434 50.5227 65.8997C50.7529 66.1971 51.0019 66.4794 51.2684 66.7447C51.5023 66.9799 51.7514 67.1993 52.014 67.4018C52.2488 67.5947 52.4888 67.7407 52.6869 67.8763C52.885 68.0119 53.0806 68.1056 53.2317 68.1839L53.7195 68.416L53.3491 68.0328C53.2371 67.9075 53.1067 67.7486 52.9608 67.5711C52.7982 67.3721 52.6533 67.1592 52.5276 66.935C52.3707 66.6837 52.2305 66.4224 52.108 66.1526C51.9718 65.8555 51.8551 65.5497 51.7586 65.2374C51.7091 65.0757 51.6594 64.914 51.623 64.7447C51.5866 64.5749 51.542 64.4083 51.5135 64.223C51.4506 63.878 51.4063 63.5298 51.3806 63.1801C51.356 62.833 51.3481 62.485 51.357 62.1371C51.3673 61.798 51.3882 61.4513 51.4195 61.1227C51.4404 60.9271 51.4638 60.7396 51.4901 60.5543H51.7768C56.5904 60.5543 60.4912 59.373 60.4912 64.1162C60.4905 66.4278 59.5716 68.6444 57.9366 70.2784C56.3016 71.9125 54.0844 72.8301 51.7729 72.8294C49.4613 72.8287 47.2447 71.9098 45.6106 70.2748C43.9766 68.6398 43.059 66.4226 43.0597 64.1111L43.0599 64.1135Z" fill="#971D12"/>
</svg>
