<svg width="178" height="178" viewBox="0 0 178 178" fill="none" xmlns="http://www.w3.org/2000/svg">
<g clip-path="url(#clip0_1337_457)">
<path d="M128.019 96.4055C128.51 96.6472 128.989 96.9119 129.455 97.1988C129.797 97.4134 130.142 97.639 130.48 97.89C130.822 98.1426 131.153 98.4093 131.473 98.6893C131.789 98.9707 132.089 99.2688 132.373 99.5824L132.778 100.049C132.912 100.202 133.026 100.369 133.14 100.529C133.358 100.835 133.555 101.155 133.731 101.487C133.888 101.779 134.026 102.08 134.143 102.39C134.26 102.672 134.33 102.943 134.403 103.173C134.475 103.404 134.507 103.615 134.539 103.783L134.619 104.316L134.359 103.85C134.271 103.706 134.156 103.537 134.03 103.345C133.905 103.153 133.74 102.951 133.539 102.736C133.343 102.512 133.132 102.302 132.908 102.106C132.664 101.889 132.405 101.689 132.135 101.506C131.996 101.413 131.856 101.317 131.703 101.232C131.55 101.147 131.405 101.06 131.246 100.98C130.933 100.819 130.612 100.675 130.283 100.549C129.952 100.426 129.618 100.312 129.284 100.222C128.95 100.132 128.672 100.063 128.381 100.005C128.514 98.7933 128.391 97.5668 128.019 96.4055ZM74.297 49.4387C73.9316 49.7563 73.7078 50.2066 73.6739 50.6893C73.6399 51.172 73.7998 51.6491 74.1174 52.0144L90.9624 71.3923L94.1111 68.6553L76.0681 47.8992L74.297 49.4387ZM123.301 110.219C124.865 122.157 114.769 142.812 103.452 151.34L87.5424 133.038C87.5424 133.038 103.692 124.839 104.088 116.479C104.093 116.35 104.091 116.221 104.091 116.086C105.94 110.903 109.263 107.945 113.806 107.52C117.851 107.137 121.603 108.83 123.301 110.219ZM99.8691 134.837C99.4019 135.243 99.0657 135.779 98.9029 136.376C98.74 136.973 98.7579 137.605 98.9542 138.192C99.1506 138.779 99.5165 139.294 100.006 139.673C100.495 140.052 101.086 140.277 101.703 140.32C102.321 140.364 102.937 140.223 103.474 139.916C104.012 139.609 104.446 139.149 104.722 138.595C104.998 138.041 105.104 137.418 105.026 136.804C104.948 136.19 104.689 135.613 104.283 135.146C103.739 134.52 102.968 134.135 102.14 134.078C101.312 134.02 100.495 134.293 99.8691 134.837ZM75.0678 27.3167C75.0252 27.216 74.9595 27.1273 74.8757 27.057C74.7919 26.9868 74.6922 26.937 74.586 26.9127C74.4796 26.8886 74.3687 26.8896 74.263 26.9166C74.1566 26.9428 74.0588 26.9947 73.9763 27.0664L68.0015 32.2603L97.2547 65.9122L101.964 61.8185L78.0537 34.3129L75.0678 27.3167ZM120.885 104.268L120.911 104.298C118.505 103.471 115.954 103.154 113.418 103.365C107.402 103.925 103.848 107.519 101.765 111.184C100.855 110.22 99.825 109.588 98.9703 109.627C96.893 109.732 94.819 109.363 92.905 108.549C90.9911 107.735 89.2874 106.496 87.9227 104.926C84.171 100.611 83.3428 94.165 87.8028 89.2201C87.2699 88.2955 87.002 87.2419 87.0285 86.1751C87.0548 85.1082 87.3744 84.0692 87.9522 83.172L93.2671 74.9137L106.059 63.7943L127.035 87.9251L125.691 89.0935L127.475 91.146L122.676 95.3184C127.114 100.444 120.892 104.276 120.892 104.276L120.885 104.268ZM106.995 73.8425C106.578 74.2055 106.322 74.7195 106.283 75.2713C106.245 75.8231 106.427 76.3677 106.79 76.7853L115.76 87.1052C116.125 87.5158 116.638 87.7659 117.186 87.8013C117.734 87.8367 118.274 87.6543 118.689 87.294C119.103 86.9335 119.359 86.4241 119.4 85.8763C119.441 85.3285 119.265 84.7865 118.909 84.3681L109.938 74.0482C109.575 73.6307 109.061 73.3744 108.509 73.336C107.957 73.2974 107.413 73.4796 106.995 73.8425ZM102.469 77.7771C102.052 78.1401 101.795 78.654 101.757 79.2059C101.718 79.7577 101.9 80.3023 102.263 80.7198L111.234 91.0397C111.599 91.4504 112.111 91.7005 112.659 91.7359C113.208 91.7712 113.748 91.5889 114.162 91.2285C114.577 90.8681 114.833 90.3587 114.874 89.8109C114.915 89.2631 114.739 88.7211 114.383 88.3027L105.412 77.9828C105.049 77.5653 104.535 77.309 103.983 77.2706C103.431 77.232 102.887 77.4142 102.469 77.7771ZM97.8353 84.569L106.806 94.8889C106.985 95.099 107.204 95.2717 107.449 95.3967C107.695 95.5218 107.964 95.5969 108.239 95.6177C108.514 95.6384 108.79 95.6043 109.052 95.5176C109.314 95.4308 109.556 95.2929 109.764 95.1119C109.972 94.9309 110.143 94.7104 110.265 94.4632C110.387 94.216 110.459 93.9469 110.477 93.6717C110.495 93.3964 110.458 93.1202 110.368 92.8594C110.279 92.5985 110.138 92.358 109.955 92.1518L100.984 81.8319C100.619 81.4212 100.107 81.1711 99.5588 81.1358C99.0105 81.1004 98.4705 81.2827 98.0559 81.6431C97.6413 82.0035 97.3856 82.5129 97.3443 83.0608C97.303 83.6085 97.4795 84.1505 97.8353 84.569ZM101.242 104.784C103.865 102.503 102.719 100.736 100.666 98.513C100.385 98.6707 100.091 98.8293 99.7811 98.9816C99.418 99.1557 99.0456 99.3275 98.6502 99.4811C98.2552 99.6343 97.8614 99.7657 97.4455 99.8958C97.0389 100.014 96.6263 100.109 96.2094 100.183C96.0054 100.222 95.8017 100.25 95.5969 100.273C95.3921 100.296 95.1949 100.311 94.9982 100.323C94.6227 100.345 94.2463 100.342 93.8712 100.315C93.5403 100.293 93.2113 100.249 92.8861 100.183C92.5865 100.133 92.3189 100.047 92.0866 99.9868C91.8543 99.9262 91.6552 99.8401 91.497 99.7774L91.0018 99.5615L91.534 99.5897C91.7021 99.592 91.9075 99.5861 92.1372 99.5798C92.3941 99.572 92.6498 99.5417 92.9015 99.4894C93.1941 99.443 93.4833 99.3774 93.7673 99.2928C94.0808 99.2007 94.3882 99.0881 94.6872 98.9561C94.8417 98.8873 94.9964 98.8188 95.148 98.7352C95.3 98.6512 95.455 98.5756 95.6136 98.4755C95.9152 98.2967 96.2071 98.1017 96.4879 97.8916C96.766 97.6825 97.0338 97.4601 97.2905 97.2252C97.5397 96.9949 97.7876 96.7517 98.0151 96.5125C98.149 96.3684 98.2751 96.2277 98.3977 96.0863L98.2096 95.87C95.0516 92.2371 93.384 88.5181 89.8043 91.6299C88.0602 93.147 86.9901 95.2947 86.8296 97.6007C86.669 99.9067 87.4311 102.182 88.9481 103.926C90.4651 105.67 92.6129 106.74 94.9189 106.901C97.2248 107.061 99.5002 106.299 101.244 104.782L101.242 104.784Z" fill="#E73E2F"/>
</g>
<defs>
<clipPath id="clip0_1337_457">
<rect width="126" height="126" fill="white" transform="matrix(-0.656059 -0.754709 -0.754709 0.656059 177.879 95.2188)"/>
</clipPath>
</defs>
</svg>
