<svg width="205" height="205" viewBox="0 0 205 205" fill="none" xmlns="http://www.w3.org/2000/svg">
<path d="M93.291 0.440216C83.8818 1.28104 71.0292 4.28397 69.5478 5.92557C69.1474 6.40604 68.9072 7.88748 68.747 10.8103C68.6269 13.2928 68.2665 15.8953 67.8261 17.2166C66.1845 22.1814 61.58 26.906 56.5751 28.868C55.0136 29.4685 53.0517 29.8289 50.5693 29.949C46.165 30.1492 42.7216 29.2683 39.2382 27.0662C38.037 26.2654 36.5556 25.6248 35.955 25.6248C34.5937 25.6248 32.2714 27.6668 26.746 33.6326C15.3349 45.9646 7.40716 60.5789 3.20306 77.1951C1.72162 82.9607 1.88177 83.6013 5.32513 85.3631C11.6513 88.5261 16.0156 95.533 16.0156 102.5C16.0156 109.467 11.6513 116.473 5.32513 119.636C1.88177 121.398 1.72162 122.039 3.20306 127.804C7.80755 146.022 16.9765 161.958 30.3495 175.051C35.3945 180.055 35.7548 180.176 39.2382 177.933C42.7216 175.731 46.165 174.85 50.5693 175.051C53.0517 175.171 55.0136 175.531 56.5751 176.132C61.6601 178.134 66.2646 182.898 67.8661 187.983C68.3066 189.344 68.707 192.187 68.8271 194.55C69.1074 199.715 69.0673 199.675 76.5947 201.596C94.0517 206.121 112.59 206.001 129.646 201.356C135.973 199.594 135.973 199.594 136.253 194.309C136.373 191.707 136.733 189.104 137.174 187.783C138.855 182.818 143.42 178.094 148.425 176.132C149.986 175.531 151.948 175.171 154.431 175.051C158.835 174.85 162.278 175.731 165.762 177.933C169.245 180.176 169.605 180.055 174.65 175.051C188.023 161.958 197.152 146.062 201.797 127.804C203.278 122.039 203.078 121.398 199.675 119.636C193.349 116.473 188.984 109.467 188.984 102.5C188.984 95.533 193.349 88.5261 199.675 85.3631C203.118 83.6013 203.278 82.9607 201.797 77.1951C197.192 58.9773 188.023 43.0418 174.65 29.909C169.605 24.9441 169.245 24.824 165.762 27.0662C162.278 29.2683 158.835 30.1492 154.431 29.949C151.948 29.8289 149.986 29.4685 148.425 28.868C143.42 26.906 138.855 22.1814 137.174 17.2166C136.733 15.8953 136.373 13.2928 136.253 10.6902C135.973 5.40506 135.973 5.40506 129.646 3.64334C118.235 0.520294 104.982 -0.640839 93.291 0.440216ZM106.744 16.4558C110.668 17.1365 115.272 19.6189 118.275 22.6619C127.044 31.3904 127.044 45.364 118.315 54.1726C111.829 60.739 101.779 62.6609 93.5312 58.8972C75.7538 50.8494 75.7138 26.0252 93.4911 17.9773C97.6152 16.1355 102.06 15.615 106.744 16.4558ZM52.0107 48.6472C59.9785 50.5291 66.665 56.9754 68.6669 64.6629C69.4277 67.6258 69.4277 73.1912 68.6669 76.074C66.5048 84.1619 59.8183 90.6082 51.7304 92.2898C40.3193 94.7322 29.1083 88.1258 25.5849 76.8748C24.4638 73.2713 24.4638 67.6258 25.5849 64.0623C29.1484 52.7312 40.7197 46.0047 52.0107 48.6472ZM162.919 48.6472C170.727 50.489 176.973 56.3748 179.415 64.0623C180.536 67.6258 180.536 73.2713 179.415 76.8748C177.013 84.5623 170.727 90.448 162.919 92.2898C151.348 95.0125 139.416 87.7254 136.333 76.074C135.572 73.1912 135.572 67.6258 136.333 64.6629C139.336 53.2517 151.428 45.9646 162.919 48.6472ZM109.066 88.0056C112.71 89.6873 115.032 92.0095 116.834 95.6131C118.235 98.4959 118.315 98.8562 118.315 102.5C118.315 106.143 118.235 106.504 116.834 109.386C115.032 113.03 112.71 115.272 108.986 117.034C106.544 118.195 105.943 118.315 102.5 118.315C99.0566 118.315 98.456 118.195 96.0136 117.034C92.29 115.272 89.9677 113.03 88.166 109.386C86.7646 106.504 86.6845 106.143 86.6845 102.54C86.6845 99.0564 86.8046 98.4558 87.9658 96.0135C89.5673 92.6101 91.8495 90.1277 94.8525 88.5662C97.9755 86.8845 99.7372 86.4842 103.381 86.6443C105.823 86.7644 107.064 87.0847 109.066 88.0056ZM51.7704 112.71C59.8183 114.391 66.5048 120.838 68.6669 128.926C69.3476 131.488 69.4277 137.134 68.8271 139.736C67.0253 147.624 60.1386 154.43 52.0107 156.352C40.7197 158.995 29.1484 152.268 25.5849 140.937C24.4638 137.374 24.4638 131.728 25.5849 128.125C29.1083 116.874 40.3193 110.267 51.7704 112.71ZM162.919 112.71C170.727 114.552 177.013 120.437 179.415 128.125C180.536 131.728 180.536 137.374 179.415 140.937C176.292 150.867 166.883 157.473 156.753 156.833C147.103 156.232 138.735 149.466 136.333 140.337C135.572 137.374 135.572 131.808 136.333 128.926C138.415 121.038 144.901 114.672 152.789 112.75C155.912 111.989 159.756 111.989 162.919 112.71ZM106.744 144.581C110.668 145.261 115.272 147.744 118.275 150.787C127.044 159.555 127.044 173.529 118.275 182.338C105.263 195.31 83.041 187.943 80.3583 169.725C79.2372 161.918 82.4003 153.95 88.5663 149.105C93.8515 144.941 100.138 143.38 106.744 144.581Z" fill="#EBE2BB"/>
<path d="M99.2971 29.3484C97.3352 29.989 93.9719 33.4323 93.3713 35.4743C92.2502 39.238 93.051 42.2409 95.8938 45.0437C99.9778 49.1677 105.623 49.0876 109.427 44.8435C113.031 40.8396 113.031 36.0349 109.427 32.031C106.824 29.1482 103.101 28.1472 99.2971 29.3484ZM104.702 36.2351C105.343 36.8357 105.703 37.6765 105.703 38.4372C105.703 39.198 105.343 40.0388 104.702 40.6394C102.74 42.6413 99.2971 41.24 99.2971 38.4372C99.2971 36.7956 100.859 35.2341 102.5 35.2341C103.261 35.2341 104.102 35.5945 104.702 36.2351Z" fill="#EBE2BB"/>
<path d="M43.9631 61.4197C39.2385 63.1013 36.6359 67.7058 37.6769 72.4705C39.5187 81.1189 51.4904 82.7205 55.4543 74.8728C59.3381 67.2253 51.9308 58.5769 43.9631 61.4197ZM49.008 68.1062C49.8088 68.7468 50.049 69.2673 50.049 70.4685C50.049 73.2712 47.1662 74.5925 45.0041 72.7507C44.2033 72.0701 43.923 71.4294 43.923 70.4685C43.923 69.5076 44.2033 68.8669 45.0041 68.1863C46.3654 67.0652 47.6066 67.0251 49.008 68.1062Z" fill="#EBE2BB"/>
<path d="M154.831 61.4196C150.907 62.861 148.545 66.2643 148.545 70.4684C148.545 79.6374 160.036 83.4811 165.602 76.194C170.166 70.1881 166.202 61.5797 158.635 61.0192C157.273 60.8991 155.752 61.0592 154.831 61.4196ZM159.996 68.1862C160.797 68.8669 161.077 69.5075 161.077 70.4684C161.077 71.4294 160.797 72.07 159.996 72.7506C158.635 73.8717 157.394 73.9118 155.992 72.8307C154.511 71.6696 154.511 69.2672 155.992 68.1061C157.394 67.0251 158.635 67.0651 159.996 68.1862Z" fill="#EBE2BB"/>
<path d="M43.9631 125.482C39.2385 127.164 36.6359 131.768 37.6769 136.533C39.5187 145.181 51.4904 146.783 55.4543 138.935C59.3381 131.288 51.9308 122.639 43.9631 125.482ZM49.008 132.169C49.8088 132.809 50.049 133.33 50.049 134.531C50.049 137.334 47.1662 138.655 45.0041 136.813C44.2033 136.133 43.923 135.492 43.923 134.531C43.923 133.57 44.2033 132.929 45.0041 132.249C46.3654 131.128 47.6066 131.088 49.008 132.169Z" fill="#EBE2BB"/>
<path d="M154.831 125.482C150.907 126.923 148.545 130.327 148.545 134.531C148.545 143.7 160.036 147.544 165.602 140.257C170.166 134.251 166.202 125.642 158.635 125.082C157.273 124.962 155.752 125.122 154.831 125.482ZM159.996 132.249C160.797 132.929 161.077 133.57 161.077 134.531C161.077 135.492 160.797 136.132 159.996 136.813C158.635 137.934 157.394 137.974 155.992 136.893C154.511 135.732 154.511 133.33 155.992 132.169C157.394 131.088 158.635 131.128 159.996 132.249Z" fill="#EBE2BB"/>
<path d="M99.2971 157.473C97.3352 158.114 93.9719 161.557 93.3713 163.599C92.2502 167.363 93.051 170.366 95.8938 173.169C99.9778 177.293 105.623 177.213 109.427 172.968C113.031 168.965 113.031 164.16 109.427 160.156C106.824 157.273 103.101 156.272 99.2971 157.473ZM104.702 164.36C106.704 166.322 105.303 169.765 102.5 169.765C101.739 169.765 100.899 169.405 100.298 168.764C99.6575 168.164 99.2971 167.323 99.2971 166.562C99.2971 165.801 99.6575 164.961 100.298 164.36C100.899 163.719 101.739 163.359 102.5 163.359C103.261 163.359 104.102 163.719 104.702 164.36Z" fill="#EBE2BB"/>
</svg>
