<svg width="1194" height="444" viewBox="0 0 1194 444" fill="none" xmlns="http://www.w3.org/2000/svg">
<g clip-path="url(#clip0_404_626)">
<path d="M567.704 206.014C567.955 213.287 566.952 220.058 566.45 226.83C566.2 229.087 565.196 230.341 563.19 231.595C557.171 235.107 550.65 237.615 543.628 238.869C539.866 239.621 539.615 239.621 540.116 243.383C540.869 252.412 541.872 261.441 542.875 270.219C544.38 284.013 545.634 297.806 547.139 311.6C548.644 325.896 550.148 340.442 551.653 354.738C553.158 368.532 554.412 382.326 555.666 396.12C556.92 408.409 558.174 420.949 559.428 433.238C559.428 433.991 559.428 434.743 559.679 435.746C559.93 437.502 559.428 438.255 557.422 438.505C550.901 439.258 544.38 440.01 537.608 440.512C527.075 441.515 516.541 442.518 505.757 443.521C502.496 443.772 502.496 443.772 502.246 440.512C500.992 430.229 499.988 419.695 498.985 409.412C497.48 394.866 495.976 380.32 494.471 365.773C493.217 352.732 491.712 339.439 490.458 326.147C488.953 311.851 487.448 297.305 485.944 283.009C484.94 272.977 483.937 262.945 482.934 253.164C482.432 249.151 482.683 245.139 480.175 241.627C479.172 240.373 479.423 238.618 479.423 236.862C479.172 225.325 477.416 214.039 477.667 202.503C477.667 201.249 477.416 199.995 477.166 198.991C476.664 196.483 476.915 193.223 474.908 191.718C472.4 189.712 468.638 191.467 465.629 191.217C464.876 191.217 464.124 191.718 464.124 192.721C464.124 194.477 464.124 196.232 464.124 198.239C465.378 211.28 466.883 224.071 468.137 237.113C468.137 238.116 468.388 239.119 468.388 240.123C468.638 244.888 468.638 244.637 464.124 245.64C461.616 246.142 459.108 247.145 456.6 247.647C449.327 248.901 447.822 248.65 447.07 240.373C446.317 230.592 445.314 221.062 444.562 211.281C444.06 204.007 442.555 196.483 443.558 189.21C444.311 183.943 442.555 178.927 441.803 173.661C440.298 164.632 439.044 155.352 438.292 146.323C438.041 144.066 438.041 141.809 439.044 139.803C440.298 136.793 442.054 134.285 446.066 134.536C449.076 134.787 452.086 133.783 455.095 133.783C458.105 133.533 458.356 133.783 459.108 137.044C459.86 140.304 460.362 143.815 460.613 147.076C460.864 153.597 461.365 160.368 461.616 166.889C461.616 168.394 461.616 170.149 462.118 171.654C462.619 173.41 461.867 176.168 464.124 176.921C467.134 177.924 470.394 178.175 473.404 176.169C474.407 175.416 474.908 174.413 474.908 173.159C474.658 171.905 474.658 170.651 474.407 169.648C473.404 159.365 472.15 149.333 471.146 139.05C471.146 138.298 471.146 137.545 471.146 136.542C471.146 131.777 471.899 131.024 476.664 130.523C480.677 130.021 484.69 130.523 488.452 129.018C490.207 128.266 492.464 130.272 492.715 132.78C492.966 134.536 492.966 136.291 492.966 138.298C493.217 149.584 494.471 160.619 496.477 171.654C496.979 174.664 497.48 177.422 496.477 180.432C495.976 181.937 495.976 183.693 496.226 185.197C497.982 202.001 499.738 218.805 501.493 235.357C501.744 238.618 501.995 238.618 505.255 238.367C510.773 237.865 516.04 237.364 521.306 236.611C523.313 236.361 525.57 236.862 527.326 235.357C525.57 234.354 523.814 233.351 522.31 232.348C519.802 230.592 517.544 228.586 516.04 226.078C515.036 224.573 515.287 223.068 517.043 222.567C521.808 221.313 524.567 217.55 528.078 214.541C528.83 213.788 529.583 213.287 530.586 212.785C533.846 211.03 535.1 211.531 536.354 215.043C537.107 217.801 537.859 220.56 538.862 223.068C539.866 225.576 540.869 226.078 543.628 225.576C547.39 224.824 549.898 222.065 549.396 218.554C548.393 209.776 549.396 200.998 548.894 192.471C548.393 179.429 546.637 166.387 541.621 154.349C540.618 152.092 539.866 149.835 537.859 148.33C535.602 146.323 533.345 145.069 530.335 146.073C527.576 147.076 524.818 151.088 524.818 154.098C524.818 155.352 525.068 156.606 525.319 157.609C527.827 172.908 530.335 187.956 532.843 203.255C533.345 206.515 533.345 206.515 530.335 208.271C528.329 209.274 527.075 211.03 525.319 212.535C523.814 214.039 522.56 215.544 520.805 216.297C516.792 218.303 515.538 217.801 514.535 213.538C511.525 202.001 508.014 190.464 506.509 178.426C505.255 169.397 504.754 160.368 507.262 151.59C507.763 149.333 508.766 147.076 509.77 144.819C513.782 135.288 521.808 131.526 531.338 130.272C531.84 130.272 532.091 130.523 532.592 130.272C541.12 128.015 547.139 132.028 552.406 138.047C556.92 143.063 559.679 149.082 561.434 155.603C563.942 164.381 564.946 173.41 566.2 182.188C566.701 185.95 567.454 189.712 568.206 193.223C568.958 196.734 568.457 200.496 568.708 204.007C567.704 204.258 567.704 205.261 567.704 206.014Z" fill="#F0E7BE"/>
<path d="M1071.56 139.803C1072.56 143.063 1073.32 146.324 1074.32 149.584C1074.57 150.086 1074.57 150.838 1074.07 151.089C1073.82 151.089 1073.07 150.587 1072.82 150.336C1072.06 149.835 1071.31 149.584 1071.06 150.838C1070.81 153.095 1071.06 155.352 1071.06 157.359C1071.06 159.365 1070.81 161.372 1070.81 163.378C1070.81 164.13 1070.81 164.883 1070.56 165.384C1069.81 164.883 1070.06 164.13 1070.06 163.629C1069.56 160.619 1069.05 157.61 1068.3 154.851C1067.05 149.584 1065.04 144.568 1062.28 139.803C1056.76 130.523 1051 121.244 1045.48 111.964C1043.47 108.453 1043.22 108.453 1039.21 109.456C1032.44 110.71 1025.41 112.215 1018.64 113.469C1015.88 113.97 1015.38 113.72 1014.88 111.212C1013.88 106.196 1013.88 106.195 1009.11 106.697C996.572 107.951 984.032 109.205 971.492 110.71C958.451 112.215 945.66 113.72 932.618 114.974C920.329 116.228 907.789 117.482 895.5 118.736C893.494 118.986 892.49 119.488 892.741 121.494C892.992 126.761 893.243 132.028 893.995 137.044C894.246 138.549 894.998 139.05 896.503 138.8C900.014 138.298 903.526 137.796 907.288 137.295C910.297 136.793 911.3 137.295 911.802 140.304C912.554 144.819 913.056 149.333 913.808 154.098C914.059 156.606 913.808 157.108 911.3 156.857C907.037 156.857 902.773 158.613 898.259 157.108C897.005 156.606 896.503 157.61 896.503 158.864C897.005 165.134 897.757 171.654 898.259 177.924C898.509 179.931 899.513 180.934 901.77 181.185C907.037 181.686 912.304 181.435 917.32 180.683C918.072 180.683 918.824 180.432 919.577 180.182C925.345 179.429 925.345 179.429 925.596 185.448C925.847 189.21 926.098 192.972 926.599 196.734C926.85 198.741 925.847 199.744 923.84 199.744C919.326 199.995 915.062 200.496 910.548 200.747C903.024 201.249 895.5 203.255 887.725 202.754C885.97 202.754 884.715 203.757 883.211 204.008C880.703 204.509 878.947 203.255 878.446 200.747C876.941 194.477 876.941 187.956 876.941 181.686C876.941 173.911 877.192 165.886 875.436 158.362C874.182 152.844 873.179 147.327 872.677 141.809C871.674 126.259 870.671 110.71 870.671 94.9095C870.671 94.4079 870.671 94.1571 870.671 93.6555C870.42 91.6491 871.423 90.8967 873.43 90.8967C880.954 91.1475 888.728 90.3951 896.252 89.3919C909.796 87.8871 923.339 86.3823 936.882 84.8775C949.924 83.3727 963.216 82.1187 976.258 80.8647C986.54 79.8615 997.074 78.6075 1007.36 77.6043C1009.36 77.3535 1010.12 76.6011 1010.37 74.5947C1011.62 66.3183 1012.87 58.0419 1015.13 49.7655C1016.13 46.2543 1017.89 44.2479 1021.4 43.2447C1026.92 41.9907 1027.42 41.9907 1030.68 47.0067C1032.19 49.5147 1033.69 51.7719 1035.2 54.2799C1035.45 54.7815 1035.95 55.0323 1036.45 55.5339C1036.7 55.0323 1037.45 54.7815 1037.45 54.2799C1038.21 52.0227 1038.96 49.7655 1039.96 47.5083C1040.46 49.5147 1040.71 51.5211 1041.47 53.5275C1042.22 55.7847 1044.22 56.5371 1046.23 55.2831C1048.49 54.0291 1049.99 51.7719 1051.25 49.5147C1054.76 43.4955 1057.77 37.2255 1060.53 30.7047C1061.28 28.6983 1062.03 26.6919 1063.54 24.9363C1063.79 24.6855 1063.79 24.1839 1064.04 23.9331C1064.29 23.1807 1064.04 23.1807 1063.54 23.6823C1063.29 23.9331 1063.29 24.4347 1063.03 24.6855C1062.53 27.9459 1062.03 31.4571 1061.78 34.7175C1061.53 35.9715 1061.53 37.2255 1061.78 38.2287C1062.03 39.7335 1063.29 40.2351 1064.54 39.2319C1067.8 36.7239 1070.31 33.7143 1071.56 29.7015C1073.07 25.4379 1074.07 20.9235 1075.32 16.4091C1075.83 14.6535 1076.08 12.8979 1076.58 11.1423C1076.83 10.6407 1077.08 9.88829 1077.58 10.1391C1081.09 11.6439 1081.34 8.38351 1082.6 6.62791C1083.6 4.87231 1084.35 3.11669 1085.36 1.36109C1085.61 1.11029 1085.61 0.60871 1085.86 0.35791C1085.86 0.35791 1086.11 0.357925 1086.11 0.608725C1085.86 0.859525 1085.61 1.36111 1085.61 1.61191C1085.36 2.36431 1084.85 3.11669 1084.6 3.86909C1081.59 12.3963 1078.83 20.9235 1075.83 29.1999C1075.32 30.4539 1075.07 31.9587 1074.82 33.2127C1074.82 33.4635 1075.07 33.9651 1075.32 34.2159C1075.57 34.4667 1076.33 34.4667 1076.33 34.2159C1078.33 32.2095 1080.09 30.2031 1082.1 28.1967C1082.6 27.6951 1082.85 27.1935 1083.35 26.9427C1083.1 27.4443 1082.85 28.1967 1082.6 28.6983C1081.09 31.4571 1079.34 34.2159 1077.83 36.9747C1077.08 38.4795 1075.07 40.2351 1076.83 41.4891C1078.08 42.4923 1079.59 40.4859 1080.59 39.4827C1083.6 36.7239 1086.86 34.4667 1090.12 32.2095C1090.37 31.9587 1090.87 31.9587 1091.12 31.9587C1091.63 33.7143 1088.37 34.9683 1090.12 36.7239C1091.12 37.7271 1093.13 36.7239 1094.64 36.4731C1095.89 36.2223 1097.39 35.7207 1098.65 35.9715C1098.15 37.2255 1097.14 37.7271 1096.14 38.4795C1087.86 43.7463 1080.84 50.0163 1074.57 57.5403C1071.06 61.8039 1067.8 65.8167 1064.29 70.0803C1064.04 70.5819 1064.04 71.0835 1063.79 71.5851C1064.29 71.5851 1065.04 71.8359 1065.54 71.5851C1082.1 66.5691 1099.4 63.3087 1116.2 59.0451C1111.19 61.3023 1106.17 63.3087 1101.16 65.5659C1099.4 66.3183 1097.9 67.0707 1096.39 68.0739C1095.89 68.3247 1095.39 68.8263 1095.89 69.5787C1096.14 70.0803 1096.89 70.3311 1097.39 70.5819C1098.9 70.8327 1100.65 70.8327 1102.16 70.8327C1111.69 70.8327 1120.97 69.5787 1130.25 69.0771C1141.28 68.3247 1152.07 66.3183 1163.1 66.0675C1163.61 66.0675 1163.86 65.8167 1164.36 65.8167C1165.11 65.5659 1164.86 65.3151 1164.11 65.3151C1163.61 65.3151 1163.35 65.5659 1163.1 65.5659C1162.35 66.0675 1161.35 66.5691 1160.6 67.0707C1159.09 67.5723 1156.08 67.5723 1156.58 69.3279C1156.83 70.8327 1159.84 69.8295 1161.6 69.5787C1170.88 68.5755 1179.91 67.5723 1189.19 66.5691C1189.69 66.5691 1189.94 66.3183 1190.44 66.3183C1191.69 66.3183 1193.2 65.8167 1194.45 66.5691C1193.2 66.8199 1191.69 67.0707 1190.44 67.3215C1177.4 70.0803 1164.11 72.5883 1151.07 75.3471C1146.3 76.3503 1141.79 77.3535 1137.02 78.3567C1136.27 78.6075 1135.52 79.1091 1134.76 79.3599C1134.26 79.6107 1134.26 79.8615 1134.26 80.3631C1134.26 80.8647 1134.51 81.1155 1135.01 81.1155C1136.52 81.3663 1138.27 81.6171 1139.78 81.6171C1148.31 81.1155 1157.08 80.6139 1165.61 80.3631C1166.11 80.3631 1166.87 80.3631 1167.37 80.1123C1168.12 79.8615 1167.12 79.1091 1167.62 79.8615C1168.12 80.6139 1167.87 79.1091 1167.62 79.8615L1167.37 80.1123C1166.61 80.1123 1165.61 80.1123 1164.86 80.1123C1151.07 83.8743 1137.02 86.1315 1123.23 89.1411C1109.68 91.8999 1096.14 94.4079 1082.6 96.9159C1080.59 97.1667 1078.58 97.9191 1076.83 98.4207C1074.57 99.4239 1074.57 99.9255 1076.58 101.932C1076.83 102.183 1077.33 102.183 1077.58 102.434C1077.08 102.434 1076.83 102.684 1076.33 102.684C1074.57 102.684 1072.82 102.684 1070.81 102.935C1068.55 103.186 1067.8 104.691 1068.3 106.697C1068.8 108.703 1070.06 110.208 1071.31 111.713C1078.83 119.739 1086.11 128.015 1094.38 135.288C1096.39 137.044 1098.4 138.549 1100.15 141.308C1098.15 140.304 1096.64 139.552 1095.14 138.8C1094.13 138.298 1093.13 137.546 1091.88 138.8C1090.87 140.304 1091.88 140.806 1092.88 141.558C1095.14 143.314 1097.39 145.069 1099.65 146.825C1101.16 148.079 1103.16 148.832 1103.16 151.34C1103.16 152.844 1104.67 153.095 1105.67 153.597C1108.93 155.352 1111.94 157.108 1115.2 158.613C1115.45 158.864 1115.95 158.864 1116.45 158.864C1116.45 158.864 1116.45 158.613 1116.71 158.613C1116.45 158.362 1115.95 158.362 1115.7 158.111C1110.18 157.359 1105.42 154.851 1100.4 153.095C1091.88 149.835 1085.1 144.317 1078.83 138.298C1078.08 137.546 1077.33 136.793 1076.58 136.292C1076.08 135.79 1075.57 134.787 1074.82 135.539C1074.57 135.79 1074.82 137.044 1074.82 137.796C1075.07 138.799 1075.07 139.05 1074.07 138.298C1073.82 138.298 1073.82 138.047 1073.57 138.047C1073.32 138.047 1073.07 137.796 1073.07 137.796C1072.82 137.044 1072.31 136.291 1071.31 136.542C1070.31 137.044 1070.81 137.796 1071.06 138.549C1071.06 139.301 1071.31 139.552 1071.56 139.803Z" fill="#F0E7BE"/>
<path d="M613.601 121.243C615.608 121.243 617.614 121.494 619.621 121.243C621.627 120.993 622.379 121.996 622.63 123.751C623.633 132.279 625.389 140.806 627.646 149.082C629.402 155.352 631.408 161.371 633.415 167.391C633.916 168.645 634.167 170.902 635.421 170.902C637.177 170.902 637.427 168.645 637.929 167.14C638.681 165.384 639.183 163.378 639.685 161.371C643.196 146.574 645.955 131.526 646.958 116.227C646.958 115.475 646.958 114.723 647.209 113.719C647.209 112.716 647.71 111.713 648.964 111.713C651.974 111.462 654.983 110.961 657.993 111.211C662.006 111.211 662.758 112.465 662.507 116.478C662.006 124.504 661.253 132.529 660.752 140.555C660.25 148.831 658.745 156.857 655.987 164.632C655.485 165.886 655.485 167.391 655.485 168.645C654.733 178.927 654.231 189.461 653.479 199.744C652.977 206.265 653.479 212.535 653.479 219.055C653.479 223.068 653.479 223.319 649.215 224.071C644.701 224.824 639.935 224.824 635.421 225.325C634.167 225.325 633.665 224.573 633.415 223.57C632.411 220.059 631.157 216.798 630.154 213.287C628.649 207.519 627.646 201.499 627.395 195.48C627.395 192.972 626.894 190.966 623.884 189.963C619.119 188.207 616.862 183.943 616.862 178.927C616.862 174.915 615.357 171.153 614.855 167.14C614.855 166.638 614.103 166.387 613.601 166.137C613.351 166.387 613.1 166.638 613.1 167.14C612.849 170.4 612.347 173.41 612.347 176.67C611.595 188.709 610.592 200.747 609.839 212.535C609.338 217.3 609.087 222.065 608.084 226.83C607.582 228.837 609.839 231.595 607.331 232.849C605.576 233.602 603.319 232.849 601.312 233.1C597.801 233.351 594.541 233.602 591.029 233.853C587.267 234.103 584.007 231.094 584.759 227.583C586.264 221.313 584.509 215.795 583.505 209.776C581.75 198.239 577.486 187.204 576.734 175.667C575.981 164.632 571.969 154.349 570.464 143.314C569.711 137.295 568.959 131.275 568.959 125.256C568.959 123.501 569.461 122.497 571.216 122.999C573.223 123.751 575.229 122.497 576.985 122.247C578.489 121.996 579.994 121.243 581.75 120.993C586.766 120.24 587.518 120.742 588.271 126.009C591.029 140.806 593.537 155.603 596.045 170.4C596.045 170.902 596.296 171.654 596.296 172.156C596.296 172.407 596.798 172.908 597.049 172.657C597.299 172.657 597.801 172.407 598.052 171.905C598.804 170.902 598.553 169.648 598.553 168.394C598.553 164.883 598.804 161.121 598.553 157.609C598.553 152.593 598.804 147.577 600.811 142.812C601.563 141.057 601.312 139.301 601.061 137.545C600.56 133.282 600.811 129.018 602.065 125.005C603.068 121.494 603.82 120.993 607.582 120.993C610.09 121.243 611.846 121.243 613.601 121.243Z" fill="#F0E7BE"/>
<path d="M840.826 158.613C840.826 163.127 840.826 167.39 840.826 171.905C840.826 173.41 840.825 175.165 840.575 176.67C839.822 178.676 840.073 180.683 840.575 182.689C841.327 186.953 841.578 191.467 840.324 195.731C839.572 198.991 839.822 202.503 839.822 206.014C839.822 208.02 839.07 208.772 837.314 209.274C826.781 211.782 829.289 213.538 826.028 203.506C821.765 190.213 817.752 176.67 815.244 162.876C814.241 157.108 811.482 151.841 810.73 146.073C810.73 145.822 810.228 145.32 809.977 145.32C809.726 145.32 809.225 145.571 808.974 145.822C808.723 147.076 808.472 148.079 808.472 149.333C807.971 155.854 808.974 162.124 809.977 168.394C811.733 181.185 813.99 194.226 814.993 207.017C815.244 210.779 814.993 211.531 811.231 212.535C809.225 213.036 807.218 213.287 805.212 213.538C800.948 214.29 800.948 214.29 799.444 210.027C798.19 206.265 798.44 202.503 798.44 198.741C798.44 196.233 798.44 193.725 797.186 191.217C795.682 188.458 795.18 185.197 795.18 181.937C794.929 170.651 792.421 159.616 790.666 148.581C788.659 135.79 786.653 122.748 784.396 109.957C784.145 108.202 784.646 107.198 786.151 106.697C793.424 104.69 800.447 102.684 807.971 102.684C812.234 102.684 813.238 103.437 814.492 107.199C816.498 112.967 817.752 119.237 819.006 125.256C820.26 131.777 822.016 138.047 824.524 144.317C824.774 145.069 825.025 146.072 826.028 145.571C826.53 145.32 826.781 144.568 826.781 144.066C828.787 132.028 830.292 119.989 830.794 107.7C831.044 100.928 831.044 100.929 837.816 99.9253C843.083 99.1729 848.6 98.4205 853.867 97.6681C855.874 97.4173 857.128 97.9189 857.629 100.176C858.382 104.44 859.635 108.703 860.639 112.967C860.889 114.221 861.14 115.726 861.14 117.231C861.391 124.002 861.893 130.774 862.144 137.545C862.144 139.05 862.645 140.806 862.144 142.311C860.388 148.831 861.893 155.352 862.394 162.124C862.394 163.628 862.645 164.883 862.896 166.387C863.899 172.407 860.388 177.924 861.642 184.194C862.896 190.213 861.14 196.232 859.886 202.001C859.636 203.255 859.385 204.258 858.883 205.512C858.131 207.769 855.121 208.271 853.616 206.515C851.861 204.258 850.607 201.75 850.356 198.991C849.604 189.461 847.848 179.93 846.594 170.4C845.34 159.616 843.083 149.082 844.086 138.298C844.086 137.545 844.086 136.793 844.086 135.79C844.086 135.037 844.337 133.533 842.832 133.533C841.829 133.533 841.829 134.536 841.829 135.288C841.327 138.548 840.826 141.558 840.826 144.819C840.826 149.835 841.076 154.349 840.826 158.613C841.076 158.613 841.076 158.613 840.826 158.613Z" fill="#F0E7BE"/>
<path d="M710.41 221.313C707.651 221.313 705.143 220.31 702.635 222.567C701.381 223.57 699.124 221.814 698.873 219.808C698.371 217.551 698.121 215.043 698.121 212.535C696.867 197.487 695.613 182.188 694.108 167.14C693.105 156.857 691.85 146.825 690.095 136.793C689.092 131.025 690.346 131.777 684.076 132.53C680.815 132.78 677.806 133.282 674.796 134.285C672.79 135.037 671.787 134.285 671.034 132.53C669.78 129.52 669.028 126.51 669.279 123.25C669.529 118.234 670.031 117.732 675.298 117.732C677.053 117.732 679.06 117.732 680.565 117.231C691.098 114.472 702.133 114.973 712.667 112.967C716.68 112.215 721.194 113.72 725.207 112.215C726.21 111.964 726.712 112.716 726.963 113.469C728.467 117.983 728.217 122.498 728.467 127.263C728.467 128.266 727.715 128.517 726.712 128.517C723.201 129.018 719.689 129.52 715.927 129.771C712.165 130.022 711.162 131.025 711.413 134.536C711.664 139.05 711.915 143.816 712.416 148.33C713.67 160.368 713.921 172.658 716.178 184.696C716.931 189.461 716.178 194.728 717.181 199.493C718.185 204.509 719.188 209.776 719.94 214.792C720.693 219.808 719.94 220.811 714.673 221.062C713.169 221.313 711.915 221.313 710.41 221.313Z" fill="#F0E7BE"/>
<path d="M780.634 182.94C780.132 188.458 781.637 194.477 781.637 200.747C781.637 202.252 781.637 204.008 781.637 205.512C781.637 212.535 779.129 214.29 772.107 212.284C770.1 211.782 768.596 212.033 766.84 212.284C764.583 212.786 763.329 211.782 763.329 209.525C763.329 202.001 761.072 194.728 760.57 187.455C759.567 169.146 756.056 151.34 756.056 133.031C756.056 126.26 756.808 119.488 754.551 112.716C753.798 110.208 755.052 107.701 754.3 104.942C754.049 103.688 755.303 103.186 756.306 103.186C758.814 103.186 761.573 103.186 764.081 103.186C766.338 103.186 768.345 103.186 770.351 101.932C772.859 100.427 775.116 101.43 775.367 104.44C775.869 109.456 776.12 114.472 776.37 119.488C777.624 139.05 778.878 158.613 780.132 178.426C780.634 179.68 780.634 180.934 780.634 182.94Z" fill="#F0E7BE"/>
<path d="M735.74 128.768C732.73 128.768 731.978 128.517 731.727 125.507C731.476 121.745 731.225 117.983 730.473 114.221C730.222 112.967 730.724 111.964 731.978 111.462C732.981 111.211 733.733 110.71 734.736 110.459C739.752 109.456 740.756 110.208 741.257 115.224C741.508 118.234 741.759 121.243 742.01 124.002C742.26 127.012 742.01 127.513 739 128.015C737.997 128.517 736.743 128.517 735.74 128.768Z" fill="#F0E7BE"/>
<path d="M429.263 199.242C426.002 194.477 422.24 190.464 416.974 187.956C411.205 185.197 406.189 180.934 401.424 176.67C397.411 173.41 395.405 168.895 395.405 163.378C395.405 159.114 396.91 156.857 402.176 157.359C403.681 157.609 405.437 158.111 406.691 158.613C408.697 159.365 409.951 160.619 410.202 163.127C410.453 165.384 410.704 167.391 411.205 169.648C411.707 171.905 412.208 172.407 414.466 171.654C417.224 170.902 419.732 170.149 422.491 169.397C424.498 168.895 427.006 170.4 428.009 168.394C428.761 166.889 428.009 164.632 428.009 162.625C427.758 157.359 425.752 152.844 422.491 148.831C418.478 144.066 413.212 140.555 406.691 140.304C401.675 140.053 396.91 141.809 392.646 144.819C389.887 146.825 387.379 149.082 385.373 151.841C384.871 152.593 384.37 153.597 383.617 153.095C383.116 152.844 382.865 151.841 382.865 150.838C382.614 148.33 382.363 146.073 382.112 143.565C382.112 141.809 381.109 141.057 379.354 141.307C376.595 141.558 373.836 141.809 371.077 142.311C368.569 142.561 367.064 142.06 365.309 140.053C359.54 132.78 351.766 128.266 343.238 124.755C337.219 122.247 331.451 119.739 325.432 117.481C313.895 112.967 301.606 110.71 289.316 109.456C287.31 109.205 285.805 109.707 284.3 110.961C277.529 116.478 271.76 122.748 268.249 130.774C265.741 136.793 262.982 142.812 260.725 149.082C259.722 151.59 258.719 153.095 255.709 153.095C247.433 153.597 238.906 154.6 230.629 155.603C227.118 155.854 227.118 155.854 227.118 159.616C227.369 172.156 227.87 184.445 228.372 196.985C228.372 198.991 229.124 200.496 230.378 201.75C232.886 204.258 235.394 207.017 237.902 209.525C239.658 211.531 239.658 211.782 237.401 212.785C232.385 215.043 227.118 217.3 222.102 219.808C217.337 222.065 213.826 225.827 211.568 230.843C211.067 231.846 210.565 233.1 210.064 234.103C209.562 235.859 208.308 236.611 206.302 236.361C204.546 236.11 202.79 236.11 200.784 236.11C184.482 235.357 167.929 234.605 150.122 233.853C145.859 233.853 140.09 233.853 134.071 233.853C114.007 233.602 93.9432 233.853 74.13 236.611C56.0724 239.119 38.0148 242.129 20.208 245.389C14.1888 246.393 8.4204 247.647 2.4012 248.901C-0.357604 249.402 -0.60842 249.904 -0.35762 252.412C0.14398 258.933 0.896426 265.704 1.64883 272.225C1.89963 273.73 2.15038 275.235 3.40438 276.489C8.16958 281.505 10.9284 287.775 12.9348 294.295C17.4492 308.34 18.954 322.887 17.7 337.684C17.1984 343.201 16.446 348.97 13.1856 353.735C10.6776 356.995 10.4268 360.256 10.9284 363.767C11.1792 366.024 11.6808 368.532 11.6808 371.04C11.6808 373.047 12.684 373.799 14.6904 373.548C20.4588 372.796 26.2272 372.043 31.9956 371.291C49.8024 369.285 67.3584 367.027 84.9144 364.018C97.7052 361.761 110.245 358.249 122.284 352.982C137.833 346.211 149.621 335.928 157.396 320.88C166.675 302.823 180.971 290.283 199.028 281.505C214.578 273.981 231.131 269.215 248.436 267.711C264.738 266.206 281.04 264.45 297.593 262.695C307.625 261.691 313.142 255.923 313.895 245.891C314.146 242.38 314.396 238.618 314.647 235.107C314.898 230.592 314.898 226.329 314.898 221.814C314.898 220.56 315.149 219.557 316.904 219.306C326.936 218.303 336.467 219.055 345.496 223.57C347.251 224.322 348.004 225.325 348.254 227.081C348.505 228.586 348.756 230.341 349.007 231.846C350.261 244.637 348.004 256.926 342.486 268.714C338.724 276.739 334.711 284.514 330.698 292.289C328.943 295.8 327.689 299.311 327.438 303.073C326.686 312.604 327.94 321.883 328.441 331.414C328.441 332.919 329.444 333.42 330.949 333.42C333.959 333.169 336.968 332.668 339.978 332.417C355.026 331.163 369.823 329.658 384.871 328.404C386.376 328.153 388.132 327.903 389.636 327.652C390.138 327.652 390.64 327.15 390.89 326.649C391.643 324.642 390.138 320.629 388.382 319.125C386.376 317.62 384.119 316.115 381.862 314.861C379.604 313.356 377.849 311.601 376.344 309.343C374.839 307.086 375.09 306.835 377.598 305.581C384.62 302.572 386.125 300.064 384.871 292.54C384.62 290.283 383.868 288.276 383.366 286.019C383.116 284.765 382.614 283.762 382.363 282.508C381.611 278.495 381.862 277.492 385.624 275.987C388.884 274.733 390.64 272.225 391.894 269.215C392.646 267.46 392.897 265.453 393.148 263.447C393.649 257.679 393.398 251.91 392.897 246.142C392.897 245.64 392.897 244.637 393.148 244.386C393.9 243.885 394.652 244.386 395.154 245.139C395.906 245.891 396.659 246.393 397.411 247.145C402.176 250.907 407.443 252.412 413.462 249.653C416.472 248.399 419.482 247.647 422.491 246.393C430.015 243.383 434.279 237.113 436.034 229.84C438.542 219.306 435.784 208.773 429.263 199.242ZM419.482 228.837C419.231 230.592 418.478 231.846 416.723 232.348C414.716 232.849 412.961 233.602 410.954 234.103C409.7 234.605 408.446 234.103 407.694 233.1C405.186 230.592 402.678 227.833 402.929 223.821C402.929 223.319 402.929 223.068 402.929 222.567C403.18 217.551 402.427 218.303 398.164 219.055C396.157 219.306 394.151 219.808 392.144 220.059C390.89 220.309 389.887 220.059 389.636 218.303C389.135 210.779 388.633 203.004 388.382 195.48C388.382 194.979 388.132 194.226 388.884 193.975C389.386 193.975 390.138 194.226 390.389 194.477C393.148 196.734 396.157 198.991 398.916 201.249C401.173 203.004 403.18 205.011 406.189 205.261C406.942 205.261 407.945 205.512 408.196 206.515C409.199 209.525 411.958 211.03 414.466 212.785C417.977 215.043 419.482 218.303 419.482 222.316C419.482 223.319 419.732 224.322 419.732 225.827C419.482 226.579 419.732 227.833 419.482 228.837Z" fill="#F0E7BE"/>
<path d="M766.589 334.925C762.576 335.427 759.065 335.677 755.303 336.179C750.538 321.883 745.773 307.839 741.007 293.794C743.515 292.791 745.271 292.289 747.026 291.537C747.026 291.286 747.026 291.286 746.776 291.035C744.518 291.035 742.512 291.035 739.753 291.035C735.239 277.492 730.474 263.698 725.959 249.904C725.458 249.904 725.207 250.155 724.705 250.155C726.712 263.698 728.718 277.492 730.724 291.787C724.705 291.787 718.686 291.787 712.667 291.787C710.66 275.235 708.905 258.682 706.898 241.627C716.68 240.373 726.21 239.37 736.242 238.116C743.264 259.183 750.036 280.251 756.557 299.813C758.312 279.498 760.319 257.428 762.325 235.107C772.107 234.103 781.637 232.849 791.669 231.846C795.431 264.952 799.193 297.556 802.955 330.661C796.685 331.414 790.666 332.166 784.145 332.919C781.386 303.826 778.627 274.984 775.868 246.142C775.618 246.142 775.618 246.142 775.367 246.142C772.859 275.485 769.598 304.829 766.589 334.925Z" fill="#F0E7BE"/>
<path d="M866.408 269.215C868.415 269.466 870.17 269.466 871.926 269.717C872.678 271.974 873.681 274.231 874.434 276.739C872.929 276.99 871.424 277.492 869.418 277.742C874.183 291.286 878.948 304.829 883.713 318.874C876.942 319.626 870.672 320.378 864.151 321.131C861.392 312.604 858.884 304.829 856.376 296.552C848.852 297.556 841.83 298.308 835.058 299.06C834.557 302.572 834.055 305.832 833.553 309.092C827.534 309.092 821.766 309.092 814.994 309.092C815.997 300.314 817.001 291.286 818.255 282.006C819.759 281.755 821.264 281.504 823.521 281.254C824.023 277.492 824.274 273.479 824.775 269.466C823.02 268.964 821.766 268.463 820.01 268.212C821.766 254.167 823.521 240.122 825.277 225.325C833.553 224.322 841.579 223.57 850.106 222.566C855.624 238.116 861.141 253.666 866.408 269.215ZM838.82 236.862C838.319 247.897 838.068 257.929 837.566 268.212C839.322 268.463 840.576 268.964 842.331 269.215C842.08 272.726 841.579 276.238 841.328 279.247C839.071 279.749 837.566 280 836.061 280.501C836.061 282.006 836.061 283.009 836.061 284.514C841.328 283.762 846.344 283.26 851.36 282.508C851.109 281.504 851.109 280.501 850.859 279.247C852.614 278.996 854.119 278.996 855.875 278.746C854.871 275.485 853.868 272.476 852.865 269.968C850.608 269.717 849.103 269.466 847.347 269.215C844.839 258.682 842.081 248.148 838.82 236.862Z" fill="#F0E7BE"/>
<path d="M624.637 297.305C626.894 297.556 628.399 297.556 630.154 297.806C631.157 300.064 631.91 302.07 632.913 304.578C631.408 304.829 629.903 305.08 627.646 305.581C632.411 319.375 637.177 332.918 641.942 346.963C634.92 347.716 628.649 348.468 622.379 349.22C619.871 341.195 617.363 333.42 614.605 324.893C607.582 325.645 600.56 326.398 593.036 327.15C592.785 330.41 592.283 333.42 592.033 337.182C585.763 337.433 579.743 337.934 573.223 338.185C574.226 328.404 575.229 319.375 576.232 310.346C577.988 310.095 579.743 309.594 581.75 309.343C582.251 305.581 582.502 301.568 583.004 297.556C581.248 297.305 579.743 297.054 578.239 296.552C579.994 282.257 581.75 267.961 583.505 253.415C592.033 252.412 600.058 251.659 608.335 250.907C613.852 266.206 619.119 281.755 624.637 297.305ZM614.354 306.584C613.351 303.324 612.347 300.314 611.595 297.556C609.589 297.556 608.084 297.305 606.077 297.305C603.068 286.771 600.309 276.238 597.299 265.955C597.049 265.955 596.547 265.955 596.296 266.206C596.296 276.238 596.296 286.27 596.296 296.552C597.55 296.803 598.804 297.054 600.56 297.305C600.309 300.816 600.309 304.327 600.058 307.588C597.801 307.838 596.296 308.089 594.791 308.34C594.791 309.845 594.791 311.099 594.791 312.353C599.807 311.6 604.573 311.099 609.589 310.597C609.839 309.594 609.839 308.34 610.09 307.337C611.344 306.835 612.348 306.835 614.354 306.584Z" fill="#F0E7BE"/>
<path d="M934.373 212.785C941.395 212.033 947.916 211.281 954.437 210.528C960.958 222.817 967.479 235.107 973.749 247.145C977.26 234.354 980.771 220.811 984.282 207.017C990.803 206.265 997.324 205.512 1004.35 204.76C1001.59 212.785 999.33 220.309 996.822 227.833C993.311 238.618 989.549 249.402 986.289 260.437C985.285 263.447 985.286 266.958 985.536 269.968C986.79 282.006 988.295 294.045 989.8 306.585C983.781 307.337 977.761 307.839 971.491 308.591C970.99 304.578 970.488 300.565 969.987 296.803C968.983 287.524 967.98 278.244 966.726 269.215C966.476 267.46 965.723 265.704 964.971 264.199C955.691 248.65 946.411 233.1 937.132 217.551C936.129 216.046 935.376 214.541 934.373 212.785Z" fill="#F0E7BE"/>
<path d="M705.142 339.439C687.335 341.446 670.03 343.452 652.224 345.458C648.462 312.353 644.7 279.749 640.938 246.643C647.208 245.891 652.725 245.389 659.246 244.637C662.506 272.726 665.767 300.565 669.027 328.655C680.313 327.401 691.348 326.147 703.136 324.893C703.637 329.909 704.39 334.423 705.142 339.439Z" fill="#F0E7BE"/>
<path d="M893.494 244.386C900.015 243.885 906.034 243.634 911.803 243.132C912.555 249.653 913.307 255.672 914.311 261.942C909.295 264.952 904.529 267.711 899.513 270.47C899.513 270.72 899.764 270.971 899.764 271.222C904.529 269.216 909.294 267.209 914.561 264.701C914.812 266.958 915.063 269.216 915.063 270.47C914.06 272.727 913.307 274.232 912.555 275.987C914.06 276.489 914.812 276.74 915.815 277.241C917.32 289.781 918.574 302.07 920.079 314.61C913.809 315.363 908.041 316.115 901.771 316.868C900.517 305.582 899.263 294.546 898.009 283.01C897.507 283.01 896.755 283.01 895.25 283.26C894.999 281.003 894.748 278.495 894.497 275.987C895.25 275.486 896.002 274.984 897.005 274.232C895.751 264.45 894.748 254.669 893.494 244.386Z" fill="#F0E7BE"/>
<path d="M892.24 232.348C884.967 233.1 877.945 233.853 870.671 234.605C870.17 229.84 869.418 225.075 868.916 220.31C889.482 218.052 909.796 215.544 930.362 213.287C930.864 218.052 931.616 222.818 932.117 227.583C924.844 228.586 918.073 229.338 911.05 230.091C911.301 233.602 911.301 237.113 911.552 240.875C905.282 240.875 899.513 240.875 893.243 240.875C892.993 238.367 892.742 235.859 892.24 232.348Z" fill="#F0E7BE"/>
<path d="M731.727 296.051C733.482 310.346 734.987 323.89 736.743 337.934C730.473 338.687 724.704 339.439 718.434 340.192C716.93 327.15 715.425 314.359 713.92 301.067C719.688 299.813 725.457 298.057 731.727 296.051Z" fill="#F0E7BE"/>
<path d="M813.238 326.9C813.74 322.385 814.241 318.372 814.743 313.858C821.013 313.106 827.032 312.604 833.804 311.852C833.553 316.115 833.051 320.379 832.801 324.893C826.28 325.395 820.261 326.147 813.238 326.9Z" fill="#F0E7BE"/>
<path d="M570.965 354.738C571.466 349.722 571.968 345.96 572.47 341.697C578.74 340.944 585.01 340.192 591.781 339.439C591.28 343.954 591.029 347.967 590.527 352.481C584.257 353.233 577.987 353.986 570.965 354.738Z" fill="#F0E7BE"/>
</g>
<defs>
<clipPath id="clip0_404_626">
<rect width="1194" height="444" fill="white"/>
</clipPath>
</defs>
</svg>
